<?xml version="1.0" encoding="UTF-8" standalone="no"?>
<!-- Created with Inkscape (http://www.inkscape.org/) -->
<svg
   xmlns:dc="http://purl.org/dc/elements/1.1/"
   xmlns:cc="http://creativecommons.org/ns#"
   xmlns:rdf="http://www.w3.org/1999/02/22-rdf-syntax-ns#"
   xmlns:svg="http://www.w3.org/2000/svg"
   xmlns="http://www.w3.org/2000/svg"
   xmlns:xlink="http://www.w3.org/1999/xlink"
   xmlns:sodipodi="http://sodipodi.sourceforge.net/DTD/sodipodi-0.dtd"
   xmlns:inkscape="http://www.inkscape.org/namespaces/inkscape"
   width="744.09448819"
   height="1052.3622047"
   id="svg2"
   sodipodi:version="0.32"
   inkscape:version="0.46"
   sodipodi:docname="casina.svg"
   inkscape:output_extension="org.inkscape.output.svg.inkscape">
  <defs
     id="defs4">
    <inkscape:perspective
       sodipodi:type="inkscape:persp3d"
       inkscape:vp_x="0 : 526.18109 : 1"
       inkscape:vp_y="0 : 1000 : 0"
       inkscape:vp_z="744.09448 : 526.18109 : 1"
       inkscape:persp3d-origin="372.04724 : 350.78739 : 1"
       id="perspective10" />
    <inkscape:perspective
       id="perspective2390"
       inkscape:persp3d-origin="372.04724 : 350.78739 : 1"
       inkscape:vp_z="744.09448 : 526.18109 : 1"
       inkscape:vp_y="0 : 1000 : 0"
       inkscape:vp_x="0 : 526.18109 : 1"
       sodipodi:type="inkscape:persp3d" />
  </defs>
  <sodipodi:namedview
     id="base"
     pagecolor="#ffffff"
     bordercolor="#666666"
     borderopacity="1.0"
     inkscape:pageopacity="0.0"
     inkscape:pageshadow="2"
     inkscape:zoom="0.35"
     inkscape:cx="218.76933"
     inkscape:cy="797.36366"
     inkscape:document-units="px"
     inkscape:current-layer="layer1"
     showgrid="false"
     inkscape:window-width="640"
     inkscape:window-height="662"
     inkscape:window-x="1981"
     inkscape:window-y="150" />
  <metadata
     id="metadata7">
    <rdf:RDF>
      <cc:Work
         rdf:about="">
        <dc:format>image/svg+xml</dc:format>
        <dc:type
           rdf:resource="http://purl.org/dc/dcmitype/StillImage" />
      </cc:Work>
    </rdf:RDF>
  </metadata>
  <g
     inkscape:label="Livello 1"
     inkscape:groupmode="layer"
     id="layer1">
    <image
       y="339.14792"
       x="518.92859"
       id="image2392"
       height="45"
       width="45"
       sodipodi:absref="C:\Documents and Settings\DARIOSKY\Desktop\Dariosky\cat_casa.gif"
       xlink:href="Dariosky\cat_casa.gif"
       inkscape:transform-center-x="-33.571429"
       inkscape:transform-center-y="27.142857" />
    <g
       id="g2432"
       transform="translate(-96.974647,15.026019)"
       inkscape:export-filename="C:\Documents and Settings\DARIOSKY\Desktop\casina.png"
       inkscape:export-xdpi="35.34"
       inkscape:export-ydpi="35.34">
      <path
         style="fill:#cecdcd"
         d="M 537.42859,380.02724 C 532.47859,379.98397 527.30763,379.63658 525.93756,379.25527 L 523.44653,378.56198 L 522.49612,375.8595 L 521.5457,373.15701 L 524.13348,370.40246 L 526.72126,367.64792 L 525.72542,366.1284 L 524.72959,364.60888 L 529.57909,356.90049 L 534.42859,349.1921 L 538.0968,349.17001 C 540.11432,349.15786 542.47362,348.876 543.33969,348.54366 L 544.91436,347.9394 L 544.31307,345.54366 L 543.71177,343.14792 L 547.93676,343.14792 L 552.16174,343.14792 L 551.68384,345.64792 L 551.20593,348.14792 L 552.45253,348.14792 L 553.69913,348.14792 L 557.99453,355.25706 L 562.28994,362.3662 L 560.60926,363.30675 L 558.92859,364.2473 L 558.92859,368.17336 L 558.92859,372.09941 L 552.67859,376.10267 L 546.42859,380.10593 L 537.42859,380.02724 z M 540.64288,374.14792 L 541.92859,374.14792 L 541.92859,372.14792 L 541.92859,370.14792 L 540.64288,370.14792 L 539.35716,370.14792 L 539.35716,372.14792 L 539.35716,374.14792 L 540.64288,374.14792 z M 549.42859,368.14792 C 549.70359,368.14792 549.92859,367.92292 549.92859,367.64792 C 549.92859,367.37292 549.70359,367.14792 549.42859,367.14792 C 549.15359,367.14792 548.92859,367.37292 548.92859,367.64792 C 548.92859,367.92292 549.15359,368.14792 549.42859,368.14792 z M 552.42859,367.14792 C 552.70359,367.14792 552.92859,366.92292 552.92859,366.64792 C 552.92859,366.37292 552.70359,366.14792 552.42859,366.14792 C 552.15359,366.14792 551.92859,366.37292 551.92859,366.64792 C 551.92859,366.92292 552.15359,367.14792 552.42859,367.14792 z"
         id="path2466" />
      <path
         style="fill:#afafac"
         d="M 543.36848,380.03835 C 542.30154,379.97809 539.57819,379.56216 537.3166,379.11406 C 535.055,378.66596 531.3425,377.79792 529.0666,377.18508 L 524.92859,376.07083 L 524.92859,374.66839 C 524.92859,373.89705 525.37859,372.98784 525.92859,372.64792 L 526.92859,372.02989 L 526.92859,369.17224 L 526.92859,366.31459 L 525.71466,365.90994 L 524.50072,365.5053 L 529.5898,357.57661 L 534.67887,349.64792 L 540.26896,349.34905 L 545.85904,349.05019 L 545.25406,346.02527 L 544.64908,343.00036 L 548.03883,343.32414 L 551.42859,343.64792 L 551.42859,345.64792 L 551.42859,347.64792 L 553.10196,349.14792 C 554.02232,349.97292 556.37083,353.19193 558.32087,356.30128 L 561.86641,361.95464 L 560.3975,363.17372 L 558.92859,364.39281 L 558.92859,368.15563 L 558.92859,371.91846 L 552.11848,376.03319 L 545.30836,380.14792 L 543.36848,380.03835 z M 541.09526,375.14792 L 541.92859,375.14792 L 541.92859,372.64792 L 541.92859,370.14792 L 540.42859,370.14792 L 538.92859,370.14792 L 538.92859,371.98125 C 538.92859,372.98959 539.22859,374.11459 539.59526,374.48125 C 539.96192,374.84792 540.63692,375.14792 541.09526,375.14792 z M 549.6117,369.33542 L 550.13692,368.02292 L 549.53276,367.41875 L 548.92859,366.81459 L 549.00754,368.73125 L 549.08649,370.64792 L 549.6117,369.33542 z M 552.6117,368.33542 L 553.13692,367.02292 L 552.53276,366.41875 L 551.92859,365.81459 L 552.00754,367.73125 L 552.08649,369.64792 L 552.6117,368.33542 z"
         id="path2464" />
      <path
         style="fill:#95ce68"
         d="M 543.92859,380.03185 C 543.10359,379.97293 539.27859,379.17997 535.42859,378.2697 L 528.42859,376.61468 L 528.12705,371.96097 L 527.82552,367.30726 L 526.44173,366.15882 L 525.05794,365.01038 L 530.09335,357.07915 L 535.12876,349.14792 L 540.60813,349.14792 L 546.0875,349.14792 L 545.41312,346.07748 L 544.73874,343.00704 L 548.08366,343.32748 L 551.42859,343.64792 L 551.42859,345.64792 L 551.42859,347.64792 L 553.10196,349.14792 C 554.02232,349.97292 556.38447,353.21326 558.35118,356.34867 L 561.92703,362.04941 L 560.50226,362.84867 L 559.07749,363.64792 L 558.75304,367.64176 L 558.42859,371.63561 L 551.92859,375.88729 L 545.42859,380.13897 L 543.92859,380.03185 z M 540.42859,375.14792 L 541.92859,375.14792 L 541.92859,372.64792 L 541.92859,370.14792 L 540.42859,370.14792 L 538.92859,370.14792 L 538.92859,372.64792 L 538.92859,375.14792 L 540.42859,375.14792 z M 549.6117,369.33542 L 550.13692,368.02292 L 549.53276,367.41875 L 548.92859,366.81459 L 549.00754,368.73125 L 549.08649,370.64792 L 549.6117,369.33542 z M 552.59087,368.39792 L 553.09526,367.14792 L 552.59087,365.89792 L 552.08649,364.64792 L 552.08649,367.14792 L 552.08649,369.64792 L 552.59087,368.39792 z"
         id="path2462" />
      <path
         style="fill:#6ca1ae"
         d="M 543.92859,380.05326 C 543.10359,380.00611 540.85359,379.55546 538.92859,379.05181 C 537.00359,378.54816 533.74109,377.67068 531.67859,377.10186 L 527.92859,376.06764 L 527.92859,371.10778 L 527.92859,366.14792 L 526.92859,366.14792 C 526.37859,366.14792 525.92859,365.70468 525.92859,365.16294 C 525.92859,364.6212 527.31839,361.91925 529.01704,359.15859 L 532.10549,354.13922 L 533.14677,354.78276 L 534.18805,355.42631 L 533.69345,354.03712 L 533.19885,352.64792 L 534.0989,350.89792 L 534.99896,349.14792 L 540.54323,349.14792 L 546.0875,349.14792 L 545.41312,346.07748 L 544.73874,343.00704 L 548.08366,343.32748 L 551.42859,343.64792 L 551.24033,346.39792 L 551.05206,349.14792 L 552.24033,349.15667 L 553.42859,349.16541 L 557.17859,354.98665 C 559.24109,358.18833 560.92859,361.33439 560.92859,361.9779 L 560.92859,363.14792 L 559.98609,363.14792 L 559.04359,363.14792 L 558.73609,367.39134 L 558.42859,371.63476 L 551.92859,375.88687 L 545.42859,380.13897 L 543.92859,380.05326 z M 540.42859,375.14792 L 541.92859,375.14792 L 541.92859,372.64792 L 541.92859,370.14792 L 540.42859,370.14792 L 538.92859,370.14792 L 538.92859,372.64792 L 538.92859,375.14792 L 540.42859,375.14792 z M 549.6117,369.33542 L 550.13692,368.02292 L 549.53276,367.41875 L 548.92859,366.81459 L 549.00754,368.73125 L 549.08649,370.64792 L 549.6117,369.33542 z M 552.92859,369.14792 C 553.47859,369.14792 553.9217,368.81042 553.91328,368.39792 C 553.90485,367.98542 553.46175,366.97292 552.92859,366.14792 L 551.95922,364.64792 L 551.9439,366.89792 L 551.92859,369.14792 L 552.92859,369.14792 z M 538.5946,366.14792 L 539.14257,366.14792 L 538.59502,364.72103 L 538.04747,363.29415 L 539.29007,362.26288 L 540.53266,361.23162 L 542.48063,361.7327 L 544.42859,362.23377 L 545.82024,359.94085 L 547.2119,357.64792 L 545.2415,359.39792 C 544.15779,360.36042 543.00886,361.14792 542.68833,361.14792 C 542.36781,361.14792 542.20529,360.46837 542.3272,359.6378 C 542.4491,358.80723 543.08428,357.59223 543.73871,356.9378 C 544.39315,356.28337 544.89696,355.05042 544.8583,354.19792 L 544.78802,352.64792 L 544.1083,354.18823 C 543.73446,355.0354 542.13768,357.3979 540.5599,359.43823 L 537.69121,363.14792 L 536.3099,363.14792 L 534.92859,363.14792 L 534.92859,364.20694 L 534.92859,365.26595 L 535.85949,364.69063 L 536.79039,364.1153 L 537.41851,365.13161 C 537.76397,365.69058 538.29321,366.14792 538.5946,366.14792 z M 541.42859,360.14792 C 541.15359,360.14792 540.92859,359.92292 540.92859,359.64792 C 540.92859,359.37292 541.15359,359.14792 541.42859,359.14792 C 541.70359,359.14792 541.92859,359.37292 541.92859,359.64792 C 541.92859,359.92292 541.70359,360.14792 541.42859,360.14792 z M 540.92859,365.14792 L 542.26192,365.14792 L 541.59526,364.48125 L 540.92859,363.81459 L 540.26192,364.48125 L 539.59526,365.14792 L 540.92859,365.14792 z M 533.42859,363.15253 C 534.52859,362.34901 536.86513,360.26831 538.6209,358.52873 L 541.8132,355.36586 L 541.19023,354.74289 L 540.56725,354.11992 L 537.71415,356.85337 L 534.86104,359.58682 L 533.00262,358.42623 L 531.14421,357.26563 L 530.5364,357.87344 C 530.2021,358.20774 529.92859,358.88281 529.92859,359.3736 L 529.92859,360.26595 L 530.83835,359.70369 L 531.74811,359.14143 L 533.38152,359.76823 L 535.01493,360.39503 L 533.22176,362.50424 L 531.42859,364.61345 L 533.42859,363.15253 z M 540.42859,356.14792 C 540.15359,356.14792 539.92859,355.92292 539.92859,355.64792 C 539.92859,355.37292 540.15359,355.14792 540.42859,355.14792 C 540.70359,355.14792 540.92859,355.37292 540.92859,355.64792 C 540.92859,355.92292 540.70359,356.14792 540.42859,356.14792 z M 534.92859,357.14792 L 535.92859,357.14792 L 535.92859,356.0889 L 535.92859,355.02989 L 534.92859,355.64792 C 534.37859,355.98784 533.92859,356.4644 533.92859,356.70694 C 533.92859,356.94948 534.37859,357.14792 534.92859,357.14792 z M 542.42859,354.14792 C 542.70359,354.14792 542.92859,353.92292 542.92859,353.64792 C 542.92859,353.37292 542.70359,353.14792 542.42859,353.14792 C 542.15359,353.14792 541.92859,353.37292 541.92859,353.64792 C 541.92859,353.92292 542.15359,354.14792 542.42859,354.14792 z M 547.42859,354.14792 C 547.70359,354.14792 547.92859,353.92292 547.92859,353.64792 C 547.92859,353.37292 547.70359,353.14792 547.42859,353.14792 C 547.15359,353.14792 546.92859,353.37292 546.92859,353.64792 C 546.92859,353.92292 547.15359,354.14792 547.42859,354.14792 z M 535.13948,353.14792 L 536.6837,353.14792 L 538.05615,351.39792 L 539.42859,349.64792 L 537.92859,350.81288 C 537.10359,351.45361 536.05359,351.97861 535.59526,351.97955 C 535.13692,351.98049 534.49942,352.24375 534.17859,352.56459 L 533.59526,353.14792 L 535.13948,353.14792 z M 551.92859,351.64792 C 552.47859,351.308 552.92859,350.80489 552.92859,350.52989 C 552.92859,350.25489 552.47859,350.308 551.92859,350.64792 C 551.37859,350.98784 550.92859,351.49095 550.92859,351.76595 C 550.92859,352.04095 551.37859,351.98784 551.92859,351.64792 z M 544.42859,351.14792 C 544.70359,351.14792 544.92859,350.92292 544.92859,350.64792 C 544.92859,350.37292 544.70359,350.14792 544.42859,350.14792 C 544.15359,350.14792 543.92859,350.37292 543.92859,350.64792 C 543.92859,350.92292 544.15359,351.14792 544.42859,351.14792 z"
         id="path2460" />
      <path
         style="fill:#86c854"
         d="M 543.92859,380.05326 C 543.10359,380.00611 540.85359,379.55546 538.92859,379.05181 C 537.00359,378.54816 533.74109,377.67068 531.67859,377.10186 L 527.92859,376.06764 L 527.92859,371.10778 L 527.92859,366.14792 L 526.92859,366.14792 C 526.37859,366.14792 525.92859,365.70468 525.92859,365.16294 C 525.92859,364.6212 527.31839,361.91925 529.01704,359.15859 L 532.10549,354.13922 L 533.14677,354.78276 L 534.18805,355.42631 L 533.69345,354.03712 L 533.19885,352.64792 L 534.0989,350.89792 L 534.99896,349.14792 L 540.54323,349.14792 L 546.0875,349.14792 L 545.42859,346.14792 L 544.76968,343.14792 L 547.79012,343.14792 L 550.81056,343.14792 L 551.45566,344.19172 L 552.10077,345.23553 L 550.85023,346.74234 L 549.59969,348.24915 L 551.52419,348.75242 L 553.4487,349.25569 L 557.18864,355.03178 C 559.24562,358.20864 560.92859,361.33439 560.92859,361.9779 L 560.92859,363.14792 L 559.98609,363.14792 L 559.04359,363.14792 L 558.73609,367.39134 L 558.42859,371.63476 L 551.92859,375.88687 L 545.42859,380.13897 L 543.92859,380.05326 z M 540.3216,375.14792 L 541.71461,375.14792 L 542.27911,373.67686 L 542.84361,372.2058 L 541.31467,370.67686 C 540.47375,369.83594 539.59288,369.14792 539.35716,369.14792 C 539.12145,369.14792 538.92859,370.49792 538.92859,372.14792 L 538.92859,375.14792 L 540.3216,375.14792 z M 550.19529,370.28122 L 551.19416,369.28235 L 550.56844,367.65175 L 549.94272,366.02116 L 549.02953,366.58553 L 548.11635,367.14991 L 548.65638,369.215 L 549.19642,371.28009 L 550.19529,370.28122 z M 553.03221,369.4443 L 554.13584,368.34067 L 553.06262,366.4943 L 551.98941,364.64792 L 551.959,367.59792 L 551.92859,370.54792 L 553.03221,369.4443 z M 538.5946,366.14792 L 539.14257,366.14792 L 538.59502,364.72103 L 538.04747,363.29415 L 539.29007,362.26288 L 540.53266,361.23162 L 542.48063,361.7327 L 544.42859,362.23377 L 545.82024,359.94085 L 547.2119,357.64792 L 545.2415,359.39792 C 544.15779,360.36042 543.00886,361.14792 542.68833,361.14792 C 542.36781,361.14792 542.20529,360.46837 542.3272,359.6378 C 542.4491,358.80723 543.08428,357.59223 543.73871,356.9378 C 544.39315,356.28337 544.89696,355.05042 544.8583,354.19792 L 544.78802,352.64792 L 544.1083,354.18823 C 543.73446,355.0354 542.13768,357.3979 540.5599,359.43823 L 537.69121,363.14792 L 536.3099,363.14792 L 534.92859,363.14792 L 534.92859,364.20694 L 534.92859,365.26595 L 535.85949,364.69063 L 536.79039,364.1153 L 537.41851,365.13161 C 537.76397,365.69058 538.29321,366.14792 538.5946,366.14792 z M 541.42859,360.14792 C 541.15359,360.14792 540.92859,359.92292 540.92859,359.64792 C 540.92859,359.37292 541.15359,359.14792 541.42859,359.14792 C 541.70359,359.14792 541.92859,359.37292 541.92859,359.64792 C 541.92859,359.92292 541.70359,360.14792 541.42859,360.14792 z M 540.92859,365.14792 L 542.26192,365.14792 L 541.59526,364.48125 L 540.92859,363.81459 L 540.26192,364.48125 L 539.59526,365.14792 L 540.92859,365.14792 z M 533.42859,363.15253 C 534.52859,362.34901 536.86513,360.26831 538.6209,358.52873 L 541.8132,355.36586 L 541.19023,354.74289 L 540.56725,354.11992 L 537.71415,356.85337 L 534.86104,359.58682 L 533.00262,358.42623 L 531.14421,357.26563 L 530.5364,357.87344 C 530.2021,358.20774 529.92859,358.88281 529.92859,359.3736 L 529.92859,360.26595 L 530.83835,359.70369 L 531.74811,359.14143 L 533.38152,359.76823 L 535.01493,360.39503 L 533.22176,362.50424 L 531.42859,364.61345 L 533.42859,363.15253 z M 540.42859,356.14792 C 540.15359,356.14792 539.92859,355.92292 539.92859,355.64792 C 539.92859,355.37292 540.15359,355.14792 540.42859,355.14792 C 540.70359,355.14792 540.92859,355.37292 540.92859,355.64792 C 540.92859,355.92292 540.70359,356.14792 540.42859,356.14792 z M 534.92859,357.14792 L 535.92859,357.14792 L 535.92859,356.0889 L 535.92859,355.02989 L 534.92859,355.64792 C 534.37859,355.98784 533.92859,356.4644 533.92859,356.70694 C 533.92859,356.94948 534.37859,357.14792 534.92859,357.14792 z M 542.42859,354.14792 C 542.70359,354.14792 542.92859,353.92292 542.92859,353.64792 C 542.92859,353.37292 542.70359,353.14792 542.42859,353.14792 C 542.15359,353.14792 541.92859,353.37292 541.92859,353.64792 C 541.92859,353.92292 542.15359,354.14792 542.42859,354.14792 z M 547.42859,354.14792 C 547.70359,354.14792 547.92859,353.92292 547.92859,353.64792 C 547.92859,353.37292 547.70359,353.14792 547.42859,353.14792 C 547.15359,353.14792 546.92859,353.37292 546.92859,353.64792 C 546.92859,353.92292 547.15359,354.14792 547.42859,354.14792 z M 535.13948,353.14792 L 536.6837,353.14792 L 538.05615,351.39792 L 539.42859,349.64792 L 537.92859,350.81288 C 537.10359,351.45361 536.05359,351.97861 535.59526,351.97955 C 535.13692,351.98049 534.49942,352.24375 534.17859,352.56459 L 533.59526,353.14792 L 535.13948,353.14792 z M 551.92859,351.64792 C 552.47859,351.308 552.92859,350.80489 552.92859,350.52989 C 552.92859,350.25489 552.47859,350.308 551.92859,350.64792 C 551.37859,350.98784 550.92859,351.49095 550.92859,351.76595 C 550.92859,352.04095 551.37859,351.98784 551.92859,351.64792 z M 544.42859,351.14792 C 544.70359,351.14792 544.92859,350.92292 544.92859,350.64792 C 544.92859,350.37292 544.70359,350.14792 544.42859,350.14792 C 544.15359,350.14792 543.92859,350.37292 543.92859,350.64792 C 543.92859,350.92292 544.15359,351.14792 544.42859,351.14792 z"
         id="path2458" />
      <path
         style="fill:#d4b407"
         d="M 543.92859,380.05326 C 543.10359,380.00611 540.85359,379.55546 538.92859,379.05181 C 537.00359,378.54816 533.74109,377.67068 531.67859,377.10186 L 527.92859,376.06764 L 527.92859,370.10778 L 527.92859,364.14792 L 526.67859,364.11612 L 525.42859,364.08431 L 526.92859,362.8625 C 527.75359,362.1905 528.57323,360.96731 528.75002,360.1443 C 528.9268,359.32129 529.51596,358.19792 530.05926,357.64792 L 531.04708,356.64792 L 530.38085,358.39792 L 529.71461,360.14792 L 531.97659,360.14792 L 534.23856,360.14792 L 532.42859,362.14792 C 531.4331,363.24792 530.80086,364.18235 531.0236,364.22443 C 531.24635,364.26651 532.16045,364.44353 533.05494,364.6178 C 533.94944,364.79207 535.63694,365.23797 536.80494,365.60868 L 538.92859,366.28269 L 538.92859,364.3223 L 538.92859,362.3619 L 540.39657,361.79858 L 541.86454,361.23527 L 542.49584,362.25674 L 543.12714,363.27821 L 545.02787,361.55807 L 546.92859,359.83794 L 546.92859,357.95775 L 546.92859,356.07755 L 544.67859,357.23514 L 542.42859,358.39273 L 543.67859,357.07033 C 544.36609,356.343 544.92859,355.11307 544.92859,354.33714 L 544.92859,352.92635 L 543.09526,355.19042 L 541.26192,357.45449 L 541.26192,355.8452 L 541.26192,354.2359 L 542.09526,354.75093 L 542.92859,355.26595 L 542.92859,354.20694 L 542.92859,353.14792 L 541.53558,353.14792 L 540.14257,353.14792 L 539.52715,354.75167 L 538.91173,356.35543 L 537.29341,355.73442 L 535.67509,355.11341 L 534.49729,356.09091 L 533.31948,357.0684 L 533.5193,354.18214 C 533.6292,352.59469 534.01781,350.81258 534.38287,350.22189 C 534.74793,349.63121 535.53981,349.14792 536.1426,349.14792 L 537.23856,349.14792 L 535.42859,351.14792 L 533.61861,353.14792 L 534.5236,353.26634 C 535.02135,353.33147 535.76609,353.33147 536.17859,353.26634 C 536.59109,353.20121 536.92859,353.62448 536.92859,354.20694 L 536.92859,355.26595 L 537.99676,354.60579 L 539.06494,353.94562 L 538.48542,352.43543 L 537.90591,350.92524 L 539.38522,351.49291 L 540.86454,352.06057 L 541.55107,350.94974 L 542.23761,349.8389 L 541.0831,350.55243 L 539.92859,351.26595 L 539.92859,350.20694 L 539.92859,349.14792 L 543.00805,349.14792 L 546.0875,349.14792 L 545.42859,346.14792 L 544.76968,343.14792 L 547.79012,343.14792 L 550.81056,343.14792 L 551.48244,344.23505 L 552.15432,345.32218 L 551.14146,346.33505 L 550.12859,347.34792 L 553.77859,351.06245 C 555.78609,353.10544 558.30398,356.46706 559.3739,358.53272 L 561.31922,362.28846 L 560.1984,362.98117 L 559.07758,363.67387 L 558.75309,367.65474 L 558.42859,371.63561 L 551.92859,375.88729 L 545.42859,380.13897 L 543.92859,380.05326 z M 540.3216,375.14792 L 541.71461,375.14792 L 542.27911,373.67686 L 542.84361,372.2058 L 541.31467,370.67686 C 540.47375,369.83594 539.59288,369.14792 539.35716,369.14792 C 539.12145,369.14792 538.92859,370.49792 538.92859,372.14792 L 538.92859,375.14792 L 540.3216,375.14792 z M 550.19529,370.28122 L 551.19416,369.28235 L 550.56844,367.65175 L 549.94272,366.02116 L 549.02953,366.58553 L 548.11635,367.14991 L 548.65638,369.215 L 549.19642,371.28009 L 550.19529,370.28122 z M 553.03221,369.4443 L 554.13584,368.34067 L 553.06262,366.4943 L 551.98941,364.64792 L 551.959,367.59792 L 551.92859,370.54792 L 553.03221,369.4443 z M 541.42859,367.14792 C 541.70359,367.14792 541.92859,366.92292 541.92859,366.64792 C 541.92859,366.37292 541.70359,366.14792 541.42859,366.14792 C 541.15359,366.14792 540.92859,366.37292 540.92859,366.64792 C 540.92859,366.92292 541.15359,367.14792 541.42859,367.14792 z M 541.96802,365.14792 L 544.00744,365.14792 L 542.71802,363.75288 L 541.42859,362.35784 L 540.67859,362.8119 C 540.26609,363.06163 539.92859,363.6894 539.92859,364.20694 L 539.92859,365.14792 L 541.96802,365.14792 z M 530.54662,362.14792 C 530.82162,362.14792 530.76851,361.69792 530.42859,361.14792 C 530.08867,360.59792 529.58556,360.14792 529.31056,360.14792 C 529.03556,360.14792 529.08867,360.59792 529.42859,361.14792 C 529.76851,361.69792 530.27162,362.14792 530.54662,362.14792 z M 549.42859,356.14792 C 549.70359,356.14792 549.92859,355.92292 549.92859,355.64792 C 549.92859,355.37292 549.70359,355.14792 549.42859,355.14792 C 549.15359,355.14792 548.92859,355.37292 548.92859,355.64792 C 548.92859,355.92292 549.15359,356.14792 549.42859,356.14792 z M 547.22172,354.58363 L 549.01485,353.90084 L 548.45505,353.34105 L 547.89526,352.78125 L 546.66192,354.02383 L 545.42859,355.26641 L 547.22172,354.58363 z M 543.92859,351.64792 C 544.47859,351.308 544.92859,350.83144 544.92859,350.5889 C 544.92859,350.34636 544.47859,350.14792 543.92859,350.14792 L 542.92859,350.14792 L 542.92859,351.20694 L 542.92859,352.26595 L 543.92859,351.64792 z M 551.92859,351.64792 C 552.47859,351.308 552.92859,350.80489 552.92859,350.52989 C 552.92859,350.25489 552.47859,350.308 551.92859,350.64792 C 551.37859,350.98784 550.92859,351.49095 550.92859,351.76595 C 550.92859,352.04095 551.37859,351.98784 551.92859,351.64792 z M 526.42859,366.14792 C 526.15359,366.14792 525.92859,365.92292 525.92859,365.64792 C 525.92859,365.37292 526.15359,365.14792 526.42859,365.14792 C 526.70359,365.14792 526.92859,365.37292 526.92859,365.64792 C 526.92859,365.92292 526.70359,366.14792 526.42859,366.14792 z M 534.92859,363.64792 L 533.92859,364.26595 L 533.92859,363.20694 L 533.92859,362.14792 L 534.92859,362.14792 C 535.47859,362.14792 535.92859,362.34636 535.92859,362.5889 C 535.92859,362.83144 535.47859,363.308 534.92859,363.64792 z M 537.21156,363.06459 C 537.05593,363.29375 536.92859,363.01135 536.92859,362.43703 C 536.92859,361.86271 537.71609,360.77521 538.67859,360.02036 L 540.42859,358.64792 L 538.96156,360.64792 C 538.15469,361.74792 537.36719,362.83542 537.21156,363.06459 z M 543.42859,360.14792 C 543.15359,360.14792 542.92859,359.92292 542.92859,359.64792 C 542.92859,359.37292 543.15359,359.14792 543.42859,359.14792 C 543.70359,359.14792 543.92859,359.37292 543.92859,359.64792 C 543.92859,359.92292 543.70359,360.14792 543.42859,360.14792 z M 535.42859,358.14792 C 535.15359,358.14792 534.92859,357.92292 534.92859,357.64792 C 534.92859,357.37292 535.15359,357.14792 535.42859,357.14792 C 535.70359,357.14792 535.92859,357.37292 535.92859,357.64792 C 535.92859,357.92292 535.70359,358.14792 535.42859,358.14792 z M 531.92859,355.64792 C 531.37859,355.98784 530.92859,356.04095 530.92859,355.76595 C 530.92859,355.49095 531.37859,354.98784 531.92859,354.64792 C 532.47859,354.308 532.92859,354.25489 532.92859,354.52989 C 532.92859,354.80489 532.47859,355.308 531.92859,355.64792 z"
         id="path2456" />
      <path
         style="fill:#7cc345"
         d="M 544.42859,380.04009 C 543.87859,379.98571 541.62859,379.51997 539.42859,379.00512 C 537.22859,378.49027 533.74109,377.61872 531.67859,377.06833 L 527.92859,376.06764 L 527.92859,370.10778 L 527.92859,364.14792 L 526.67859,364.11612 L 525.42859,364.08431 L 526.92859,362.8625 C 527.75359,362.1905 528.57323,360.96731 528.75002,360.1443 C 528.9268,359.32129 529.51596,358.19792 530.05926,357.64792 L 531.04708,356.64792 L 530.38085,358.39792 L 529.71461,360.14792 L 531.97659,360.14792 L 534.23856,360.14792 L 532.42859,362.14792 C 531.4331,363.24792 530.80086,364.18235 531.0236,364.22443 C 531.24635,364.26651 532.16045,364.44353 533.05494,364.6178 C 533.94944,364.79207 535.63694,365.23797 536.80494,365.60868 L 538.92859,366.28269 L 538.92859,364.3223 L 538.92859,362.3619 L 540.39657,361.79858 L 541.86454,361.23527 L 542.49584,362.25674 L 543.12714,363.27821 L 545.02787,361.55807 L 546.92859,359.83794 L 546.92859,357.95775 L 546.92859,356.07755 L 544.67859,357.23514 L 542.42859,358.39273 L 543.67859,357.07033 C 544.36609,356.343 544.92859,355.11307 544.92859,354.33714 L 544.92859,352.92635 L 543.09526,355.19042 L 541.26192,357.45449 L 541.26192,355.8452 L 541.26192,354.2359 L 542.09526,354.75093 L 542.92859,355.26595 L 542.92859,354.20694 L 542.92859,353.14792 L 541.53558,353.14792 L 540.14257,353.14792 L 539.52715,354.75167 L 538.91173,356.35543 L 537.29341,355.73442 L 535.67509,355.11341 L 534.49729,356.09091 L 533.31948,357.0684 L 533.5193,354.18214 C 533.6292,352.59469 534.01781,350.81258 534.38287,350.22189 C 534.74793,349.63121 535.53981,349.14792 536.1426,349.14792 L 537.23856,349.14792 L 535.42859,351.14792 L 533.61861,353.14792 L 534.5236,353.26634 C 535.02135,353.33147 535.76609,353.33147 536.17859,353.26634 C 536.59109,353.20121 536.92859,353.62448 536.92859,354.20694 L 536.92859,355.26595 L 537.99676,354.60579 L 539.06494,353.94562 L 538.48542,352.43543 L 537.90591,350.92524 L 539.38522,351.49291 L 540.86454,352.06057 L 541.55107,350.94974 L 542.23761,349.8389 L 541.0831,350.55243 L 539.92859,351.26595 L 539.92859,350.20694 L 539.92859,349.14792 L 543.00805,349.14792 L 546.0875,349.14792 L 545.42859,346.14792 L 544.76968,343.14792 L 547.79012,343.14792 L 550.81056,343.14792 L 551.48244,344.23505 L 552.15432,345.32218 L 551.14146,346.33505 L 550.12859,347.34792 L 553.77859,351.06245 C 555.78609,353.10544 558.30398,356.46706 559.3739,358.53272 L 561.31922,362.28846 L 560.1984,362.98117 L 559.07758,363.67387 L 558.75309,367.65474 L 558.42859,371.63561 L 551.92859,375.88729 C 548.35359,378.22571 544.97859,380.09447 544.42859,380.04009 z M 533.59526,377.14792 C 533.77859,377.14792 533.92859,375.34792 533.92859,373.14792 L 533.92859,369.14792 L 532.92859,369.14792 L 531.92859,369.14792 L 531.92859,372.48125 C 531.92859,374.31459 532.22859,376.11459 532.59526,376.48125 C 532.96192,376.84792 533.41192,377.14792 533.59526,377.14792 z M 540.3216,375.14792 L 541.71461,375.14792 L 542.27911,373.67686 L 542.84361,372.2058 L 541.31467,370.67686 C 540.47375,369.83594 539.59288,369.14792 539.35716,369.14792 C 539.12145,369.14792 538.92859,370.49792 538.92859,372.14792 L 538.92859,375.14792 L 540.3216,375.14792 z M 550.19529,370.28122 L 551.19416,369.28235 L 550.56844,367.65175 L 549.94272,366.02116 L 549.02953,366.58553 L 548.11635,367.14991 L 548.65638,369.215 L 549.19642,371.28009 L 550.19529,370.28122 z M 553.03221,369.4443 L 554.13584,368.34067 L 553.06262,366.4943 L 551.98941,364.64792 L 551.959,367.59792 L 551.92859,370.54792 L 553.03221,369.4443 z M 541.42859,367.14792 C 541.70359,367.14792 541.92859,366.92292 541.92859,366.64792 C 541.92859,366.37292 541.70359,366.14792 541.42859,366.14792 C 541.15359,366.14792 540.92859,366.37292 540.92859,366.64792 C 540.92859,366.92292 541.15359,367.14792 541.42859,367.14792 z M 541.96802,365.14792 L 544.00744,365.14792 L 542.71802,363.75288 L 541.42859,362.35784 L 540.67859,362.8119 C 540.26609,363.06163 539.92859,363.6894 539.92859,364.20694 L 539.92859,365.14792 L 541.96802,365.14792 z M 530.54662,362.14792 C 530.82162,362.14792 530.76851,361.69792 530.42859,361.14792 C 530.08867,360.59792 529.58556,360.14792 529.31056,360.14792 C 529.03556,360.14792 529.08867,360.59792 529.42859,361.14792 C 529.76851,361.69792 530.27162,362.14792 530.54662,362.14792 z M 549.42859,356.14792 C 549.70359,356.14792 549.92859,355.92292 549.92859,355.64792 C 549.92859,355.37292 549.70359,355.14792 549.42859,355.14792 C 549.15359,355.14792 548.92859,355.37292 548.92859,355.64792 C 548.92859,355.92292 549.15359,356.14792 549.42859,356.14792 z M 547.22172,354.58363 L 549.01485,353.90084 L 548.45505,353.34105 L 547.89526,352.78125 L 546.66192,354.02383 L 545.42859,355.26641 L 547.22172,354.58363 z M 543.92859,351.64792 C 544.47859,351.308 544.92859,350.83144 544.92859,350.5889 C 544.92859,350.34636 544.47859,350.14792 543.92859,350.14792 L 542.92859,350.14792 L 542.92859,351.20694 L 542.92859,352.26595 L 543.92859,351.64792 z M 551.92859,351.64792 C 552.47859,351.308 552.92859,350.80489 552.92859,350.52989 C 552.92859,350.25489 552.47859,350.308 551.92859,350.64792 C 551.37859,350.98784 550.92859,351.49095 550.92859,351.76595 C 550.92859,352.04095 551.37859,351.98784 551.92859,351.64792 z M 526.42859,366.14792 C 526.15359,366.14792 525.92859,365.92292 525.92859,365.64792 C 525.92859,365.37292 526.15359,365.14792 526.42859,365.14792 C 526.70359,365.14792 526.92859,365.37292 526.92859,365.64792 C 526.92859,365.92292 526.70359,366.14792 526.42859,366.14792 z M 534.92859,363.64792 L 533.92859,364.26595 L 533.92859,363.20694 L 533.92859,362.14792 L 534.92859,362.14792 C 535.47859,362.14792 535.92859,362.34636 535.92859,362.5889 C 535.92859,362.83144 535.47859,363.308 534.92859,363.64792 z M 537.21156,363.06459 C 537.05593,363.29375 536.92859,363.01135 536.92859,362.43703 C 536.92859,361.86271 537.71609,360.77521 538.67859,360.02036 L 540.42859,358.64792 L 538.96156,360.64792 C 538.15469,361.74792 537.36719,362.83542 537.21156,363.06459 z M 543.42859,360.14792 C 543.15359,360.14792 542.92859,359.92292 542.92859,359.64792 C 542.92859,359.37292 543.15359,359.14792 543.42859,359.14792 C 543.70359,359.14792 543.92859,359.37292 543.92859,359.64792 C 543.92859,359.92292 543.70359,360.14792 543.42859,360.14792 z M 535.42859,358.14792 C 535.15359,358.14792 534.92859,357.92292 534.92859,357.64792 C 534.92859,357.37292 535.15359,357.14792 535.42859,357.14792 C 535.70359,357.14792 535.92859,357.37292 535.92859,357.64792 C 535.92859,357.92292 535.70359,358.14792 535.42859,358.14792 z M 531.92859,355.64792 C 531.37859,355.98784 530.92859,356.04095 530.92859,355.76595 C 530.92859,355.49095 531.37859,354.98784 531.92859,354.64792 C 532.47859,354.308 532.92859,354.25489 532.92859,354.52989 C 532.92859,354.80489 532.47859,355.308 531.92859,355.64792 z"
         id="path2454" />
      <path
         style="fill:#71c137"
         d="M 544.42859,380.04009 C 543.87859,379.98571 541.62859,379.51997 539.42859,379.00512 C 537.22859,378.49027 533.74109,377.61872 531.67859,377.06833 L 527.92859,376.06764 L 527.92859,370.16679 L 527.92859,364.26595 L 528.85659,363.69242 L 529.7846,363.11888 L 530.42398,365.1334 L 531.06336,367.14792 L 531.99598,367.14792 L 532.92859,367.14792 L 532.92859,365.49293 L 532.92859,363.83794 L 534.67859,365.31383 L 536.42859,366.78971 L 539.18894,366.95847 L 541.94928,367.12723 L 543.93894,365.13757 C 545.03324,364.04327 545.92859,362.89636 545.92859,362.5889 L 545.92859,362.02989 L 544.67859,362.73583 C 543.99109,363.12409 545.20742,361.57565 547.38154,359.29484 L 551.33449,355.14792 L 550.13154,355.14792 L 548.92859,355.14792 L 548.92859,356.14792 C 548.92859,356.69792 548.55359,357.14792 548.09526,357.14792 L 547.26192,357.14792 L 547.26192,355.88524 L 547.26192,354.62255 L 550.58225,352.91309 L 553.90258,351.20363 L 555.66559,353.10833 C 556.63524,354.15591 558.30398,356.65 559.3739,358.65074 L 561.31922,362.28846 L 560.1984,362.98117 L 559.07758,363.67387 L 558.75309,367.65474 L 558.42859,371.63561 L 551.92859,375.88729 C 548.35359,378.22571 544.97859,380.09447 544.42859,380.04009 z M 533.59526,377.14792 C 533.77859,377.14792 533.92859,375.34792 533.92859,373.14792 L 533.92859,369.14792 L 532.92859,369.14792 L 531.92859,369.14792 L 531.92859,372.48125 C 531.92859,374.31459 532.22859,376.11459 532.59526,376.48125 C 532.96192,376.84792 533.41192,377.14792 533.59526,377.14792 z M 540.3216,375.14792 L 541.71461,375.14792 L 542.27911,373.67686 L 542.84361,372.2058 L 541.31467,370.67686 C 540.47375,369.83594 539.59288,369.14792 539.35716,369.14792 C 539.12145,369.14792 538.92859,370.49792 538.92859,372.14792 L 538.92859,375.14792 L 540.3216,375.14792 z M 550.19529,370.28122 L 551.19416,369.28235 L 550.56844,367.65175 L 549.94272,366.02116 L 549.02953,366.58553 L 548.11635,367.14991 L 548.65638,369.215 L 549.19642,371.28009 L 550.19529,370.28122 z M 553.03221,369.4443 L 554.13584,368.34067 L 553.06262,366.4943 L 551.98941,364.64792 L 551.959,367.59792 L 551.92859,370.54792 L 553.03221,369.4443 z M 536.42859,366.14792 C 536.15359,366.14792 535.92859,365.92292 535.92859,365.64792 C 535.92859,365.37292 536.15359,365.14792 536.42859,365.14792 C 536.70359,365.14792 536.92859,365.37292 536.92859,365.64792 C 536.92859,365.92292 536.70359,366.14792 536.42859,366.14792 z M 541.42859,366.14792 C 541.15359,366.14792 540.92859,365.92292 540.92859,365.64792 C 540.92859,365.37292 541.15359,365.14792 541.42859,365.14792 C 541.70359,365.14792 541.92859,365.37292 541.92859,365.64792 C 541.92859,365.92292 541.70359,366.14792 541.42859,366.14792 z M 526.42859,364.14792 C 526.15359,364.14792 525.92859,363.92292 525.92859,363.64792 C 525.92859,363.37292 526.15359,363.14792 526.42859,363.14792 C 526.70359,363.14792 526.92859,363.37292 526.92859,363.64792 C 526.92859,363.92292 526.70359,364.14792 526.42859,364.14792 z M 542.42859,364.14792 C 542.15359,364.14792 541.92859,363.92292 541.92859,363.64792 C 541.92859,363.37292 542.15359,363.14792 542.42859,363.14792 C 542.70359,363.14792 542.92859,363.37292 542.92859,363.64792 C 542.92859,363.92292 542.70359,364.14792 542.42859,364.14792 z M 530.59526,361.81459 L 529.26192,361.81459 L 529.26192,360.49713 L 529.26192,359.17967 L 530.59526,360.28624 C 531.32859,360.89485 531.92859,361.48771 531.92859,361.6037 C 531.92859,361.71969 531.32859,361.81459 530.59526,361.81459 z M 537.42859,362.14792 C 537.15359,362.14792 536.92859,361.92292 536.92859,361.64792 C 536.92859,361.37292 537.15359,361.14792 537.42859,361.14792 C 537.70359,361.14792 537.92859,361.37292 537.92859,361.64792 C 537.92859,361.92292 537.70359,362.14792 537.42859,362.14792 z M 530.42859,358.14792 C 530.15359,358.14792 529.92859,357.92292 529.92859,357.64792 C 529.92859,357.37292 530.15359,357.14792 530.42859,357.14792 C 530.70359,357.14792 530.92859,357.37292 530.92859,357.64792 C 530.92859,357.92292 530.70359,358.14792 530.42859,358.14792 z M 533.42859,357.14792 C 533.15359,357.14792 532.92859,356.92292 532.92859,356.64792 C 532.92859,356.37292 533.15359,356.14792 533.42859,356.14792 C 533.70359,356.14792 533.92859,356.37292 533.92859,356.64792 C 533.92859,356.92292 533.70359,357.14792 533.42859,357.14792 z M 531.42859,356.14792 C 531.15359,356.14792 530.92859,355.92292 530.92859,355.64792 C 530.92859,355.37292 531.15359,355.14792 531.42859,355.14792 C 531.70359,355.14792 531.92859,355.37292 531.92859,355.64792 C 531.92859,355.92292 531.70359,356.14792 531.42859,356.14792 z M 545.42859,356.14792 C 545.15359,356.14792 544.92859,355.92292 544.92859,355.64792 C 544.92859,355.37292 545.15359,355.14792 545.42859,355.14792 C 545.70359,355.14792 545.92859,355.37292 545.92859,355.64792 C 545.92859,355.92292 545.70359,356.14792 545.42859,356.14792 z M 535.42859,355.14792 C 535.15359,355.14792 534.92859,354.92292 534.92859,354.64792 C 534.92859,354.37292 535.15359,354.14792 535.42859,354.14792 C 535.70359,354.14792 535.92859,354.37292 535.92859,354.64792 C 535.92859,354.92292 535.70359,355.14792 535.42859,355.14792 z M 545.73431,354.14792 C 545.29116,354.14792 544.92859,353.77586 544.92859,353.32111 L 544.92859,352.49431 L 541.92859,352.93461 L 538.92859,353.37492 L 538.92859,352.2928 L 538.92859,351.21069 L 540.42859,351.78629 L 541.92859,352.3619 L 543.67859,351.59782 L 545.42859,350.83373 L 542.42859,350.10914 L 539.42859,349.38455 L 542.75805,349.26623 L 546.0875,349.14792 L 545.42859,346.14792 L 544.76968,343.14792 L 547.79012,343.14792 L 550.81056,343.14792 L 551.45566,344.19172 L 552.10077,345.23553 L 550.90206,346.67989 L 549.70334,348.12425 L 551.34837,348.75551 L 552.99341,349.38677 L 549.76672,351.76734 C 547.99204,353.07666 546.17746,354.14792 545.73431,354.14792 z M 535.05268,351.41459 L 533.8101,352.64792 L 534.49288,350.85479 L 535.17567,349.06166 L 535.73546,349.62146 L 536.29526,350.18125 L 535.05268,351.41459 z"
         id="path2452" />
      <path
         style="fill:#cf720c"
         d="M 544.42859,380.04009 C 543.87859,379.98571 541.62859,379.51997 539.42859,379.00512 C 537.22859,378.49027 533.74109,377.61872 531.67859,377.06833 L 527.92859,376.06764 L 527.92859,371.16679 L 527.92859,366.26595 L 529.04039,365.57882 L 530.1522,364.89169 L 531.04039,366.26981 L 531.92859,367.64792 L 532.80359,366.29116 L 533.67859,364.93439 L 534.36261,366.04116 L 535.04662,367.14792 L 538.48,367.14792 L 541.91338,367.14792 L 544.42098,364.96758 C 545.80017,363.7684 546.92859,362.39184 546.92859,361.90857 L 546.92859,361.02989 L 545.67859,361.73908 C 544.99109,362.12914 545.89109,360.89677 547.67859,359.00049 C 549.46609,357.10421 550.92859,355.06673 550.92859,354.47276 C 550.92859,353.87879 551.50618,352.91345 552.21213,352.32757 L 553.49567,351.26232 L 554.47149,351.95512 C 555.00819,352.33616 556.6806,354.55077 558.18795,356.87648 C 559.6953,359.20219 560.92859,361.56469 560.92859,362.12648 C 560.92859,362.68827 560.50446,363.14792 559.98609,363.14792 L 559.04359,363.14792 L 558.73609,367.39134 L 558.42859,371.63476 L 551.92859,375.88687 C 548.35359,378.22552 544.97859,380.09447 544.42859,380.04009 z M 533.59526,377.14792 C 533.77859,377.14792 533.92859,375.34792 533.92859,373.14792 L 533.92859,369.14792 L 532.92859,369.14792 L 531.92859,369.14792 L 531.92859,372.48125 C 531.92859,374.31459 532.22859,376.11459 532.59526,376.48125 C 532.96192,376.84792 533.41192,377.14792 533.59526,377.14792 z M 540.3216,375.14792 L 541.71461,375.14792 L 542.27911,373.67686 L 542.84361,372.2058 L 541.31467,370.67686 C 540.47375,369.83594 539.59288,369.14792 539.35716,369.14792 C 539.12145,369.14792 538.92859,370.49792 538.92859,372.14792 L 538.92859,375.14792 L 540.3216,375.14792 z M 550.19529,370.28122 L 551.19416,369.28235 L 550.56844,367.65175 L 549.94272,366.02116 L 549.02953,366.58553 L 548.11635,367.14991 L 548.65638,369.215 L 549.19642,371.28009 L 550.19529,370.28122 z M 553.03221,369.4443 L 554.13584,368.34067 L 553.06262,366.4943 L 551.98941,364.64792 L 551.959,367.59792 L 551.92859,370.54792 L 553.03221,369.4443 z M 536.42859,366.14792 C 536.15359,366.14792 535.92859,365.92292 535.92859,365.64792 C 535.92859,365.37292 536.15359,365.14792 536.42859,365.14792 C 536.70359,365.14792 536.92859,365.37292 536.92859,365.64792 C 536.92859,365.92292 536.70359,366.14792 536.42859,366.14792 z M 542.42859,364.14792 C 542.15359,364.14792 541.92859,363.92292 541.92859,363.64792 C 541.92859,363.37292 542.15359,363.14792 542.42859,363.14792 C 542.70359,363.14792 542.92859,363.37292 542.92859,363.64792 C 542.92859,363.92292 542.70359,364.14792 542.42859,364.14792 z M 530.42859,358.14792 C 530.15359,358.14792 529.92859,357.92292 529.92859,357.64792 C 529.92859,357.37292 530.15359,357.14792 530.42859,357.14792 C 530.70359,357.14792 530.92859,357.37292 530.92859,357.64792 C 530.92859,357.92292 530.70359,358.14792 530.42859,358.14792 z M 548.92859,355.64792 C 548.37859,355.98784 547.92859,356.04095 547.92859,355.76595 C 547.92859,355.49095 548.37859,354.98784 548.92859,354.64792 C 549.47859,354.308 549.92859,354.25489 549.92859,354.52989 C 549.92859,354.80489 549.47859,355.308 548.92859,355.64792 z M 539.42859,353.14792 C 539.15359,353.14792 538.92859,352.92292 538.92859,352.64792 C 538.92859,352.37292 539.15359,352.14792 539.42859,352.14792 C 539.70359,352.14792 539.92859,352.37292 539.92859,352.64792 C 539.92859,352.92292 539.70359,353.14792 539.42859,353.14792 z M 546.73746,353.14792 C 546.29258,353.14792 545.92859,352.92292 545.92859,352.64792 C 545.92859,352.37292 546.04109,351.81042 546.17859,351.39792 L 546.42859,350.64792 L 542.92859,350.02956 L 539.42859,349.4112 L 542.75805,349.27956 L 546.0875,349.14792 L 545.42859,346.14792 L 544.76968,343.14792 L 547.79012,343.14792 L 550.81056,343.14792 L 551.48244,344.23505 L 552.15432,345.32218 L 551.1196,346.35691 L 550.08488,347.39163 L 550.66922,348.91438 L 551.25355,350.43714 L 549.39994,351.79253 C 548.38045,352.53799 547.18234,353.14792 546.73746,353.14792 z"
         id="path2450" />
      <path
         style="fill:#959c15"
         d="M 544.63328,380.14344 L 543.83796,380.14792 L 544.52169,376.50336 L 545.20541,372.8588 L 544.067,373.56238 C 543.44088,373.94934 542.92859,374.9144 542.92859,375.70694 L 542.92859,377.14792 L 541.51038,377.14792 C 540.73036,377.14792 539.38036,376.87477 538.51038,376.54093 L 536.92859,375.93394 L 536.92859,372.04093 L 536.92859,368.14792 L 535.83208,368.14792 L 534.73556,368.14792 L 535.08208,373.19959 L 535.42859,378.25126 L 533.42859,377.71325 C 532.32859,377.41734 531.09109,377.16908 530.67859,377.16157 L 529.92859,377.14792 L 529.92859,372.14792 L 529.92859,367.14792 L 528.72859,367.14792 L 527.52859,367.14792 L 528.77023,365.90628 L 530.01187,364.66464 L 530.97023,366.15628 L 531.92859,367.64792 L 532.80359,366.29116 L 533.67859,364.93439 L 534.36261,366.04116 L 535.04662,367.14792 L 538.48,367.14792 L 541.91338,367.14792 L 544.42098,364.96758 C 545.80017,363.7684 546.92859,362.39184 546.92859,361.90857 L 546.92859,361.02989 L 545.67859,361.73908 C 544.99109,362.12914 545.89109,360.89677 547.67859,359.00049 C 549.46609,357.10421 550.92859,355.06673 550.92859,354.47276 C 550.92859,353.87879 551.50618,352.91345 552.21213,352.32757 L 553.49567,351.26232 L 554.47149,351.95512 C 555.00819,352.33616 556.6806,354.55077 558.18795,356.87648 C 559.6953,359.20219 560.92859,361.56469 560.92859,362.12648 C 560.92859,362.68827 560.50446,363.14792 559.98609,363.14792 L 559.04359,363.14792 L 558.73609,367.39134 L 558.42859,371.63476 L 551.92859,375.88687 C 548.35359,378.22552 545.0707,380.14098 544.63328,380.14344 z M 533.59526,377.14792 C 533.77859,377.14792 533.92859,375.34792 533.92859,373.14792 L 533.92859,369.14792 L 532.92859,369.14792 L 531.92859,369.14792 L 531.92859,372.48125 C 531.92859,374.31459 532.22859,376.11459 532.59526,376.48125 C 532.96192,376.84792 533.41192,377.14792 533.59526,377.14792 z M 540.3216,375.14792 L 541.71461,375.14792 L 542.27911,373.67686 L 542.84361,372.2058 L 541.31467,370.67686 C 540.47375,369.83594 539.59288,369.14792 539.35716,369.14792 C 539.12145,369.14792 538.92859,370.49792 538.92859,372.14792 L 538.92859,375.14792 L 540.3216,375.14792 z M 543.59526,370.81459 L 544.26192,370.14792 L 543.59526,369.48125 L 542.92859,368.81459 L 542.92859,370.14792 L 542.92859,371.48125 L 543.59526,370.81459 z M 550.19529,370.28122 L 551.19416,369.28235 L 550.56844,367.65175 L 549.94272,366.02116 L 549.02953,366.58553 L 548.11635,367.14991 L 548.65638,369.215 L 549.19642,371.28009 L 550.19529,370.28122 z M 553.03221,369.4443 L 554.13584,368.34067 L 553.06262,366.4943 L 551.98941,364.64792 L 551.959,367.59792 L 551.92859,370.54792 L 553.03221,369.4443 z M 536.42859,366.14792 C 536.15359,366.14792 535.92859,365.92292 535.92859,365.64792 C 535.92859,365.37292 536.15359,365.14792 536.42859,365.14792 C 536.70359,365.14792 536.92859,365.37292 536.92859,365.64792 C 536.92859,365.92292 536.70359,366.14792 536.42859,366.14792 z M 542.42859,364.14792 C 542.15359,364.14792 541.92859,363.92292 541.92859,363.64792 C 541.92859,363.37292 542.15359,363.14792 542.42859,363.14792 C 542.70359,363.14792 542.92859,363.37292 542.92859,363.64792 C 542.92859,363.92292 542.70359,364.14792 542.42859,364.14792 z M 530.42859,358.14792 C 530.15359,358.14792 529.92859,357.92292 529.92859,357.64792 C 529.92859,357.37292 530.15359,357.14792 530.42859,357.14792 C 530.70359,357.14792 530.92859,357.37292 530.92859,357.64792 C 530.92859,357.92292 530.70359,358.14792 530.42859,358.14792 z M 548.92859,355.64792 C 548.37859,355.98784 547.92859,356.04095 547.92859,355.76595 C 547.92859,355.49095 548.37859,354.98784 548.92859,354.64792 C 549.47859,354.308 549.92859,354.25489 549.92859,354.52989 C 549.92859,354.80489 549.47859,355.308 548.92859,355.64792 z M 539.42859,353.14792 C 539.15359,353.14792 538.92859,352.92292 538.92859,352.64792 C 538.92859,352.37292 539.15359,352.14792 539.42859,352.14792 C 539.70359,352.14792 539.92859,352.37292 539.92859,352.64792 C 539.92859,352.92292 539.70359,353.14792 539.42859,353.14792 z M 546.79648,353.14792 C 546.38406,353.14792 545.76851,352.69792 545.42859,352.14792 L 544.81056,351.14792 L 546.36957,351.14792 L 547.92859,351.14792 L 547.92859,348.72124 L 547.92859,346.29457 L 546.17859,345.83725 L 544.42859,345.37992 L 546.59526,345.26392 L 548.76192,345.14792 L 549.22026,343.89792 L 549.67859,342.64792 L 551.00359,343.89792 L 552.32859,345.14792 L 551.20673,346.26977 L 550.08488,347.39163 L 550.66922,348.91438 L 551.25355,350.43714 L 549.39994,351.79253 C 548.38045,352.53799 547.2089,353.14792 546.79648,353.14792 z M 542.92859,349.91592 L 539.42859,349.91592 L 541.17859,349.45859 C 542.14109,349.20707 543.71609,349.20707 544.67859,349.45859 L 546.42859,349.91592 L 542.92859,349.91592 z"
         id="path2448" />
      <path
         style="fill:#65b322"
         d="M 544.63328,380.14344 L 543.83796,380.14792 L 544.52169,376.50336 L 545.20541,372.8588 L 544.067,373.56238 C 543.44088,373.94934 542.92859,374.9144 542.92859,375.70694 L 542.92859,377.14792 L 541.17859,377.13261 C 540.21609,377.12419 538.83495,376.74088 538.10939,376.28082 L 536.79019,375.44435 L 537.10939,371.54613 L 537.42859,367.64792 L 539.76382,367.3172 L 542.09905,366.98648 L 544.51382,364.88687 C 545.84194,363.73208 546.92859,362.39184 546.92859,361.90857 L 546.92859,361.02989 L 545.67859,361.73908 C 544.99109,362.12914 545.89109,360.89677 547.67859,359.00049 C 549.46609,357.10421 550.92859,355.06673 550.92859,354.47276 C 550.92859,353.87879 551.50618,352.91345 552.21213,352.32757 L 553.49567,351.26232 L 554.47149,351.95512 C 555.00819,352.33616 556.6806,354.55077 558.18795,356.87648 C 559.6953,359.20219 560.92859,361.56469 560.92859,362.12648 C 560.92859,362.68827 560.50446,363.14792 559.98609,363.14792 L 559.04359,363.14792 L 558.73609,367.39134 L 558.42859,371.63476 L 551.92859,375.88687 C 548.35359,378.22552 545.0707,380.14098 544.63328,380.14344 z M 540.3216,375.14792 L 541.71461,375.14792 L 542.27911,373.67686 L 542.84361,372.2058 L 541.31467,370.67686 C 540.47375,369.83594 539.59288,369.14792 539.35716,369.14792 C 539.12145,369.14792 538.92859,370.49792 538.92859,372.14792 L 538.92859,375.14792 L 540.3216,375.14792 z M 543.53558,371.14792 C 543.75173,371.14792 543.92859,370.47292 543.92859,369.64792 L 543.92859,368.14792 L 542.95997,368.14792 L 541.99136,368.14792 L 542.56696,369.64792 C 542.88355,370.47292 543.31942,371.14792 543.53558,371.14792 z M 550.19529,370.28122 L 551.19416,369.28235 L 550.56844,367.65175 L 549.94272,366.02116 L 549.02953,366.58553 L 548.11635,367.14991 L 548.65638,369.215 L 549.19642,371.28009 L 550.19529,370.28122 z M 553.03221,369.4443 L 554.13584,368.34067 L 553.06262,366.4943 L 551.98941,364.64792 L 551.959,367.59792 L 551.92859,370.54792 L 553.03221,369.4443 z M 534.48761,378.14792 C 533.63015,378.14792 532.92859,377.94948 532.92859,377.70694 C 532.92859,377.4644 533.3475,377.00706 533.85949,376.69063 L 534.79039,376.1153 L 535.41851,377.13161 L 536.04662,378.14792 L 534.48761,378.14792 z M 530.92859,377.14792 L 529.92859,377.14792 L 529.92859,372.14792 L 529.92859,367.14792 L 531.42859,367.14792 L 532.92859,367.14792 L 532.92859,366.0889 L 532.92859,365.02989 L 533.73871,365.53057 L 534.54883,366.03125 L 534.60801,370.83958 L 534.66719,375.64792 L 534.23453,372.39792 L 533.80187,369.14792 L 532.86523,369.14792 L 531.92859,369.14792 L 531.92859,373.14792 L 531.92859,377.14792 L 530.92859,377.14792 z M 529.92859,366.14792 L 528.59526,366.14792 L 529.26192,365.48125 L 529.92859,364.81459 L 530.59526,365.48125 L 531.26192,366.14792 L 529.92859,366.14792 z M 536.42859,366.14792 C 536.15359,366.14792 535.92859,365.92292 535.92859,365.64792 C 535.92859,365.37292 536.15359,365.14792 536.42859,365.14792 C 536.70359,365.14792 536.92859,365.37292 536.92859,365.64792 C 536.92859,365.92292 536.70359,366.14792 536.42859,366.14792 z M 542.42859,364.14792 C 542.15359,364.14792 541.92859,363.92292 541.92859,363.64792 C 541.92859,363.37292 542.15359,363.14792 542.42859,363.14792 C 542.70359,363.14792 542.92859,363.37292 542.92859,363.64792 C 542.92859,363.92292 542.70359,364.14792 542.42859,364.14792 z M 530.42859,358.14792 C 530.15359,358.14792 529.92859,357.92292 529.92859,357.64792 C 529.92859,357.37292 530.15359,357.14792 530.42859,357.14792 C 530.70359,357.14792 530.92859,357.37292 530.92859,357.64792 C 530.92859,357.92292 530.70359,358.14792 530.42859,358.14792 z M 548.92859,355.64792 C 548.37859,355.98784 547.92859,356.04095 547.92859,355.76595 C 547.92859,355.49095 548.37859,354.98784 548.92859,354.64792 C 549.47859,354.308 549.92859,354.25489 549.92859,354.52989 C 549.92859,354.80489 549.47859,355.308 548.92859,355.64792 z M 539.42859,353.14792 C 539.15359,353.14792 538.92859,352.92292 538.92859,352.64792 C 538.92859,352.37292 539.15359,352.14792 539.42859,352.14792 C 539.70359,352.14792 539.92859,352.37292 539.92859,352.64792 C 539.92859,352.92292 539.70359,353.14792 539.42859,353.14792 z M 546.79648,353.14792 C 546.38406,353.14792 545.76851,352.69792 545.42859,352.14792 L 544.81056,351.14792 L 546.36957,351.14792 L 547.92859,351.14792 L 547.92859,348.72124 L 547.92859,346.29457 L 546.17859,345.83725 L 544.42859,345.37992 L 546.59526,345.26392 L 548.76192,345.14792 L 549.22026,343.89792 L 549.67859,342.64792 L 551.00359,343.89792 L 552.32859,345.14792 L 551.20673,346.26977 L 550.08488,347.39163 L 550.66922,348.91438 L 551.25355,350.43714 L 549.39994,351.79253 C 548.38045,352.53799 547.2089,353.14792 546.79648,353.14792 z M 542.92859,349.91592 L 539.42859,349.91592 L 541.17859,349.45859 C 542.14109,349.20707 543.71609,349.20707 544.67859,349.45859 L 546.42859,349.91592 L 542.92859,349.91592 z"
         id="path2446" />
      <path
         style="fill:#56508a"
         d="M 544.63328,380.14344 L 543.83796,380.14792 L 544.52169,376.50336 L 545.20541,372.8588 L 544.067,373.56238 C 543.44088,373.94934 542.92859,374.9144 542.92859,375.70694 L 542.92859,377.14792 L 541.51038,377.14792 C 540.73036,377.14792 539.38036,376.87477 538.51038,376.54093 L 536.92859,375.93394 L 536.92859,372.04093 L 536.92859,368.14792 L 539.3789,368.14792 L 541.82921,368.14792 L 542.84849,369.89792 L 543.86777,371.64792 L 543.89818,369.81041 L 543.92859,367.97289 L 547.60414,361.31041 C 549.62569,357.64604 551.8392,353.81239 552.52305,352.79118 L 553.76642,350.93444 L 557.5378,356.61455 L 561.30918,362.29467 L 560.19338,362.98427 L 559.07758,363.67387 L 558.75309,367.65474 L 558.42859,371.63561 L 551.92859,375.88729 C 548.35359,378.22571 545.0707,380.14098 544.63328,380.14344 z M 540.3216,375.14792 L 541.71461,375.14792 L 542.27911,373.67686 L 542.84361,372.2058 L 541.31467,370.67686 C 540.47375,369.83594 539.59288,369.14792 539.35716,369.14792 C 539.12145,369.14792 538.92859,370.49792 538.92859,372.14792 L 538.92859,375.14792 L 540.3216,375.14792 z M 550.19529,370.28122 L 551.19416,369.28235 L 550.56844,367.65175 L 549.94272,366.02116 L 549.02953,366.58553 L 548.11635,367.14991 L 548.65638,369.215 L 549.19642,371.28009 L 550.19529,370.28122 z M 553.03221,369.4443 L 554.13584,368.34067 L 553.06262,366.4943 L 551.98941,364.64792 L 551.959,367.59792 L 551.92859,370.54792 L 553.03221,369.4443 z M 534.48761,378.14792 C 533.63015,378.14792 532.92859,377.94948 532.92859,377.70694 C 532.92859,377.4644 533.3475,377.00706 533.85949,376.69063 L 534.79039,376.1153 L 535.41851,377.13161 L 536.04662,378.14792 L 534.48761,378.14792 z M 530.92859,377.14792 L 529.92859,377.14792 L 529.92859,372.07837 L 529.92859,367.00882 L 532.17859,367.32837 L 534.42859,367.64792 L 534.55594,371.64792 L 534.68329,375.64792 L 534.24258,372.39792 L 533.80187,369.14792 L 532.86523,369.14792 L 531.92859,369.14792 L 531.92859,373.14792 L 531.92859,377.14792 L 530.92859,377.14792 z M 549.45276,350.12786 L 547.92859,351.39281 L 547.92859,348.84369 L 547.92859,346.29457 L 546.17859,345.83725 L 544.42859,345.37992 L 546.59526,345.26392 L 548.76192,345.14792 L 549.22026,343.89792 L 549.67859,342.64792 L 550.96121,343.85554 L 552.24383,345.06316 L 551.09488,346.44755 L 549.94594,347.83194 L 550.46143,348.34743 L 550.97692,348.86292 L 549.45276,350.12786 z"
         id="path2444" />
      <path
         style="fill:#606a5d"
         d="M 544.63328,380.14344 L 543.83796,380.14792 L 544.52169,376.50336 L 545.20541,372.8588 L 544.067,373.56238 C 543.44088,373.94934 542.92859,374.9144 542.92859,375.70694 L 542.92859,377.14792 L 541.51038,377.14792 C 540.73036,377.14792 539.38036,376.87477 538.51038,376.54093 L 536.92859,375.93394 L 536.92859,372.04093 L 536.92859,368.14792 L 539.3789,368.14792 L 541.82921,368.14792 L 542.84849,369.89792 L 543.86777,371.64792 L 543.89818,369.81041 L 543.92859,367.97289 L 547.60414,361.31041 C 549.62569,357.64604 551.8392,353.81239 552.52305,352.79118 L 553.76642,350.93444 L 557.5378,356.61455 L 561.30918,362.29467 L 560.19338,362.98427 L 559.07758,363.67387 L 558.75309,367.65474 L 558.42859,371.63561 L 551.92859,375.88729 C 548.35359,378.22571 545.0707,380.14098 544.63328,380.14344 z M 540.3216,375.14792 L 541.71461,375.14792 L 542.27911,373.67686 L 542.84361,372.2058 L 541.31467,370.67686 C 540.47375,369.83594 539.59288,369.14792 539.35716,369.14792 C 539.12145,369.14792 538.92859,370.49792 538.92859,372.14792 L 538.92859,375.14792 L 540.3216,375.14792 z M 550.04522,371.14792 L 550.92859,371.14792 L 550.92859,369.31459 C 550.92859,368.30625 550.64082,367.19349 550.28911,366.84177 L 549.64963,366.20229 L 548.88299,366.6761 L 548.11635,367.14991 L 548.6391,369.14892 L 549.16185,371.14792 L 550.04522,371.14792 z M 553.03221,369.4443 L 554.13584,368.34067 L 553.06262,366.4943 L 551.98941,364.64792 L 551.959,367.59792 L 551.92859,370.54792 L 553.03221,369.4443 z M 534.48761,378.14792 C 533.63015,378.14792 532.92859,377.94948 532.92859,377.70694 C 532.92859,377.4644 533.3475,377.00706 533.85949,376.69063 L 534.79039,376.1153 L 535.41851,377.13161 L 536.04662,378.14792 L 534.48761,378.14792 z M 530.92859,377.14792 L 529.92859,377.14792 L 529.92859,372.07837 L 529.92859,367.00882 L 532.17859,367.32837 L 534.42859,367.64792 L 534.55594,371.64792 L 534.68329,375.64792 L 534.24258,372.39792 L 533.80187,369.14792 L 532.86523,369.14792 L 531.92859,369.14792 L 531.92859,373.14792 L 531.92859,377.14792 L 530.92859,377.14792 z M 548.29593,351.06459 C 548.09389,351.29375 547.92859,350.31425 547.92859,348.88791 L 547.92859,346.29457 L 546.17859,345.83725 L 544.42859,345.37992 L 546.59526,345.26392 L 548.76192,345.14792 L 549.31261,343.89792 L 549.86329,342.64792 L 549.26328,346.64792 C 548.93327,348.84792 548.49797,350.83542 548.29593,351.06459 z"
         id="path2442" />
      <path
         style="fill:#a26609"
         d="M 544.45817,380.14792 L 543.83796,380.14792 L 544.52169,376.50336 L 545.20541,372.8588 L 543.96007,373.62847 L 542.71472,374.39813 L 543.43671,371.02303 L 544.15869,367.64792 L 547.71919,361.14792 C 549.67746,357.57292 551.83522,353.81808 552.5142,352.80382 L 553.74871,350.95972 L 557.3239,356.26857 L 560.89909,361.57742 L 559.91384,362.56267 L 558.92859,363.54792 L 558.92859,367.36809 L 558.92859,371.18826 L 552.00348,375.66809 C 548.19468,378.132 544.79928,380.14792 544.45817,380.14792 z M 548.8789,372.14792 C 549.40157,372.14792 550.28789,371.36042 550.84849,370.39792 L 551.86777,368.64792 L 551.89818,369.95694 L 551.92859,371.26595 L 552.92859,370.64792 L 553.92859,370.02989 L 553.92859,367.5889 C 553.92859,366.24636 553.73289,365.14792 553.49369,365.14792 C 553.25449,365.14792 551.90449,365.58678 550.49369,366.12317 L 547.92859,367.09842 L 547.92859,369.62317 L 547.92859,372.14792 L 548.8789,372.14792 z M 535.54662,378.14792 C 535.27162,378.14792 534.76851,377.69792 534.42859,377.14792 C 534.08867,376.59792 534.03556,376.14792 534.31056,376.14792 C 534.58556,376.14792 535.08867,376.59792 535.42859,377.14792 C 535.76851,377.69792 535.82162,378.14792 535.54662,378.14792 z M 531.73609,373.24173 L 531.42859,377.33554 L 530.67859,376.57506 L 529.92859,375.81459 L 529.92859,371.4117 L 529.92859,367.00882 L 532.17859,367.32837 L 534.42859,367.64792 L 534.55594,371.64792 L 534.68329,375.64792 L 534.24258,372.39792 L 533.80187,369.14792 L 532.92273,369.14792 L 532.04359,369.14792 L 531.73609,373.24173 z M 541.17859,377.06897 C 540.21609,377.02555 538.86609,376.76305 538.17859,376.48564 L 536.92859,375.98125 L 536.92859,372.06459 L 536.92859,368.14792 L 539.36957,368.14792 L 541.81056,368.14792 L 542.33931,369.00346 L 542.86807,369.85901 L 540.3192,369.37176 L 537.77033,368.88451 L 538.09946,371.76622 L 538.42859,374.64792 L 540.67859,374.96747 L 542.92859,375.28702 L 542.92859,376.21747 L 542.92859,377.14792 L 541.17859,377.06897 z M 548.31509,351.14792 C 548.10252,351.14792 547.92859,350.05592 547.92859,348.72124 L 547.92859,346.29457 L 546.17859,345.83725 L 544.42859,345.37992 L 547.0054,345.26392 L 549.5822,345.14792 L 549.1419,348.14792 C 548.89973,349.79792 548.52767,351.14792 548.31509,351.14792 z"
         id="path2440" />
      <path
         style="fill:#645113"
         d="M 551.40098,376.01732 L 544.92859,380.0755 L 544.92859,373.09656 L 544.92859,366.11762 L 548.12746,360.38277 C 549.88684,357.2286 551.61937,354.42292 551.97752,354.14792 C 552.33567,353.87292 552.84197,352.98555 553.10262,352.17599 L 553.57654,350.70406 L 557.20707,356.09509 L 560.8376,361.48612 L 560.314,362.33333 L 559.79039,363.18054 L 558.87095,362.61229 L 557.9515,362.04404 L 558.54992,363.60351 L 559.14835,365.16298 L 558.51086,368.56106 L 557.87338,371.95914 L 551.40098,376.01732 z M 548.8789,372.14792 C 549.40157,372.14792 550.28789,371.36042 550.84849,370.39792 L 551.86777,368.64792 L 551.89818,369.95694 L 551.92859,371.26595 L 552.92859,370.64792 L 553.92859,370.02989 L 553.92859,367.5889 C 553.92859,366.24636 553.73289,365.14792 553.49369,365.14792 C 553.25449,365.14792 551.90449,365.58678 550.49369,366.12317 L 547.92859,367.09842 L 547.92859,369.62317 L 547.92859,372.14792 L 548.8789,372.14792 z M 556.42859,360.14792 C 556.70359,360.14792 556.92859,359.92292 556.92859,359.64792 C 556.92859,359.37292 556.70359,359.14792 556.42859,359.14792 C 556.15359,359.14792 555.92859,359.37292 555.92859,359.64792 C 555.92859,359.92292 556.15359,360.14792 556.42859,360.14792 z M 554.42859,357.14792 C 554.70359,357.14792 554.92859,356.92292 554.92859,356.64792 C 554.92859,356.37292 554.70359,356.14792 554.42859,356.14792 C 554.15359,356.14792 553.92859,356.37292 553.92859,356.64792 C 553.92859,356.92292 554.15359,357.14792 554.42859,357.14792 z M 531.59526,377.14792 C 531.41192,377.14792 530.96192,376.84792 530.59526,376.48125 C 530.22859,376.11459 529.92859,374.08959 529.92859,371.98125 L 529.92859,368.14792 L 530.92859,368.14792 L 531.92859,368.14792 L 531.92859,372.64792 C 531.92859,375.12292 531.77859,377.14792 531.59526,377.14792 z M 542.17859,377.08453 C 541.76609,377.04967 540.41609,376.61417 539.17859,376.11676 L 536.92859,375.21237 L 537.04691,371.93014 L 537.16522,368.64792 L 537.80334,371.64792 L 538.44145,374.64792 L 540.68502,374.96747 L 542.92859,375.28702 L 542.92859,376.21747 C 542.92859,376.72922 542.59109,377.1194 542.17859,377.08453 z M 534.54209,374.14792 C 534.32951,374.14792 533.95745,372.79792 533.71528,371.14792 L 533.27498,368.14792 L 534.10178,368.14792 L 534.92859,368.14792 L 534.92859,371.14792 C 534.92859,372.79792 534.75466,374.14792 534.54209,374.14792 z M 542.42859,370.14792 C 542.15359,370.14792 541.92859,369.92292 541.92859,369.64792 C 541.92859,369.37292 542.15359,369.14792 542.42859,369.14792 C 542.70359,369.14792 542.92859,369.37292 542.92859,369.64792 C 542.92859,369.92292 542.70359,370.14792 542.42859,370.14792 z M 547.42859,345.95297 L 544.42859,345.99003 L 545.65956,345.49198 C 546.33659,345.21806 547.68659,345.20139 548.65956,345.45493 L 550.42859,345.91592 L 547.42859,345.95297 z"
         id="path2438" />
      <path
         style="fill:#4d2e01"
         d="M 545.43402,379.14792 C 545.15603,379.14792 544.92859,376.37867 544.92859,372.99402 L 544.92859,366.84012 L 548.4902,360.47137 L 552.05181,354.10262 L 555.30849,358.87527 L 558.56518,363.64792 L 558.16026,367.70491 L 557.75533,371.76191 L 551.84739,375.45491 C 548.59803,377.48607 545.71201,379.14792 545.43402,379.14792 z M 549.67859,372.11612 C 550.64109,372.09862 552.21609,371.48652 553.17859,370.75587 L 554.92859,369.42744 L 554.92859,367.28768 L 554.92859,365.14792 L 553.67859,365.16157 C 552.99109,365.16908 551.41609,365.44657 550.17859,365.77821 L 547.92859,366.38118 L 547.92859,369.26455 L 547.92859,372.14792 L 549.67859,372.11612 z M 551.59526,370.81459 L 550.92859,371.48125 L 550.92859,370.14792 L 550.92859,368.81459 L 551.59526,369.48125 L 552.26192,370.14792 L 551.59526,370.81459 z M 542.17859,377.07763 C 541.76609,377.03898 540.52859,376.62061 539.42859,376.14792 L 537.42859,375.28849 L 540.17859,375.21821 L 542.92859,375.14792 L 542.92859,376.14792 C 542.92859,376.69792 542.59109,377.11629 542.17859,377.07763 z M 537.62158,372.87889 L 537.16059,374.64792 L 537.12354,371.64792 L 537.08649,368.64792 L 537.58453,369.87889 C 537.85845,370.55592 537.87512,371.90592 537.62158,372.87889 z M 530.3216,371.14792 C 530.10545,371.14792 529.92859,370.47292 529.92859,369.64792 L 529.92859,368.14792 L 530.8972,368.14792 L 531.86582,368.14792 L 531.29022,369.64792 C 530.97363,370.47292 530.53776,371.14792 530.3216,371.14792 z M 560.03557,362.5818 L 559.13211,363.14017 L 555.9017,358.10602 L 552.6713,353.07187 L 553.29995,352.44323 C 553.6457,352.09748 554.08067,352.00209 554.26654,352.23125 C 554.45241,352.46042 556.02976,354.75741 557.77175,357.33568 L 560.93903,362.02344 L 560.03557,362.5818 z M 549.42859,346.14792 C 549.15359,346.14792 548.92859,345.92292 548.92859,345.64792 C 548.92859,345.37292 549.15359,345.14792 549.42859,345.14792 C 549.70359,345.14792 549.92859,345.37292 549.92859,345.64792 C 549.92859,345.92292 549.70359,346.14792 549.42859,346.14792 z"
         id="path2436" />
      <path
         style="fill:#221b0d"
         d="M 540.42859,375.95297 L 537.42859,375.99003 L 538.65956,375.49198 C 539.33659,375.21806 540.68659,375.20139 541.65956,375.45493 L 543.42859,375.91592 L 540.42859,375.95297 z M 551.59526,370.81459 L 550.92859,371.48125 L 550.92859,370.14792 L 550.92859,368.81459 L 551.59526,369.48125 L 552.26192,370.14792 L 551.59526,370.81459 z M 554.42859,371.14792 C 554.15359,371.14792 553.92859,370.92292 553.92859,370.64792 C 553.92859,370.37292 554.15359,370.14792 554.42859,370.14792 C 554.70359,370.14792 554.92859,370.37292 554.92859,370.64792 C 554.92859,370.92292 554.70359,371.14792 554.42859,371.14792 z M 530.42859,369.14792 C 530.15359,369.14792 529.92859,368.92292 529.92859,368.64792 C 529.92859,368.37292 530.15359,368.14792 530.42859,368.14792 C 530.70359,368.14792 530.92859,368.37292 530.92859,368.64792 C 530.92859,368.92292 530.70359,369.14792 530.42859,369.14792 z M 550.42859,366.14792 C 550.15359,366.14792 549.92859,365.92292 549.92859,365.64792 C 549.92859,365.37292 550.15359,365.14792 550.42859,365.14792 C 550.70359,365.14792 550.92859,365.37292 550.92859,365.64792 C 550.92859,365.92292 550.70359,366.14792 550.42859,366.14792 z M 553.92859,365.14792 L 552.59526,365.14792 L 553.26192,364.48125 L 553.92859,363.81459 L 554.59526,364.48125 L 555.26192,365.14792 L 553.92859,365.14792 z M 560.17511,362.49556 L 559.41119,362.96769 L 556.0989,357.96213 L 552.7866,352.95658 L 553.3576,352.38558 C 553.67164,352.07153 554.08067,352.00209 554.26654,352.23125 C 554.45241,352.46042 556.02976,354.75741 557.77175,357.33568 L 560.93903,362.02344 L 560.17511,362.49556 z M 549.42859,346.14792 C 549.15359,346.14792 548.92859,345.92292 548.92859,345.64792 C 548.92859,345.37292 549.15359,345.14792 549.42859,345.14792 C 549.70359,345.14792 549.92859,345.37292 549.92859,345.64792 C 549.92859,345.92292 549.70359,346.14792 549.42859,346.14792 z"
         id="path2434" />
    </g>
  </g>
</svg>
