<?xml version="1.0" encoding="UTF-8" standalone="no"?>
<!-- Created with Inkscape (http://www.inkscape.org/) -->
<svg
   xmlns:dc="http://purl.org/dc/elements/1.1/"
   xmlns:cc="http://creativecommons.org/ns#"
   xmlns:rdf="http://www.w3.org/1999/02/22-rdf-syntax-ns#"
   xmlns:svg="http://www.w3.org/2000/svg"
   xmlns="http://www.w3.org/2000/svg"
   xmlns:sodipodi="http://sodipodi.sourceforge.net/DTD/sodipodi-0.dtd"
   xmlns:inkscape="http://www.inkscape.org/namespaces/inkscape"
   width="744.09448819"
   height="1052.3622047"
   id="svg2"
   sodipodi:version="0.32"
   inkscape:version="0.45+0.46pre0+devel"
   sodipodi:docbase="C:\Documents and Settings\DARIOSKY\Desktop\Dariosky\MION\eclipseWorkspace\Tam\media"
   sodipodi:docname="logo.svg"
   inkscape:output_extension="org.inkscape.output.svg.inkscape"
   inkscape:export-filename="C:\Documents and Settings\DARIOSKY\Desktop\Dariosky\MION\eclipseWorkspace\Tam\media\icon.png"
   inkscape:export-xdpi="20.030352"
   inkscape:export-ydpi="20.030352">
  <defs
     id="defs4">
    <inkscape:perspective
       sodipodi:type="inkscape:persp3d"
       inkscape:vp_x="-50 : 600 : 1"
       inkscape:vp_y="0 : 1000 : 0"
       inkscape:vp_z="700 : 600 : 1"
       inkscape:persp3d-origin="300 : 400 : 1"
       id="perspective23" />
    <filter
       inkscape:collect="always"
       x="-0.11571057"
       width="1.2314211"
       y="-0.23725409"
       height="1.4745082"
       id="filter3323">
      <feGaussianBlur
         inkscape:collect="always"
         stdDeviation="2.0461169"
         id="feGaussianBlur3325" />
    </filter>
  </defs>
  <sodipodi:namedview
     id="base"
     pagecolor="#ffffff"
     bordercolor="#666666"
     borderopacity="1.0"
     inkscape:pageopacity="0.0"
     inkscape:pageshadow="2"
     inkscape:zoom="2.8"
     inkscape:cx="367.0202"
     inkscape:cy="640.66797"
     inkscape:document-units="px"
     inkscape:current-layer="layer1"
     inkscape:window-width="1280"
     inkscape:window-height="778"
     inkscape:window-x="0"
     inkscape:window-y="0"
     showgrid="false" />
  <metadata
     id="metadata7">
    <rdf:RDF>
      <cc:Work
         rdf:about="">
        <dc:format>image/svg+xml</dc:format>
        <dc:type
           rdf:resource="http://purl.org/dc/dcmitype/StillImage" />
        <dc:title></dc:title>
        <dc:date></dc:date>
        <dc:creator>
          <cc:Agent>
            <dc:title></dc:title>
          </cc:Agent>
        </dc:creator>
        <dc:rights>
          <cc:Agent>
            <dc:title></dc:title>
          </cc:Agent>
        </dc:rights>
        <dc:publisher>
          <cc:Agent>
            <dc:title></dc:title>
          </cc:Agent>
        </dc:publisher>
        <dc:identifier></dc:identifier>
        <dc:source></dc:source>
        <dc:relation></dc:relation>
        <dc:language></dc:language>
        <dc:subject>
          <rdf:Bag />
        </dc:subject>
        <dc:coverage></dc:coverage>
        <dc:description></dc:description>
        <dc:contributor>
          <cc:Agent>
            <dc:title></dc:title>
          </cc:Agent>
        </dc:contributor>
        <cc:license
           rdf:resource="" />
      </cc:Work>
    </rdf:RDF>
  </metadata>
  <g
     inkscape:label="Livello 1"
     inkscape:groupmode="layer"
     id="layer1">
    <path
       style="fill:#c6e6ff;fill-opacity:1;fill-rule:evenodd;stroke:none;stroke-width:1px;stroke-linecap:butt;stroke-linejoin:miter;stroke-opacity:1"
       d="M 453.55849,332.12342 C 438.15366,340.45718 432.85036,344.75033 431.0826,350.30617 C 429.31483,355.86201 423.00138,373.79221 423.00138,378.59044 C 423.00138,383.38866 443.96204,378.08536 443.96204,378.08536 L 513.9151,369.24653 L 511.8948,356.87216 C 511.8948,356.87216 501.2882,332.12342 496.48997,329.85058 C 491.69175,327.57774 480.07499,326.31505 480.07499,326.31505 L 453.55849,332.12342 z "
       id="path3327" />
    <path
       style="fill:#ffffac;fill-opacity:1;fill-rule:evenodd;stroke:none;stroke-width:1px;stroke-linecap:butt;stroke-linejoin:miter;stroke-opacity:1;filter:url(#filter3323)"
       d="M 459.74567,311.28903 C 451.91699,314.06695 444.08831,318.7389 443.7095,319.87532 C 443.3307,321.01174 441.43666,322.14817 441.6892,324.54728 C 441.94174,326.94639 444.21458,329.97685 444.21458,329.97685 L 483.10545,323.53713 C 483.10545,323.53713 480.95888,314.95083 479.69619,313.81441 C 478.4335,312.67799 472.24631,310.27887 468.96332,310.27887 C 465.68032,310.27887 459.71411,311.25746 459.74567,311.28903 z "
       id="path2166" />
    <text
       transform="matrix(0.9823623,-0.1869875,0.1869875,0.9823623,0,0)"
       sodipodi:linespacing="100%"
       id="text2401"
       y="403.57736"
       x="385.49243"
       style="font-size:11.75293922px;font-style:normal;font-variant:normal;font-weight:normal;font-stretch:normal;text-align:start;line-height:100%;writing-mode:lr-tb;text-anchor:start;opacity:0.422423;fill:#000000;fill-opacity:1;stroke:none;stroke-width:1px;stroke-linecap:butt;stroke-linejoin:miter;stroke-opacity:1;font-family:Impact"
       xml:space="preserve"><tspan
         y="403.57736"
         x="385.49243"
         id="tspan2403"
         sodipodi:role="line">tam</tspan></text>
    <path
       style="fill:#ffffff;fill-opacity:1;fill-rule:evenodd;stroke:none;stroke-width:1px;stroke-linecap:butt;stroke-linejoin:miter;stroke-opacity:1"
       d="M 418.45569,389.95466 L 415.42523,399.04603 L 425.27422,422.78462 L 433.1029,393.74273 L 426.03183,387.68181 L 418.45569,389.95466 z "
       id="path4300"
       sodipodi:nodetypes="cccccc" />
    <path
       style="fill:#ffffff;fill-opacity:1;fill-rule:evenodd;stroke:none;stroke-width:1px;stroke-linecap:butt;stroke-linejoin:miter;stroke-opacity:1"
       d="M 456.84149,402.07649 L 461.89225,419.75416 L 477.80215,418.744 C 477.80215,418.744 529.31993,412.93563 540.17907,404.09679 C 551.03821,395.25796 538.66384,387.42927 538.66384,387.42927 L 515.93541,396.77319 C 515.93541,396.77319 476.792,406.87471 463.66002,403.33918 C 450.52803,399.80364 457.09402,401.31887 456.84149,402.07649 z "
       id="path4448" />
    <path
       style="fill:#ffffbe;fill-opacity:1;fill-rule:evenodd;stroke:none;stroke-width:1px;stroke-linecap:butt;stroke-linejoin:miter;stroke-opacity:1;"
       d="M 473.00393,380.61074 L 471.99377,401.31887 L 481.33768,401.82395 L 520.4811,394.2478 L 529.06739,388.18689 L 523.25902,380.86328 L 473.00393,380.61074 z "
       id="path4302" />
    <path
       id="path2224"
       d="M 444.51578,433.52043 C 443.69556,427.6908 441.12691,419.29145 439.94,418.5579 C 439.48437,418.2763 439.35438,419.85611 439.65114,422.06857 C 432.22905,429.14719 426.9933,430.49668 418.38119,422.16137 C 416.93219,416.57465 416.13986,415.07754 414.50762,414.84221 C 412.9264,414.61423 412.39161,413.70131 412.17648,410.8628 C 412.02293,408.83685 412.36193,406.89209 412.92982,406.54111 C 413.57581,406.14187 413.72316,403.5685 413.32344,399.66691 C 412.78983,394.45863 413.03458,392.7447 414.80843,389.26766 C 415.97658,386.9779 418.11667,384.48393 419.5642,383.7255 C 422.07171,382.41168 422.20925,381.92247 422.47503,373.372 C 422.94596,358.22164 429.42531,342.48645 438.73993,333.87246 C 460.62031,319.48631 459.34235,324.1312 489.64245,323.64359 C 499.11067,326.20651 504.20654,331.67044 511.93511,347.54636 C 515.14806,354.14636 517.35935,359.69636 516.84909,359.87969 C 514.24951,360.81369 516.46144,361.73981 520.26724,361.31084 C 523.10081,360.99146 526.84171,361.53429 531.01724,362.87075 C 534.53949,363.99812 538.62415,365.1737 540.09426,365.48314 C 543.94887,366.29451 548.45707,370.44523 550.77798,375.3197 C 552.47634,378.88664 554.8499,398.82048 555.92133,404.28095 C 547.17133,409.95224 540.66602,406.87596 541.53276,407.25046 L 476.42133,420.29288 L 476.42133,430.91962 C 469.81043,438.69087 455.54252,441.99519 444.51578,433.52043 z M 454.02536,423.36642 C 451.54332,418.66243 451.30548,420.4798 453.64456,426.27612 C 454.7091,428.91409 455.49646,429.90421 455.7044,428.86642 C 455.88952,427.94245 455.13396,425.46745 454.02536,423.36642 z M 425.84525,417.79636 C 425.80341,417.10886 425.16264,414.97136 424.42133,413.04636 L 423.07349,409.54636 L 422.99741,412.71457 C 422.95557,414.45709 423.19448,416.59459 423.52832,417.46457 C 424.24862,419.34166 425.95417,419.58589 425.84525,417.79636 z M 498.92133,415.41636 C 505.45586,414.75577 532.40115,407.87726 538.63562,405.15496 C 538.63562,400.13908 536.73122,392.04636 535.2977,392.04636 C 534.5422,392.04636 529.98595,393.81532 525.1727,395.97737 C 511.80282,401.98297 475.83588,408.19679 466.60525,406.09577 C 462.50916,405.16344 462.50047,405.17121 461.57344,410.59346 C 460.49393,416.90765 463.79921,418.21355 478.92133,417.44755 C 485.24633,417.12716 494.24633,416.21313 498.92133,415.41636 z M 477.71766,398.09184 C 477.04632,397.01685 476.30338,396.33098 476.06668,396.56767 C 475.63809,396.99627 477.81742,400.04636 478.55225,400.04636 C 478.76456,400.04636 478.389,399.16683 477.71766,398.09184 z M 424.43364,394.0423 C 428.2419,392.78546 428.24002,391.04636 424.43041,391.04636 C 422.02861,391.04636 417.92133,395.54347 417.92133,398.17324 C 417.92133,398.89821 418.59773,398.52568 419.42443,397.3454 C 420.25114,396.16511 422.50528,394.67871 424.43364,394.0423 z M 487.19071,397.12425 C 487.71327,395.12599 483.37928,390.04636 481.15179,390.04636 C 479.17428,390.04636 477.72469,393.81043 478.87469,395.95921 C 480.73358,399.43259 486.3802,400.22365 487.19071,397.12425 z M 519.09259,390.39137 C 521.52488,388.19018 521.40044,386.37314 518.71913,384.93815 C 517.07848,384.0601 516.41974,384.05112 516.1358,384.90296 C 515.92617,385.53183 514.66716,386.04636 513.338,386.04636 C 511.6775,386.04636 510.92133,386.60958 510.92133,387.84636 C 510.92133,391.90075 515.75961,393.40768 519.09259,390.39137 z M 430.48447,375.59034 C 431.36956,374.23952 431.78939,372.6419 431.41744,372.04006 C 431.04548,371.43822 430.412,368.83093 430.0097,366.24608 L 429.27824,361.54636 L 428.10536,365.54636 C 426.68005,370.40725 426.5535,378.04636 427.89828,378.04636 C 428.4356,378.04636 429.59939,376.94115 430.48447,375.59034 z M 546.92133,372.66881 C 546.92133,372.46115 546.13383,371.67365 545.17133,370.91881 C 543.58527,369.67493 543.5499,369.7103 544.79377,371.29636 C 546.10014,372.96211 546.92133,373.49184 546.92133,372.66881 z M 439.51209,368.54818 C 440.69841,366.73763 440.97834,364.87967 440.52909,361.79818 C 439.96913,357.9573 440.5926,351.86491 442.39693,343.54636 L 443.04764,340.54636 L 439.48449,344.46297 L 435.92133,348.37958 L 435.92133,359.71297 C 435.92133,371.42964 436.57318,373.03354 439.51209,368.54818 z M 452.71182,369.08795 C 454.20205,368.01082 458.68714,365.67843 462.92133,365.07614 C 471.8098,363.81181 494.97485,361.43885 503.33198,361.66481 C 506.38404,361.74733 508.90644,361.87948 509.24275,361.3353 C 509.56732,360.81014 508.69803,358.71038 507.31099,356.66917 C 505.92395,354.62796 503.13135,348.82842 501.10522,343.78132 C 495.49442,329.80481 492.25399,328.34362 473.92133,331.52342 C 461.29472,333.7135 451.99387,336.11996 451.20164,337.40182 C 449.38905,343.66857 448.69741,350.2661 447.55117,356.6961 C 446.36944,363.22311 446.17798,366.59119 446.88321,368.4461 C 448.06711,371.55999 449.12979,371.67702 452.71182,369.08795 z M 498.6523,363.35337 C 497.67933,363.09983 496.32933,363.1165 495.6523,363.39042 C 494.97527,363.66435 495.77133,363.87179 497.42133,363.85141 C 499.07133,363.83103 499.62527,363.60691 498.6523,363.35337 z "
       style="fill:#fdcb32"
       sodipodi:nodetypes="csccsssssssccssssssccccccsscccccscccsssssccssccsssccssccssssccscccsccssccscccccccssssssccsccssc" />
    <path
       id="path2214"
       d="M 449.80938,442.54672 C 446.80004,440.91117 445.55682,438.08297 443.93574,429.18479 C 442.52416,421.43656 441.06869,418.04636 439.15383,418.04636 C 438.15579,418.04636 437.941,417.50382 438.461,416.29636 C 438.87551,415.33386 439.4241,411.76491 439.68009,408.36536 C 440.02888,403.73345 440.68134,401.68754 442.28343,400.20201 C 446.0832,396.6787 449.38539,396.99089 455.1908,401.42226 C 458.02752,403.58757 460.11691,404.52339 461.0174,404.03193 C 461.78956,403.61051 465.00862,403.74156 468.17087,404.32316 C 471.33312,404.90476 474.14779,405.15324 474.42568,404.87534 C 475.23198,404.06904 473.10164,394.22859 471.29789,390.42747 C 470.39192,388.51828 467.57407,385.52129 465.036,383.76747 C 461.13017,381.06853 459.33422,380.52239 453.34402,380.21196 C 447.0347,379.885 445.98508,380.10027 443.67127,382.19578 C 442.24378,383.4886 439.63213,387.38447 437.86762,390.85326 C 434.74507,396.99179 434.67236,397.42905 435.1444,407.23182 C 435.5227,415.08794 435.98262,417.50115 437.23514,418.2021 C 438.11831,418.69635 439.1414,420.70252 439.50868,422.66027 C 440.39131,427.36509 438.53758,429.14949 431.16309,430.69379 C 423.33846,432.33235 421.12634,430.75582 418.53485,421.69387 C 417.1248,416.76317 416.18318,415.04636 414.88888,415.04636 C 412.46629,415.04636 411.18877,408.35035 413.22322,406.3159 C 414.32662,405.2125 414.46092,403.94339 413.79018,400.95818 C 413.27247,398.65403 413.29079,395.35718 413.83475,392.93619 C 414.77886,388.73424 419.24969,383.04636 421.60842,383.04636 C 422.59102,383.04636 422.92133,380.87211 422.92133,374.40417 C 422.92133,359.48346 428.85243,344.2105 438.3255,334.73742 C 464.63117,317.90266 459.83493,322.85369 489.9356,324.11139 C 495.63199,325.65856 497.07089,326.58331 501.75848,331.70966 C 506.67026,337.08118 514.42665,351.0862 516.34451,358.04636 C 516.72339,359.42136 514.57825,355.59636 511.57754,349.54636 C 507.94096,342.21435 504.33766,336.63263 500.77151,332.80723 C 495.74182,327.41188 494.92505,326.94309 487.13649,324.98137 C 467.45015,319.94803 447.09771,326.79433 434.35729,342.39717 C 430.60768,347.94307 424.83512,364.337 425.05751,368.80832 C 425.19017,371.47547 425.20409,371.48164 425.59503,369.04636 C 426.1434,365.63042 429.04749,359.04636 430.00582,359.04636 C 431.08145,359.04636 431.65304,361.44316 432.3963,369.07004 C 432.98729,375.13451 432.85738,375.75781 430.55072,377.92481 C 427.71312,380.59059 425.92133,380.03423 425.92133,376.48734 C 425.92133,375.1448 425.45583,374.04636 424.88689,374.04636 C 424.22442,374.04636 424.08985,375.83604 424.51266,379.02329 C 425.12367,383.62929 424.9958,384.06792 422.7971,384.90853 C 419.33385,386.2326 416.86184,389.37628 415.88777,393.69517 C 414.88474,398.14247 415.4471,399.42388 416.81867,395.81637 C 417.94412,392.85621 422.48172,389.04636 424.88188,389.04636 C 428.28503,389.04636 431.18265,393.65792 431.93427,400.27023 L 432.64768,406.54636 L 432.78451,401.2714 C 432.88343,397.45746 433.86018,394.13377 436.31101,389.2714 C 440.46417,381.03164 442.14177,379.45364 448.18927,378.09837 C 453.97344,376.80211 459.15702,377.82236 465.41252,381.48833 C 471.26564,384.91849 474.69448,390.17384 476.13571,397.9237 L 477.28516,404.10451 L 483.35324,403.43702 C 496.90749,401.94605 516.95425,397.22486 524.64809,393.71174 C 536.56388,388.2708 536.69511,388.2607 538.52649,392.6438 C 539.45591,394.86822 539.95525,398.36738 539.7563,401.26174 C 539.44825,405.74302 539.62225,406.18759 541.92133,406.7934 C 544.96446,407.59527 547.4047,407.27158 551.66671,405.50072 C 554.52662,404.31244 554.80454,403.86938 554.00657,401.77056 C 553.50853,400.46061 552.37666,394.51292 551.4913,388.55345 C 550.4498,381.54301 549.1313,376.50413 547.75621,374.2792 C 545.52811,370.67405 540.47585,367.00096 537.92133,367.12905 C 536.89665,367.18042 536.81743,367.36408 537.67133,367.70864 C 540.35683,368.79227 538.7783,370.11015 535.52572,369.49997 C 532.57631,368.94665 531.59638,369.34514 528.06842,372.53244 C 525.83449,374.55066 523.73219,377.06693 523.39664,378.12415 C 522.70575,380.30095 520.92133,380.73508 520.92133,378.72636 C 520.92133,376.68759 527.90281,369.0102 530.81825,367.84292 L 533.42133,366.80071 L 529.42133,364.8881 C 526.44972,363.46722 524.03495,363.09835 520.02888,363.45337 C 513.72026,364.01245 514.25544,362.21362 520.65302,361.35552 C 523.45003,360.98036 526.04077,361.44795 529.40122,362.93444 C 532.02711,364.096 535.29459,365.04636 536.66229,365.04636 C 540.72862,365.04636 546.92788,369.20139 549.5583,373.68987 C 551.95436,377.77844 555.02587,393.20778 555.30274,402.54636 C 555.4059,406.02586 555.11539,406.58967 553.0702,406.87916 C 550.85766,407.19235 550.76316,407.48707 551.46697,411.87916 C 552.94922,421.12916 551.82866,422.72575 541.57245,425.97702 C 538.18933,427.04948 534.00425,428.48534 532.27226,429.1678 C 527.55676,431.02587 524.42268,428.61131 523.01199,422.03349 C 521.43356,414.67354 521.55284,414.22717 525.54345,412.55978 C 527.53562,411.7274 529.35407,411.04636 529.58446,411.04636 C 529.81484,411.04636 530.8531,412.95886 531.8917,415.29636 L 533.78006,419.54636 L 533.85069,414.49636 C 533.88954,411.71886 534.41523,408.95246 535.01888,408.34881 C 535.62252,407.74517 532.13502,408.73971 527.26888,410.55891 C 518.38252,413.88106 496.47941,418.37904 483.41548,419.56455 L 476.40963,420.2003 L 476.62654,429.8178 C 476.89401,441.67741 476.40451,442.46212 469.29329,441.57363 C 465.66631,441.12047 462.64738,441.39957 459.45593,442.48309 C 453.91459,444.36443 453.16302,444.36938 449.80938,442.54672 z M 454.03821,422.87244 C 451.95922,418.67187 451.09392,417.55434 451.46286,419.54636 C 452.50821,425.19054 455.18139,431.1863 456.19884,430.16885 C 456.82595,429.54174 456.06171,426.9609 454.03821,422.87244 z M 425.92133,417.86736 C 425.92133,415.03309 423.74892,409.04636 422.72044,409.04636 C 421.62984,409.04636 421.72624,411.80372 422.97391,416.29636 C 424.10962,420.38586 425.92133,421.35152 425.92133,417.86736 z M 493.28148,416.54838 C 509.12084,414.16096 524.76127,410.30978 531.58394,407.11706 L 537.92133,404.15144 L 537.92133,399.29003 C 537.92133,396.61625 537.35883,393.68135 536.67133,392.76803 C 535.53093,391.25304 534.65429,391.45572 526.67298,395.07968 C 513.92262,400.86907 491.64528,405.31766 474.74955,405.44835 L 462.07778,405.54636 L 461.43872,409.79342 C 460.71798,414.58335 461.19778,415.81201 464.27366,417.05305 C 467.67995,418.42741 482.52899,418.16907 493.28148,416.54838 z M 423.19661,394.598 C 424.42021,394.33743 426.2892,393.99421 427.34992,393.8353 C 429.18669,393.56012 429.19519,393.46303 427.52849,391.79636 C 426.56598,390.83386 425.326,390.04636 424.77298,390.04636 C 422.81997,390.04636 417.92186,395.92347 417.96137,398.21944 C 418.00026,400.47987 418.04385,400.46814 419.48665,397.80907 C 420.30353,396.30356 421.97301,394.85858 423.19661,394.598 z M 430.32706,376.15053 C 431.8694,374.44626 431.91272,373.62504 430.75575,368.02356 C 429.48313,361.86217 429.45498,361.82463 428.24013,364.6694 C 426.8429,367.94126 426.48499,378.04636 427.76634,378.04636 C 428.2311,378.04636 429.38342,377.19323 430.32706,376.15053 z M 481.14858,400.35956 C 474.90417,397.3353 475.16984,388.04636 481.50075,388.04636 C 484.56282,388.04636 489.92133,393.51932 489.92133,396.64678 C 489.92133,400.66011 485.57084,402.50132 481.14858,400.35956 z M 487.92133,396.46343 C 487.92133,394.43647 483.07862,390.04636 480.84269,390.04636 C 476.70763,390.04636 477.84271,397.3244 482.2367,398.9846 C 484.83242,399.96535 487.92133,398.5954 487.92133,396.46343 z M 491.92133,398.1517 C 491.92133,397.62175 494.50883,396.66862 497.67133,396.03364 C 500.83383,395.39865 504.4925,394.62824 505.80171,394.32161 C 509.06216,393.55798 508.15518,396.20778 504.85617,397.08406 C 499.69305,398.45548 491.92133,399.09696 491.92133,398.1517 z M 510.50136,392.13479 C 509.4789,391.00499 508.90431,389.0642 509.09637,387.38915 C 509.39305,384.80175 509.88236,384.48212 514.71801,383.71701 C 520.65798,382.77717 522.92133,383.8194 522.92133,387.49449 C 522.92133,392.878 514.1423,396.15799 510.50136,392.13479 z M 519.72133,390.84636 C 522.49923,388.06846 519.67539,383.07221 516.18406,384.58783 C 515.21456,385.0087 513.75369,385.39655 512.93769,385.44971 C 511.31192,385.55562 510.43299,388.33139 511.30537,390.60477 C 511.98262,392.36965 518.02461,392.54309 519.72133,390.84636 z M 434.34887,370.51183 C 433.98418,368.56784 433.87365,362.83034 434.10325,357.76183 C 434.46787,349.7129 434.87668,348.01241 437.33279,344.32827 C 439.88539,340.4994 443.32869,338.12039 444.55008,339.34178 C 444.813,339.60469 444.27491,343.537 443.35433,348.08024 C 442.30861,353.24111 441.90775,358.27372 442.28603,361.4923 C 442.90555,366.76343 441.7477,369.78545 437.96722,372.76456 C 435.58108,374.64489 435.06383,374.32285 434.34887,370.51183 z M 441.1036,358.83627 C 440.95043,354.70976 441.4675,349.16026 442.29518,346.04771 C 443.09938,343.02345 443.54229,340.33399 443.27944,340.07113 C 443.01658,339.80828 441.27037,341.38267 439.39897,343.56979 L 435.99642,347.54636 L 436.01245,360.04636 L 436.02847,372.54636 L 438.70133,369.33627 C 441.13557,366.41275 441.35003,365.47538 441.1036,358.83627 z M 445.89654,370.29636 C 443.50283,367.2628 443.52635,366.4676 446.51027,349.54636 C 449.10673,334.82236 449.27753,334.59603 459.60837,332.19027 C 480.27929,327.3766 489.8983,326.86044 494.90262,330.29636 C 498.95081,333.07581 501.34972,337.6161 510.24888,359.34135 C 511.82014,363.17723 509.93348,364.2533 502.92133,363.52066 C 494.76323,362.66828 471.50126,364.73928 462.92133,367.08183 C 458.79633,368.20807 454.20205,370.01082 452.71182,371.08795 C 449.16746,373.64978 448.47959,373.56989 445.89654,370.29636 z M 453.19106,369.04972 C 460.31356,364.84734 471.27519,362.90459 491.17133,362.3184 C 501.48383,362.01457 509.92133,361.3947 509.92133,360.9409 C 509.92133,360.4871 508.63757,358.09153 507.06853,355.61741 C 505.49948,353.14329 503.00151,347.78984 501.51747,343.72086 C 496.46402,329.86519 492.0387,327.96989 472.98444,331.5006 C 457.36616,334.39463 452.41426,335.71493 451.22,337.30354 C 450.28205,338.55121 447.57251,352.10983 446.35341,361.65614 C 445.71406,366.66266 446.9026,371.04636 448.89935,371.04636 C 449.39856,371.04636 451.32983,370.14787 453.19106,369.04972 z M 480.92133,359.09217 C 480.92133,358.56736 483.01104,356.54236 485.56513,354.59217 C 492.29383,349.45443 500.07622,350.14631 504.36063,356.26316 C 506.88691,359.86993 506.15135,360.64092 503.03368,357.654 C 500.15208,354.89325 500.143,354.8918 498.69399,356.96055 C 497.89536,358.10075 496.94382,358.73552 496.57945,358.37115 C 496.21509,358.00678 496.65234,356.89609 497.55113,355.90294 C 499.08172,354.21164 499.01546,354.03265 496.50548,353.07835 C 493.20031,351.82173 488.53533,353.58061 484.99702,357.41748 C 482.50405,360.12081 480.92133,360.77114 480.92133,359.09217 z M 491.3499,358.61779 C 490.29092,357.84344 489.68162,356.95274 489.9959,356.63845 C 490.31019,356.32417 491.43377,356.70058 492.49276,357.47493 C 493.55174,358.24928 494.16104,359.13998 493.84676,359.45427 C 493.53247,359.76855 492.40889,359.39214 491.3499,358.61779 z "
       style="fill:#847e36"
       sodipodi:nodetypes="csssssssssssssssssssssssssccssssccsssssssssssscccssscccsssssssssssssscccssssssssssssscccsscccssccssccsscccccsscccsccsssssccsssccssccssccsssccsssccsssccssssssccsscccccccsssssssccssssssssccssssssssccsssc" />
    <path
       id="path2212"
       d="M 449.80938,442.54672 C 446.80004,440.91117 445.55682,438.08297 443.93574,429.18479 C 442.52416,421.43656 441.06869,418.04636 439.15383,418.04636 C 438.13943,418.04636 437.94531,417.52362 438.50397,416.29636 C 438.94211,415.33386 439.4795,411.84636 439.69818,408.54636 C 440.46507,396.97331 447.39317,394.70517 457.1203,402.84265 C 458.18426,403.73274 461.86808,404.39996 466.97646,404.62781 L 475.13365,404.99166 L 474.46644,401.26901 C 472.43896,389.95697 470.44828,386.61156 463.22594,382.37899 C 459.6854,380.30409 457.36519,379.71303 452.76079,379.71303 C 445.34589,379.71303 442.58996,381.58064 438.14221,389.6196 C 434.92752,395.42991 434.86894,395.75917 435.16085,406.37714 C 435.40635,415.30662 435.75549,417.37405 437.14976,418.15432 C 438.07989,418.67485 439.1414,420.70252 439.50868,422.66027 C 440.39131,427.36509 438.53758,429.14949 431.16309,430.69379 C 423.33846,432.33235 421.12634,430.75582 418.53485,421.69387 C 417.1248,416.76317 416.18318,415.04636 414.88888,415.04636 C 412.46629,415.04636 411.18877,408.35035 413.22322,406.3159 C 414.32662,405.2125 414.46092,403.94339 413.79018,400.95818 C 413.27247,398.65403 413.29079,395.35718 413.83475,392.93619 C 414.77886,388.73424 419.24969,383.04636 421.60842,383.04636 C 422.59102,383.04636 422.92133,380.87211 422.92133,374.40417 C 422.92133,359.48346 428.85243,344.2105 438.3255,334.73742 C 443.03267,330.03026 443.19352,329.68783 442.10851,326.6838 C 440.62688,322.58166 441.40928,319.92085 444.72601,317.78211 C 446.20844,316.8262 448.88167,315.10444 450.66652,313.95598 C 455.86003,310.61424 462.57213,309.28664 470.22538,310.08739 C 478.08078,310.90929 481.27595,313.15751 482.61089,318.80221 C 483.39749,322.12831 483.84341,322.45755 489.75247,324.07506 C 499.38263,326.71118 506.12492,334.25403 512.98114,350.06183 C 518.50505,362.79783 517.84934,362.53292 511.46813,349.45057 C 507.98395,342.30755 504.25063,336.37952 500.98832,332.81004 C 496.30572,327.68653 495.29813,327.0973 487.72509,325.05388 C 480.82879,323.19306 478.17326,322.95504 470.97538,323.55258 C 461.20355,324.3638 452.93049,326.67887 446.64961,330.35971 C 433.80015,337.89 424.69643,356.56381 424.5735,375.64287 C 424.52367,383.37613 424.39956,383.80927 421.80712,385.29712 C 418.19704,387.36903 415.9407,390.98735 415.32589,395.69059 L 414.82186,399.54636 L 416.88977,395.80751 C 419.21956,391.59515 422.98586,388.71624 425.51618,389.21357 C 428.44407,389.78904 431.13579,394.62234 431.91195,400.6979 L 432.6591,406.54636 L 432.79021,401.19259 C 432.9428,394.96233 438.6294,382.93897 442.67822,380.28608 C 448.72626,376.32326 459.42581,377.35196 467.03957,382.6283 C 471.70607,385.86218 475.44061,392.65788 476.52494,399.88868 L 477.17816,404.24472 L 482.79975,403.58438 C 498.87237,401.69643 515.695,397.77958 523.95574,394.00195 C 535.76237,388.6028 537.02158,388.56391 538.70663,393.54636 C 539.45066,395.74636 539.91306,399.45309 539.73419,401.78353 C 539.43922,405.62643 539.66282,406.10919 542.13715,406.97175 C 544.89155,407.93194 548.78739,407.25878 552.75026,405.13791 C 554.40926,404.25004 554.67946,403.53479 554.01948,401.77813 C 553.55832,400.55066 552.63898,395.49636 551.97651,390.54636 C 550.41475,378.87685 549.34414,375.59751 545.76549,371.52165 C 542.90424,368.26287 536.43805,365.19631 535.148,366.48636 C 534.79637,366.83799 535.50152,367.38532 536.715,367.70266 C 540.01007,368.56434 539.38035,370.08816 536.00791,369.41368 C 532.16285,368.64466 527.795,371.27331 524.7747,376.17401 C 521.47214,381.5327 519.54048,381.59019 522.33205,376.2467 C 524.1783,372.7127 528.81027,368.45613 531.79271,367.55279 C 534.00647,366.88228 533.87353,366.703 529.79271,364.85562 C 526.62258,363.42052 523.96896,362.99213 520.13614,363.29673 C 514.04664,363.78066 514.47161,362.18462 520.65302,361.35552 C 523.45003,360.98036 526.04077,361.44795 529.40122,362.93444 C 532.02711,364.096 535.29459,365.04636 536.66229,365.04636 C 540.72862,365.04636 546.92788,369.20139 549.5583,373.68987 C 551.95436,377.77844 555.02587,393.20778 555.30274,402.54636 C 555.4059,406.02586 555.11539,406.58967 553.0702,406.87916 C 550.85766,407.19235 550.76316,407.48707 551.46697,411.87916 C 552.94922,421.12916 551.82866,422.72575 541.57245,425.97702 C 538.18933,427.04948 534.00425,428.48534 532.27226,429.1678 C 527.55676,431.02587 524.42268,428.61131 523.01199,422.03349 C 521.43356,414.67354 521.55284,414.22717 525.54345,412.55978 C 527.53562,411.7274 529.35407,411.04636 529.58446,411.04636 C 529.81484,411.04636 530.8531,412.95886 531.8917,415.29636 L 533.78006,419.54636 L 533.85069,414.49636 C 533.88954,411.71886 534.41523,408.95246 535.01888,408.34881 C 535.62252,407.74517 532.13502,408.73971 527.26888,410.55891 C 518.38252,413.88106 496.47941,418.37904 483.41548,419.56455 L 476.40963,420.2003 L 476.62654,429.8178 C 476.89401,441.67741 476.40451,442.46212 469.29329,441.57363 C 465.66631,441.12047 462.64738,441.39957 459.45593,442.48309 C 453.91459,444.36443 453.16302,444.36938 449.80938,442.54672 z M 454.03821,422.87244 C 451.95922,418.67187 451.09392,417.55434 451.46286,419.54636 C 452.50821,425.19054 455.18139,431.1863 456.19884,430.16885 C 456.82595,429.54174 456.06171,426.9609 454.03821,422.87244 z M 425.92133,417.86736 C 425.92133,415.03309 423.74892,409.04636 422.72044,409.04636 C 421.62984,409.04636 421.72624,411.80372 422.97391,416.29636 C 424.10962,420.38586 425.92133,421.35152 425.92133,417.86736 z M 493.28148,416.54838 C 509.12084,414.16096 524.76127,410.30978 531.58394,407.11706 L 537.92133,404.15144 L 537.92133,399.29003 C 537.92133,396.61625 537.35883,393.68135 536.67133,392.76803 C 535.53093,391.25304 534.65429,391.45572 526.67298,395.07968 C 513.92262,400.86907 491.64528,405.31766 474.74955,405.44835 L 462.07778,405.54636 L 461.43872,409.79342 C 460.71798,414.58335 461.19778,415.81201 464.27366,417.05305 C 467.67995,418.42741 482.52899,418.16907 493.28148,416.54838 z M 423.19661,394.598 C 424.42021,394.33743 426.2892,393.99421 427.34992,393.8353 C 429.18669,393.56012 429.19519,393.46303 427.52849,391.79636 C 426.56598,390.83386 425.326,390.04636 424.77298,390.04636 C 422.81997,390.04636 417.92186,395.92347 417.96137,398.21944 C 418.00026,400.47987 418.04385,400.46814 419.48665,397.80907 C 420.30353,396.30356 421.97301,394.85858 423.19661,394.598 z M 444.42133,325.04636 C 444.04165,323.3177 443.50601,322.12835 443.23101,322.40335 C 442.95601,322.67835 443.04165,324.3177 443.42133,326.04636 C 443.80101,327.77502 444.33665,328.96437 444.61165,328.68937 C 444.88665,328.41437 444.80101,326.77502 444.42133,325.04636 z M 472.89067,321.90498 C 477.37281,321.77207 481.17225,321.41201 481.33387,321.10485 C 481.49549,320.79768 481.22268,319.05208 480.72763,317.22574 C 479.45739,312.53952 474.65726,310.67066 465.42634,311.26838 C 458.31927,311.72859 451.63286,314.12304 446.98218,317.87337 C 444.7076,319.70761 444.62253,320.10567 445.72132,323.77313 L 446.89962,327.70594 L 453.66048,325.40197 C 468.38871,319.93184 463.28395,322.69378 472.89067,321.90498 z M 479.28911,398.84368 C 476.203,395.41826 475.68143,393.06144 477.4217,390.40545 C 479.55917,387.14326 482.30328,387.45305 486.66338,391.44877 C 490.02368,394.52827 490.28156,395.12145 489.38048,397.69877 C 488.01458,401.60556 482.35583,402.24757 479.28911,398.84368 z M 487.92133,396.46343 C 487.92133,394.43647 483.07862,390.04636 480.84269,390.04636 C 476.70763,390.04636 477.84271,397.3244 482.2367,398.9846 C 484.83242,399.96535 487.92133,398.5954 487.92133,396.46343 z M 491.92133,398.12582 C 491.92133,397.53212 492.25883,397.03855 492.67133,397.029 C 493.08383,397.01945 496.54029,396.35091 500.35235,395.54335 C 504.16441,394.7358 507.47197,394.26367 507.70249,394.49418 C 508.82402,395.61572 506.47913,396.87962 502.18363,397.46885 C 499.56436,397.82814 496.18383,398.36582 494.67133,398.66369 C 493.03524,398.9859 491.92133,398.76803 491.92133,398.12582 z M 510.50136,392.13479 C 509.48155,391.00791 508.90481,389.06545 509.09637,387.40278 C 509.38662,384.88359 509.93051,384.49752 514.18842,383.78831 C 519.85323,382.84476 522.92133,384.11618 522.92133,387.40723 C 522.92133,392.86695 514.17638,396.19565 510.50136,392.13479 z M 519.72133,390.84636 C 522.49923,388.06846 519.67539,383.07221 516.18406,384.58783 C 515.21456,385.0087 513.75369,385.39655 512.93769,385.44971 C 511.31192,385.55562 510.43299,388.33139 511.30537,390.60477 C 511.98262,392.36965 518.02461,392.54309 519.72133,390.84636 z M 426.588,379.37969 C 426.22133,379.01303 425.92301,375.75053 425.92507,372.12969 C 425.92783,367.25771 426.46175,364.6722 427.97896,362.18358 C 429.10654,360.33405 430.269,359.0607 430.56221,359.35391 C 430.85543,359.64712 431.52647,363.35977 432.05342,367.60424 C 432.95732,374.8849 432.88597,375.4551 430.79211,377.68391 C 428.46201,380.16418 427.68564,380.47734 426.588,379.37969 z M 430.32706,376.15053 C 431.8694,374.44626 431.91272,373.62504 430.75575,368.02356 C 429.48313,361.86217 429.45498,361.82463 428.24013,364.6694 C 426.8429,367.94126 426.48499,378.04636 427.76634,378.04636 C 428.2311,378.04636 429.38342,377.19323 430.32706,376.15053 z M 434.35003,369.41948 C 433.96805,366.87226 433.88857,361.05266 434.17341,356.48704 C 434.6133,349.43614 435.12279,347.57512 437.55632,344.13036 C 440.21305,340.36963 443.40315,338.19485 444.56241,339.35411 C 444.83212,339.62381 444.50265,341.8024 443.83028,344.19542 C 443.1579,346.58844 442.53715,352.6599 442.45085,357.68756 C 442.28626,367.27548 441.00757,370.85947 436.98293,373.01339 C 435.22815,373.95252 434.97875,373.61209 434.35003,369.41948 z M 441.09181,359.31834 C 440.95551,354.90606 441.47975,349.16938 442.30454,346.04771 C 443.10359,343.02345 443.54229,340.33399 443.27944,340.07113 C 443.01658,339.80828 441.27037,341.38267 439.39897,343.56979 L 435.99642,347.54636 L 435.95888,360.02363 L 435.92133,372.50091 L 438.62662,369.79562 C 441.15676,367.26548 441.31636,366.58714 441.09181,359.31834 z M 446.34904,370.96649 C 443.62864,367.96047 443.91109,363.75385 448.45875,339.54636 C 449.24908,335.33937 451.36798,334.20394 463.42133,331.52853 C 480.07616,327.83176 488.51298,327.28422 493.36231,329.58538 C 497.74669,331.6659 499.88267,334.79698 503.56848,344.54636 C 505.024,348.39636 507.27383,353.3859 508.5681,355.63422 C 512.80836,363.0001 511.49725,364.46193 501.5495,363.45967 C 493.10606,362.60897 470.75331,364.66398 462.35802,367.06276 C 458.54284,368.15287 454.20205,369.94513 452.71182,371.04557 C 449.32041,373.5499 448.6798,373.54194 446.34904,370.96649 z M 453.19106,369.04972 C 460.31356,364.84734 471.27519,362.90459 491.17133,362.3184 C 501.48383,362.01457 509.92133,361.3947 509.92133,360.9409 C 509.92133,360.4871 508.63757,358.09153 507.06853,355.61741 C 505.49948,353.14329 503.00151,347.78984 501.51747,343.72086 C 496.46402,329.86519 492.0387,327.96989 472.98444,331.5006 C 457.36616,334.39463 452.41426,335.71493 451.22,337.30354 C 450.28205,338.55121 447.57251,352.10983 446.35341,361.65614 C 445.71406,366.66266 446.9026,371.04636 448.89935,371.04636 C 449.39856,371.04636 451.32983,370.14787 453.19106,369.04972 z M 480.92133,359.09217 C 480.92133,358.56736 483.01104,356.54236 485.56513,354.59217 C 492.29383,349.45443 500.07622,350.14631 504.36063,356.26316 C 506.88691,359.86993 506.15135,360.64092 503.03368,357.654 C 500.15208,354.89325 500.143,354.8918 498.69399,356.96055 C 497.89536,358.10075 496.94382,358.73552 496.57945,358.37115 C 496.21509,358.00678 496.65234,356.89609 497.55113,355.90294 C 499.08172,354.21164 499.01546,354.03265 496.50548,353.07835 C 493.20031,351.82173 488.53533,353.58061 484.99702,357.41748 C 482.50405,360.12081 480.92133,360.77114 480.92133,359.09217 z M 491.3499,358.61779 C 490.29092,357.84344 489.68162,356.95274 489.9959,356.63845 C 490.31019,356.32417 491.43377,356.70058 492.49276,357.47493 C 493.55174,358.24928 494.16104,359.13998 493.84676,359.45427 C 493.53247,359.76855 492.40889,359.39214 491.3499,358.61779 z "
       style="fill:#4e4c4c"
       sodipodi:nodetypes="cssssscccssssssssssssssssssssssssssssscccscccsscccsssssssssssssssssssssssssssscccsscccssccssccsscccccsscccsccsssssccsssccsssscccccsssccssccsssssccsssccsssccsssssccsssccssssssccsscccccccssssssssccssssssssccssssssssccsssc" />
    <path
       id="path2210"
       d="M 449.7899,442.53486 C 446.68757,440.85117 446.37049,440.13656 444.31915,430.20541 C 442.51745,421.4828 440.35716,416.65897 438.7088,417.67771 C 437.92165,418.1642 437.84084,417.79686 438.44102,416.4604 C 438.91378,415.40768 439.4795,411.84636 439.69818,408.54636 C 440.46504,396.97377 447.39295,394.70526 457.11943,402.84186 C 458.20023,403.746 461.96474,404.40374 467.4752,404.65122 C 475.40249,405.00725 476.07265,404.89268 475.4189,403.29321 C 475.02621,402.33244 474.12467,399.12787 473.41548,396.17194 C 471.81054,389.48244 469.52971,386.35529 463.53828,382.62969 C 459.71533,380.25251 457.73769,379.71303 452.84625,379.71303 C 445.33708,379.71303 442.60477,381.55387 438.14221,389.6196 C 434.9334,395.41928 434.86939,395.77617 435.15699,406.26412 C 435.3929,414.86727 435.78083,417.23486 437.1232,418.26412 C 438.04297,418.96935 439.09163,421.19511 439.45356,423.21026 C 440.22372,427.49839 438.73609,428.73242 430.43675,430.68995 C 422.89418,432.46898 420.67494,430.46296 417.8744,419.33456 C 416.68108,414.59273 414.06536,411.36185 413.82088,414.32774 C 413.76563,414.99798 413.31022,413.79898 412.80886,411.6633 C 412.17212,408.95094 412.2502,407.35502 413.06784,406.36983 C 413.7538,405.5433 414.1602,402.183 414.04952,398.25288 C 413.83703,390.70775 415.96848,385.89326 420.41903,383.86545 C 422.79717,382.7819 422.92133,382.31212 422.92133,374.3978 C 422.92133,367.91272 423.57802,364.02021 425.88948,356.80432 C 429.26107,346.27891 432.68223,340.46454 439.19912,334.18422 C 443.59984,329.94323 443.68977,329.73492 442.43705,326.68422 C 440.64188,322.31252 441.81511,320.0518 448.13948,315.69604 C 455.29489,310.76791 461.54932,309.17962 470.22538,310.08739 C 478.08078,310.90929 481.27595,313.15751 482.61089,318.80221 C 483.39749,322.12831 483.84341,322.45755 489.75247,324.07506 C 496.53089,325.93056 500.1454,328.69826 505.07954,335.81135 C 508.32047,340.4835 514.27382,352.02721 513.7253,352.57573 C 513.53622,352.7648 511.64465,349.54549 509.5218,345.42169 C 507.39896,341.29789 503.47028,335.5257 500.79141,332.59459 C 496.33067,327.71382 495.23099,327.07919 487.72509,325.05388 C 480.82879,323.19306 478.17326,322.95504 470.97538,323.55258 C 444.68279,325.7353 431.07892,338.2792 425.43312,365.54636 C 424.41232,370.47647 424.00633,375.46504 424.37514,378.54636 C 424.94435,383.30201 424.8299,383.6272 422.03325,385.20061 C 418.21761,387.34731 415.95369,390.88797 415.32589,395.69059 L 414.82186,399.54636 L 416.88977,395.80751 C 419.21956,391.59515 422.98586,388.71624 425.51618,389.21357 C 428.44407,389.78904 431.13579,394.62234 431.91195,400.6979 L 432.6591,406.54636 L 432.79021,401.19259 C 432.9428,394.96233 438.6294,382.93897 442.67822,380.28608 C 448.69791,376.34183 459.42408,377.35076 466.95489,382.56961 C 471.68657,385.84867 474.13709,390.10407 476.0599,398.38072 L 477.41533,404.21509 L 482.91833,403.56957 C 498.59397,401.73077 515.74735,397.75775 523.92133,394.07256 C 535.97489,388.63829 536.56548,388.52024 538.0503,391.2483 C 538.73822,392.51223 539.4137,396.46187 539.55137,400.02527 C 539.7845,406.0598 539.9793,406.55169 542.39159,407.19684 C 545.05872,407.91014 549.05421,407.11598 552.75026,405.13791 C 554.40926,404.25004 554.67946,403.53479 554.01948,401.77813 C 553.55832,400.55066 552.64809,395.49636 551.99677,390.54636 C 551.34544,385.59636 550.13281,379.65483 549.30202,377.34296 C 547.38976,372.02158 542.10148,367.3178 537.19271,366.57205 C 535.11845,366.25693 532.07133,365.4632 530.42133,364.80821 C 528.77133,364.15322 524.63075,363.60135 521.22003,363.58184 C 514.53005,363.54356 514.19344,362.22193 520.65302,361.35552 C 523.45003,360.98036 526.04077,361.44795 529.40122,362.93444 C 532.02711,364.096 535.26571,365.04636 536.59811,365.04636 C 542.52612,365.04636 549.86024,371.896 551.67804,379.13013 C 552.28838,381.55906 553.53692,388.44254 554.45256,394.42676 C 556.18152,405.72642 555.94547,406.98666 552.09174,407.03105 C 551.05876,407.04294 550.90733,408.44069 551.41292,413.29636 C 551.89191,417.89653 551.69794,420.0364 550.67814,421.40274 C 548.83489,423.87235 530.12806,430.05341 527.44269,429.08014 C 524.73539,428.09893 523.13199,424.56607 522.74268,418.72437 C 522.42474,413.95362 522.4613,413.88842 526.18311,412.58816 L 529.94489,411.27394 L 531.84885,415.41015 L 533.75281,419.54636 L 533.83707,414.49636 C 533.88341,411.71886 534.48383,408.84013 535.17133,408.09918 C 536.19974,406.99082 536.06679,406.89158 534.42133,407.5394 C 518.77744,413.69835 502.24022,417.68476 488.42133,418.62801 C 475.13283,419.53505 476.20185,418.56459 476.48718,429.46189 C 476.80267,441.51099 476.02414,442.8645 469.62091,441.39924 C 466.29867,440.639 464.32099,440.67874 462.25078,441.54733 C 457.16242,443.68223 452.57405,444.04586 449.7899,442.53486 z M 456.56019,428.74361 C 456.24232,427.4771 454.86946,423.9896 453.50939,420.99361 C 450.40505,414.1553 450.01658,417.55318 452.99318,425.50885 C 455.01338,430.90831 457.71941,433.36228 456.56019,428.74361 z M 425.92133,417.86736 C 425.92133,415.03309 423.74892,409.04636 422.72044,409.04636 C 421.5763,409.04636 421.73483,413.21293 423.01916,416.89714 C 424.28232,420.52065 425.92133,421.06859 425.92133,417.86736 z M 507.42133,414.24384 C 515.12133,412.63056 525.13383,409.86844 529.67133,408.10579 L 537.92133,404.90099 L 537.90602,399.22367 C 537.88499,391.42737 537.25422,390.65604 532.35063,392.43027 C 530.18952,393.21222 525.87417,395.03524 522.76098,396.48144 C 512.58726,401.20752 480.20191,406.72567 468.21481,405.77558 L 462.00829,405.28365 L 461.36191,409.594 C 460.20015,417.34123 462.17994,418.19716 479.92133,417.61788 C 489.60884,417.30156 497.37502,416.34871 507.42133,414.24384 z M 416.92133,410.98734 C 416.92133,409.85488 416.49098,409.19429 415.965,409.51937 C 415.43902,409.84444 415.26217,410.771 415.57199,411.57839 C 416.36522,413.6455 416.92133,413.40191 416.92133,410.98734 z M 421.35109,396.35312 C 422.82606,395.0844 425.13276,394.04636 426.47709,394.04636 C 429.2664,394.04636 429.62144,392.87229 427.39172,391.02178 C 423.58678,387.86396 416.84058,395.37456 417.04007,402.54636 L 417.15133,406.54636 L 417.91032,402.60312 C 418.36662,400.23251 419.73884,397.73992 421.35109,396.35312 z M 444.62054,325.41794 C 444.00806,323.42231 443.33124,322.31662 443.1165,322.96085 C 442.55263,324.65246 443.80194,329.04636 444.84678,329.04636 C 445.33482,329.04636 445.23301,327.41357 444.62054,325.41794 z M 455.92133,324.7975 C 459.37938,323.56209 465.22678,322.63798 471.67133,322.3084 C 477.30883,322.02009 481.92133,321.46034 481.92133,321.0645 C 481.92133,318.26682 479.24819,313.74963 476.86257,312.51598 C 470.59923,309.27707 456.42078,311.34924 448.82406,316.61377 C 444.7649,319.42677 444.2282,321.09309 445.93523,325.58292 C 446.70038,327.59541 447.37506,328.06723 448.68523,327.50604 C 449.64008,327.09705 452.89633,325.8782 455.92133,324.7975 z M 479.28911,398.84368 C 476.203,395.41826 475.68143,393.06144 477.4217,390.40545 C 479.55917,387.14326 482.30328,387.45305 486.66338,391.44877 C 490.02368,394.52827 490.28156,395.12145 489.38048,397.69877 C 488.01458,401.60556 482.35583,402.24757 479.28911,398.84368 z M 486.72133,398.84636 C 488.65887,396.90882 488.11115,394.34084 485.28647,392.11894 C 481.62689,389.24032 479.10763,389.4559 478.28896,392.71774 C 477.75269,394.8544 478.16037,395.85522 480.32567,397.71774 C 483.35902,400.32692 484.95852,400.60917 486.72133,398.84636 z M 491.92133,398.12582 C 491.92133,397.53212 492.25883,397.03855 492.67133,397.029 C 493.08383,397.01945 496.54029,396.35091 500.35235,395.54335 C 504.16441,394.7358 507.47197,394.26367 507.70249,394.49418 C 508.82402,395.61572 506.47913,396.87962 502.18363,397.46885 C 499.56436,397.82814 496.18383,398.36582 494.67133,398.66369 C 493.03524,398.9859 491.92133,398.76803 491.92133,398.12582 z M 510.50136,392.13479 C 509.47806,391.00406 508.90416,389.06379 509.09637,387.38479 C 509.35232,385.14915 509.95225,384.52202 511.92133,384.43174 C 513.29633,384.3687 515.23753,383.97204 516.2351,383.55028 C 519.01098,382.37667 522.92133,384.59924 522.92133,387.35061 C 522.92133,392.85982 514.19835,396.21992 510.50136,392.13479 z M 519.67133,390.80153 C 522.65677,388.41304 519.66223,383.07759 516.18406,384.58817 C 515.21456,385.00923 513.63383,385.25629 512.67133,385.13719 C 511.70883,385.01809 510.86801,385.51143 510.80285,386.2335 C 510.27025,392.13505 514.9753,394.55856 519.67133,390.80153 z M 426.588,379.37969 C 426.22133,379.01303 425.92301,375.75053 425.92507,372.12969 C 425.92783,367.25771 426.46175,364.6722 427.97896,362.18358 C 429.10654,360.33405 430.269,359.0607 430.56221,359.35391 C 430.85543,359.64712 431.52647,363.35977 432.05342,367.60424 C 432.95732,374.8849 432.88597,375.4551 430.79211,377.68391 C 428.46201,380.16418 427.68564,380.47734 426.588,379.37969 z M 430.36617,376.10731 C 431.9836,374.32008 432.00815,373.67411 430.67973,367.85731 C 429.27323,361.69853 429.21054,361.61424 428.0799,364.36146 C 426.74556,367.60364 426.50629,378.04636 427.76634,378.04636 C 428.2311,378.04636 429.40102,377.17379 430.36617,376.10731 z M 520.92133,379.4967 C 520.92133,376.01417 528.53174,368.03599 532.00708,367.87523 C 536.59026,367.66322 538.92133,368.04963 538.92133,369.02136 C 538.92133,369.56492 537.63214,369.73852 536.00791,369.41368 C 532.16285,368.64466 527.795,371.27331 524.7747,376.17401 C 522.691,379.555 520.92133,381.08096 520.92133,379.4967 z M 434.35003,369.41948 C 433.96805,366.87226 433.88857,361.05266 434.17341,356.48704 C 434.6133,349.43614 435.12279,347.57512 437.55632,344.13036 C 440.21305,340.36963 443.40315,338.19485 444.56241,339.35411 C 444.83212,339.62381 444.50265,341.8024 443.83028,344.19542 C 443.1579,346.58844 442.53715,352.6599 442.45085,357.68756 C 442.28626,367.27548 441.00757,370.85947 436.98293,373.01339 C 435.22815,373.95252 434.97875,373.61209 434.35003,369.41948 z M 439.56686,368.78953 C 441.31881,366.1413 441.62149,364.53742 441.21682,360.04636 C 440.75678,354.94064 441.86774,345.88414 443.45556,341.79636 C 444.65098,338.71877 442.19328,339.91518 438.97641,343.97681 C 436.12536,347.57656 435.82078,348.68703 435.35641,357.1748 C 434.86087,366.23257 435.40687,372.05322 436.75079,372.03953 C 437.11959,372.03577 438.38682,370.57327 439.56686,368.78953 z M 446.34904,370.96649 C 443.62864,367.96047 443.91109,363.75385 448.45875,339.54636 C 449.24908,335.33937 451.36798,334.20394 463.42133,331.52853 C 480.07616,327.83176 488.51298,327.28422 493.36231,329.58538 C 497.74669,331.6659 499.88267,334.79698 503.56848,344.54636 C 505.024,348.39636 507.27383,353.3859 508.5681,355.63422 C 512.89866,363.15694 511.69163,364.33889 500.63154,363.40589 C 485.44214,362.12455 459.10714,366.32305 452.71182,371.04557 C 449.32041,373.5499 448.6798,373.54194 446.34904,370.96649 z M 453.37811,369.07307 C 459.73948,365.14153 472.21298,362.91085 490.42133,362.44853 C 499.77133,362.21112 507.98383,362.02351 508.67133,362.03162 C 510.53775,362.05363 510.19797,360.42438 507.47074,356.27492 C 506.12292,354.22421 503.6221,348.86941 501.91337,344.37535 C 496.3628,329.77705 492.41591,327.88013 474.22697,331.06897 C 458.90313,333.75551 451.80049,335.62668 450.79273,337.24263 C 450.34556,337.95968 449.70045,340.57136 449.35915,343.04636 C 449.01785,345.52136 448.36544,349.12136 447.90935,351.04636 C 446.23783,358.10125 445.7313,366.82277 446.86955,368.94962 C 448.26187,371.55119 449.33549,371.57155 453.37811,369.07307 z M 480.92133,359.16505 C 480.92133,358.0773 486.83519,353.49836 490.2489,351.94297 C 491.69165,351.28561 494.28004,351.07867 496.30589,351.45873 C 499.84535,352.12273 505.94926,357.16348 505.88973,359.37328 C 505.87235,360.01847 504.69041,359.21757 503.2632,357.5935 L 500.66828,354.64064 L 498.7948,356.95429 C 497.6088,358.41894 496.92133,358.75025 496.92133,357.85714 C 496.92133,357.08121 497.41964,355.94805 498.02869,355.339 C 498.8385,354.52919 498.54478,353.9152 496.93555,353.05397 C 493.92038,351.4403 490.8806,352.403 485.92936,356.53965 C 481.46384,360.27049 480.92133,360.55489 480.92133,359.16505 z M 490.92133,358.04636 C 489.62864,357.21096 489.65504,357.07487 491.11231,357.06167 C 492.04235,357.05325 493.08141,357.49636 493.42133,358.04636 C 494.20351,359.31196 492.8797,359.31196 490.92133,358.04636 z M 515.08377,357.50353 C 513.40828,353.82624 513.72794,353.04174 515.53963,356.38477 C 516.38565,357.94589 516.89073,359.41029 516.66203,359.63899 C 516.43333,359.86769 515.72311,358.90674 515.08377,357.50353 z "
       style="fill:#605a1e"
       sodipodi:nodetypes="csssssssssssssssssssssssssssssssssssssscccscccsscccssssssssssssssssssssscccccssssssccssccsscccccsscccsccssccsscccccssccssssssccsssccsssccsssssccssssccsssccsssssccsssccssssccssssssccsssssccsssssssccsssssssssccssscccssssccssccssc" />
    <path
       id="path2208"
       d="M 449.7899,442.53486 C 446.68757,440.85117 446.37049,440.13656 444.31915,430.20541 C 442.6381,422.06689 440.36391,416.65479 438.9836,417.50787 C 438.5147,417.79767 438.60945,419.91951 439.19415,422.22307 C 440.17755,426.09736 440.08136,426.52887 437.91107,427.97886 C 434.48468,430.26806 425.82313,432.06417 423.6971,430.92635 C 421.44755,429.72243 419.52578,425.89659 417.8744,419.33456 C 416.68108,414.59273 414.06536,411.36185 413.82088,414.32774 C 413.76563,414.99798 413.31022,413.79898 412.80886,411.6633 C 412.17212,408.95094 412.2502,407.35502 413.06784,406.36983 C 413.7538,405.5433 414.1602,402.183 414.04952,398.25288 C 413.83703,390.70775 415.96848,385.89326 420.41903,383.86545 C 422.79717,382.7819 422.92133,382.31212 422.92133,374.3978 C 422.92133,367.91272 423.57802,364.02021 425.88948,356.80432 C 429.26107,346.27891 432.68223,340.46454 439.19912,334.18422 C 443.59984,329.94323 443.68977,329.73492 442.43705,326.68422 C 440.64188,322.31252 441.81511,320.0518 448.13948,315.69604 C 455.29489,310.76791 461.54932,309.17962 470.22538,310.08739 C 478.08078,310.90929 481.27595,313.15751 482.61089,318.80221 C 483.4011,322.14357 483.82695,322.45259 489.9356,324.11754 C 495.38475,325.60274 497.14055,326.66963 500.92133,330.79289 C 504.98315,335.22264 510.74803,344.04636 509.58034,344.04636 C 509.32241,344.04636 507.97953,342.13386 506.59617,339.79636 C 499.25897,327.39854 488.34554,322.34214 471.23094,323.41099 C 456.68798,324.31923 446.44443,328.5173 438.82819,336.69047 C 433.05274,342.88825 431.16227,346.22154 427.78249,356.16631 C 425.16272,363.87479 424.57918,367.18268 424.50798,374.72864 L 424.42133,383.91093 L 421.32852,385.38751 C 419.60352,386.21106 417.50281,388.40856 416.57852,390.35635 C 414.75823,394.19233 414.30387,400.54601 415.92133,399.54636 C 416.51482,399.17956 416.96808,400.47673 417.03633,402.73734 L 417.15133,406.54636 L 417.91032,402.60312 C 418.78483,398.05971 422.80288,394.04636 426.47709,394.04636 C 429.2664,394.04636 429.62144,392.87229 427.39172,391.02178 C 425.23439,389.23137 421.44875,391.133 418.92277,395.27597 C 417.82609,397.07468 416.92712,397.85899 416.92507,397.01887 C 416.91896,394.52241 419.62381,391.41224 423.02695,390.00261 C 426.01522,388.76483 426.35389,388.84792 428.5027,391.34606 C 429.84839,392.91053 431.05205,395.97589 431.4208,398.77762 C 432.41782,406.3529 432.68148,406.88331 432.80533,401.56282 C 432.94224,395.68084 437.44197,385.83786 441.9828,381.48747 C 446.1446,377.50022 455.70768,376.79634 462.30794,379.99147 C 468.02242,382.7578 473.54205,388.84843 474.76724,393.73969 C 476.75537,401.67673 476.93543,403.04636 475.9907,403.04636 C 475.4579,403.04636 474.47481,400.26517 473.80605,396.86594 C 472.30792,389.25109 468.1823,384.26529 460.72463,381.05709 C 454.65189,378.44467 448.20637,378.71635 444.05709,381.75964 C 442.60742,382.8229 439.95082,386.35989 438.15354,389.6196 C 434.96762,395.39786 434.89246,395.81368 435.15354,406.21561 C 435.30082,412.08369 435.76633,417.22869 436.188,417.64894 C 437.80216,419.25768 439.22997,415.88839 439.86363,408.97533 C 440.39841,403.14093 440.95737,401.4356 442.83267,399.91707 C 446.15052,397.23044 449.04322,397.59068 454.69557,401.39444 L 459.67079,404.74251 L 472.04606,404.48786 C 488.7129,404.14491 519.70916,397.95711 524.44384,394.02768 C 525.10119,393.48213 528.12428,392.18071 531.16182,391.13565 L 536.68461,389.23553 L 537.83093,391.39094 C 538.46141,392.57642 539.15612,396.47136 539.37472,400.04636 C 539.76691,406.45987 539.81663,406.55792 543.11116,407.41517 C 545.67902,408.08334 547.37054,407.83821 550.43572,406.35372 C 552.62781,405.29208 554.28631,403.82105 554.12128,403.08478 C 553.95626,402.3485 553.12854,396.76353 552.28191,390.67373 C 551.43528,384.58393 550.05516,378.23899 549.21498,376.57386 C 545.98305,370.16859 540.46573,366.04636 535.12463,366.04636 C 533.53182,366.04636 530.81173,365.33953 529.07999,364.47562 C 525.49541,362.6874 520.5855,362.2379 516.92133,363.3625 L 514.42133,364.12979 L 516.92133,362.62351 C 520.33593,360.56617 524.59064,360.71335 529.78053,363.06832 C 532.1781,364.15624 535.23794,365.04636 536.58019,365.04636 C 542.52581,365.04636 549.85767,371.88575 551.67804,379.13013 C 552.28838,381.55906 553.53692,388.44254 554.45256,394.42676 C 556.18152,405.72642 555.94547,406.98666 552.09174,407.03105 C 551.05876,407.04294 550.90733,408.44069 551.41292,413.29636 C 551.89191,417.89653 551.69794,420.0364 550.67814,421.40274 C 548.83489,423.87235 530.12806,430.05341 527.44269,429.08014 C 524.73539,428.09893 523.13199,424.56607 522.74268,418.72437 C 522.42474,413.95362 522.4613,413.88842 526.18311,412.58816 L 529.94489,411.27394 L 531.84885,415.41015 L 533.75281,419.54636 L 533.83707,414.49636 C 533.88341,411.71886 534.48383,408.84013 535.17133,408.09918 C 536.19974,406.99082 536.06679,406.89158 534.42133,407.5394 C 518.77744,413.69835 502.24022,417.68476 488.42133,418.62801 C 475.13283,419.53505 476.20185,418.56459 476.48718,429.46189 C 476.80267,441.51099 476.02414,442.8645 469.62091,441.39924 C 466.29867,440.639 464.32099,440.67874 462.25078,441.54733 C 457.16242,443.68223 452.57405,444.04586 449.7899,442.53486 z M 456.56019,428.74361 C 456.24232,427.4771 454.86946,423.9896 453.50939,420.99361 C 450.40505,414.1553 450.01658,417.55318 452.99318,425.50885 C 455.01338,430.90831 457.71941,433.36228 456.56019,428.74361 z M 425.92133,417.86736 C 425.92133,415.03309 423.74892,409.04636 422.72044,409.04636 C 421.5763,409.04636 421.73483,413.21293 423.01916,416.89714 C 424.28232,420.52065 425.92133,421.06859 425.92133,417.86736 z M 507.42133,414.24384 C 515.12133,412.63056 525.13383,409.86844 529.67133,408.10579 L 537.92133,404.90099 L 537.90602,399.22367 C 537.88499,391.42737 537.25422,390.65604 532.35063,392.43027 C 530.18952,393.21222 525.87417,395.03524 522.76098,396.48144 C 512.58726,401.20752 480.20191,406.72567 468.21481,405.77558 L 462.00829,405.28365 L 461.36191,409.594 C 460.20015,417.34123 462.17994,418.19716 479.92133,417.61788 C 489.60884,417.30156 497.37502,416.34871 507.42133,414.24384 z M 416.92133,410.98734 C 416.92133,409.85488 416.49098,409.19429 415.965,409.51937 C 415.43902,409.84444 415.26217,410.771 415.57199,411.57839 C 416.36522,413.6455 416.92133,413.40191 416.92133,410.98734 z M 444.62054,325.41794 C 444.00806,323.42231 443.33124,322.31662 443.1165,322.96085 C 442.55263,324.65246 443.80194,329.04636 444.84678,329.04636 C 445.33482,329.04636 445.23301,327.41357 444.62054,325.41794 z M 455.92133,324.7975 C 459.37938,323.56209 465.22678,322.63798 471.67133,322.3084 C 477.30883,322.02009 481.92133,321.46034 481.92133,321.0645 C 481.92133,318.26682 479.24819,313.74963 476.86257,312.51598 C 470.59923,309.27707 456.42078,311.34924 448.82406,316.61377 C 444.7649,319.42677 444.2282,321.09309 445.93523,325.58292 C 446.70038,327.59541 447.37506,328.06723 448.68523,327.50604 C 449.64008,327.09705 452.89633,325.8782 455.92133,324.7975 z M 479.55619,398.97378 C 474.46606,394.96988 477.12717,386.70737 482.91518,388.54441 C 485.21651,389.27482 489.92133,394.65191 489.92133,396.55166 C 489.92133,398.64979 487.02255,401.04636 484.48476,401.04636 C 483.22322,401.04636 481.00536,400.1137 479.55619,398.97378 z M 486.72133,398.84636 C 488.65887,396.90882 488.11115,394.34084 485.28647,392.11894 C 481.62689,389.24032 479.10763,389.4559 478.28896,392.71774 C 477.75269,394.8544 478.16037,395.85522 480.32567,397.71774 C 483.35902,400.32692 484.95852,400.60917 486.72133,398.84636 z M 491.92133,398.20759 C 491.92133,397.67213 494.28383,396.91089 497.17133,396.51594 C 500.05883,396.12099 503.49624,395.39117 504.81002,394.89413 C 506.1238,394.39708 507.46076,394.25246 507.78106,394.57276 C 508.8147,395.6064 505.64528,396.89807 500.46915,397.55266 C 497.69285,397.90376 494.63383,398.4138 493.67133,398.68608 C 492.70883,398.95836 491.92133,398.74304 491.92133,398.20759 z M 510.86075,391.98578 C 508.31291,389.43794 508.56552,384.7259 511.27755,384.21113 C 512.29847,384.01735 513.64847,384.37766 514.27755,385.01183 C 515.13921,385.88045 514.96478,385.99097 513.57041,385.45989 C 509.79776,384.023 509.3351,390.12707 513.06535,392.12344 C 514.40695,392.84144 515.75623,392.75534 517.69044,391.82829 C 521.2999,390.09832 521.42282,386.1121 517.92133,384.34064 C 515.99067,383.36388 515.83484,383.07249 517.23707,383.0611 C 522.86277,383.01543 524.56006,387.49854 520.46678,391.59182 C 517.47168,394.58692 513.61986,394.74489 510.86075,391.98578 z M 426.56081,379.35251 C 425.35201,378.14371 425.92264,366.97899 427.3703,363.51424 C 428.90654,359.8375 430.91393,358.86939 430.93234,361.79636 C 430.93839,362.75886 431.15853,365.34636 431.42154,367.54636 C 431.85737,371.19189 431.782,371.10327 430.57108,366.54636 L 429.24241,361.54636 L 428.08187,364.36146 C 426.74607,367.60168 426.50525,378.04636 427.76634,378.04636 C 428.81556,378.04636 431.47201,375.05861 432.2119,373.04636 C 432.59356,372.00836 432.78775,372.19163 432.84238,373.64137 C 432.94427,376.34519 428.02554,380.81724 426.56081,379.35251 z M 520.92133,379.1241 C 520.92133,378.61686 522.40356,376.25436 524.21517,373.8741 C 527.56529,369.47242 532.61741,366.89262 536.1025,367.80399 C 538.79816,368.50892 538.31015,369.84334 535.54966,369.31564 C 532.08719,368.65375 527.29041,371.53152 524.28418,376.07425 C 521.59626,380.13597 520.92133,380.74808 520.92133,379.1241 z M 435.03733,370.79636 C 435.12463,369.10319 435.26651,368.97945 435.61066,370.29636 C 436.30115,372.93863 437.21101,372.45265 440.19789,367.84619 C 441.69578,365.5361 442.92133,364.08164 442.92133,364.61406 C 442.92133,365.14648 441.78011,367.26155 440.38528,369.31422 C 437.52614,373.52183 434.8587,374.26108 435.03733,370.79636 z M 446.98991,371.38184 C 444.39673,369.56551 444.26128,364.23578 446.4858,351.54636 C 449.15915,336.29666 449.53744,335.32816 453.30644,334.08428 C 458.28734,332.44043 481.83333,328.04636 485.66111,328.04636 C 489.97198,328.04636 494.83644,330.1536 497.6985,333.26086 C 498.95095,334.6206 501.34153,339.29109 503.01091,343.63973 C 504.68029,347.98838 507.17966,353.48895 508.56507,355.86322 C 511.07649,360.1672 511.13364,363.11719 508.70271,362.96741 C 507.69907,362.90558 507.69227,362.77914 508.67133,362.38408 C 510.46776,361.6592 510.23666,360.48325 507.47074,356.27492 C 506.12292,354.22421 503.6221,348.86941 501.91337,344.37535 C 496.3628,329.77705 492.41591,327.88013 474.22697,331.06897 C 458.90313,333.75551 451.80049,335.62668 450.79273,337.24263 C 450.34556,337.95968 449.70045,340.57136 449.35915,343.04636 C 449.01785,345.52136 448.36063,349.12136 447.89867,351.04636 C 445.99603,358.97472 445.7222,367.47184 447.3025,369.54636 C 448.82064,371.53929 448.84018,371.53839 452.82993,369.29168 C 460.39027,365.0343 471.92444,362.97063 490.42133,362.56591 L 507.42133,362.19394 L 491.63661,363.05418 C 472.83337,364.07892 462.43586,366.01868 454.73991,369.93763 C 449.61426,372.54772 448.85614,372.689 446.98991,371.38184 z M 434.17351,363.54636 C 434.16241,361.34636 434.35812,360.32861 434.60841,361.2847 C 434.8587,362.24079 434.86778,364.04079 434.62859,365.2847 C 434.3894,366.52861 434.18461,365.74636 434.17351,363.54636 z M 441.41494,355.04636 C 441.62363,350.37136 442.27516,345.42136 442.86278,344.04636 C 443.81132,341.82684 443.85916,341.93904 443.28918,345.04636 C 442.93608,346.97136 442.28455,351.92136 441.84134,356.04636 L 441.03551,363.54636 L 441.41494,355.04636 z M 480.92133,359.16505 C 480.92133,358.0773 486.83519,353.49836 490.2489,351.94297 C 491.69165,351.28561 494.28004,351.07867 496.30589,351.45873 C 499.84535,352.12273 505.94926,357.16348 505.88973,359.37328 C 505.87235,360.01847 504.69041,359.21757 503.2632,357.5935 L 500.66828,354.64064 L 498.7948,356.95429 C 497.6088,358.41894 496.92133,358.75025 496.92133,357.85714 C 496.92133,357.08121 497.41964,355.94805 498.02869,355.339 C 498.8385,354.52919 498.54478,353.9152 496.93555,353.05397 C 493.92038,351.4403 490.8806,352.403 485.92936,356.53965 C 481.46384,360.27049 480.92133,360.55489 480.92133,359.16505 z M 435.07923,357.04636 C 435.07923,355.67136 435.3062,355.10886 435.58361,355.79636 C 435.86102,356.48386 435.86102,357.60886 435.58361,358.29636 C 435.3062,358.98386 435.07923,358.42136 435.07923,357.04636 z M 490.92133,358.04636 C 489.62864,357.21096 489.65504,357.07487 491.11231,357.06167 C 492.04235,357.05325 493.08141,357.49636 493.42133,358.04636 C 494.20351,359.31196 492.8797,359.31196 490.92133,358.04636 z M 435.05751,350.14935 C 434.90222,347.41601 441.25749,339.04636 443.48828,339.04636 C 444.27646,339.04636 444.92133,339.48224 444.92133,340.01498 C 444.92133,340.54771 444.30457,340.74692 443.55076,340.45765 C 441.87166,339.81332 436.30754,346.58505 435.65751,350.064 L 435.19369,352.54636 L 435.05751,350.14935 z "
       style="fill:#2d2c2c"
       sodipodi:nodetypes="cssssssssssssssssssssssssscccsscccsssssssssssssssssssscccscccsssssssscccssssssssscccccssssssccssccsscccccsscccsccssccssccssssssccsssccsssccsssssccssssssssccssscccsssccssssccssssccsssssssssssssssscccsccssccssccccssscccssssccssccssccsssccc" />
    <path
       id="path2206"
       d="M 449.68359,441.97312 C 447.13966,440.49101 446.1781,438.21525 444.38379,429.42992 C 442.68448,421.1097 440.36062,416.20707 438.8379,417.72979 C 438.30826,418.25943 438.34447,420.03498 438.92628,422.06363 C 439.73876,424.89659 439.59907,425.81306 438.13101,427.28113 C 435.7673,429.64484 425.40622,431.84199 423.19647,430.44812 C 421.00554,429.06611 416.8056,417.47547 416.80026,412.79636 C 416.79524,408.40753 415.45904,407.85084 414.4,411.79636 L 413.66186,414.54636 L 412.81462,411.55906 C 412.21514,409.44537 412.35868,408.18044 413.30544,407.23368 C 414.26486,406.27426 414.50704,403.98836 414.16126,399.15562 C 413.59829,391.2874 415.32282,386.86204 419.98573,384.20926 C 422.78398,382.6173 422.90895,382.24388 422.91501,375.45632 C 422.92812,360.75136 428.83161,345.26554 438.07525,335.68853 L 443.72917,329.83071 L 442.31183,326.43853 C 441.53229,324.57284 441.14894,323.04636 441.45993,323.04636 C 441.77092,323.04636 442.49598,324.39636 443.07118,326.04636 C 443.64637,327.69636 444.5711,329.04636 445.12614,329.04636 C 445.68118,329.04636 445.86216,328.33456 445.52832,327.46457 C 445.19448,326.59459 444.92133,325.50173 444.92133,325.036 C 444.92133,324.57027 444.28717,323.55506 443.51208,322.77997 C 442.69642,321.96431 442.43652,320.8308 442.89504,320.08889 C 443.42709,319.22803 444.09377,320.07788 444.92509,322.67672 C 445.60591,324.80502 446.44607,326.84909 446.79213,327.21909 C 447.13819,327.58908 450.79633,326.73971 454.92133,325.33159 C 460.14125,323.5497 465.38543,322.62051 472.17133,322.27516 C 480.2425,321.86441 481.93224,321.50066 481.98472,320.16266 C 482.03097,318.98336 482.27335,319.10258 482.8812,320.60363 C 483.46503,322.04537 485.61525,323.18858 490.06781,324.42457 C 495.33938,325.8879 497.2003,327.03018 500.99565,331.13235 C 505.13114,335.60216 510.74449,344.04636 509.58034,344.04636 C 509.32241,344.04636 507.97953,342.13386 506.59617,339.79636 C 499.25897,327.39854 488.34554,322.34214 471.23094,323.41099 C 456.68798,324.31923 446.44443,328.5173 438.82819,336.69047 C 433.05274,342.88825 431.16227,346.22154 427.78249,356.16631 C 425.16272,363.87479 424.57918,367.18268 424.50798,374.72864 L 424.42133,383.91093 L 421.32852,385.38751 C 419.60352,386.21106 417.50281,388.40856 416.57852,390.35635 C 414.75823,394.19233 414.30387,400.54601 415.92133,399.54636 C 416.51525,399.1793 416.96482,400.4751 417.02842,402.73734 L 417.13551,406.54636 L 418.08112,402.32749 C 419.14286,397.59045 422.80561,394.04636 426.63952,394.04636 C 429.64605,394.04636 429.23083,392.06636 425.84236,390.24505 C 424.03467,389.2734 423.90116,389.02007 425.31535,389.24505 C 428.47379,389.74751 430.9467,394.2405 431.83199,401.08503 L 432.66772,407.54636 L 432.79453,402.06282 C 432.94253,395.66251 437.24609,386.02552 441.9828,381.48747 C 446.1446,377.50022 455.70768,376.79634 462.30794,379.99147 C 468.02242,382.7578 473.54205,388.84843 474.76724,393.73969 C 476.75537,401.67673 476.93543,403.04636 475.9907,403.04636 C 475.4579,403.04636 474.47481,400.26517 473.80605,396.86594 C 472.30792,389.25109 468.1823,384.26529 460.72463,381.05709 C 454.65189,378.44467 448.20637,378.71635 444.05709,381.75964 C 442.60742,382.8229 439.97148,386.35989 438.19945,389.6196 C 435.18944,395.15661 434.98227,396.17109 435.04913,405.04636 C 435.08849,410.27136 435.42116,415.61859 435.78841,416.92909 C 436.9609,421.11305 439.1456,416.80882 439.87202,408.8837 C 440.39847,403.14029 440.96278,401.43122 442.83267,399.91707 C 446.15052,397.23044 449.04322,397.59068 454.69557,401.39444 L 459.67079,404.74251 L 472.04606,404.48786 C 488.7129,404.14491 519.70916,397.95711 524.44384,394.02768 C 525.10119,393.48213 528.1009,392.18876 531.10986,391.15352 C 537.74272,388.87148 538.29975,389.38276 539.38702,398.75076 L 540.09778,404.87472 L 535.25956,407.05908 C 522.63215,412.76011 501.44934,417.80194 486.42133,418.68333 C 474.76287,419.36709 474.71872,419.38326 475.91572,422.53159 C 476.49682,424.06002 476.56148,427.47374 476.0765,431.02 C 475.63033,434.2825 475.63789,436.72154 476.0933,436.44008 C 477.41741,435.62173 477.04918,438.48926 475.57048,440.5115 C 474.36065,442.16604 473.73442,442.23673 469.57194,441.1886 C 465.74198,440.22421 464.2867,440.28468 461.30067,441.53233 C 457.15667,443.2638 452.22043,443.4511 449.68359,441.97312 z M 456.92133,429.40589 C 456.92133,428.50363 456.05765,425.91613 455.00203,423.65589 C 453.94642,421.39565 452.83554,418.75886 452.53342,417.79636 C 452.23129,416.83386 451.56071,416.04636 451.04323,416.04636 C 450.1085,416.04636 451.63807,422.88844 453.78174,428.29636 C 454.97843,431.31529 456.92133,432.00191 456.92133,429.40589 z M 424.84888,411.82683 C 424.16266,409.74757 423.16599,408.04636 422.63404,408.04636 C 421.21691,408.04636 422.36416,417.66754 424.02135,419.68071 C 425.29679,421.23013 425.45136,421.12459 425.75894,418.49435 C 425.94462,416.90647 425.53509,413.90608 424.84888,411.82683 z M 487.92133,417.49956 C 502.35611,416.3114 525.55227,410.78248 533.95653,406.52684 C 538.39993,404.27685 538.48507,404.14248 538.16265,399.88836 C 537.67499,393.45397 537.01642,391.04636 535.74402,391.04636 C 535.11746,391.04636 530.73853,392.82474 526.01307,394.99831 C 513.36662,400.81531 482.52067,406.59619 468.01399,405.86799 L 461.60665,405.54636 L 461.21248,410.13116 C 460.76769,415.30464 461.89138,416.80418 467.17749,418.09137 C 470.32494,418.85779 472.00173,418.80995 487.92133,417.49956 z M 524.50231,425.79636 C 523.77798,424.00886 522.90258,420.67731 522.55696,418.39292 C 521.95569,414.41869 522.0643,414.19217 525.07418,413.14292 C 529.87148,411.47057 530.498,411.73363 531.91039,416.01322 C 533.58091,421.07495 534.82488,420.37026 534.18833,414.7228 C 533.76048,410.92691 534.02885,410.10695 536.2782,408.3376 C 538.48049,406.60528 539.41349,406.45461 542.64015,407.31016 C 547.53178,408.60718 554.59329,405.65843 554.13667,402.50944 C 551.53684,384.58011 550.50194,379.12416 549.21841,376.5805 C 545.98287,370.16842 540.46791,366.04636 535.12463,366.04636 C 533.53182,366.04636 530.81173,365.33953 529.07999,364.47562 C 525.54109,362.71019 520.65572,362.24203 516.92133,363.31048 C 515.54633,363.70388 515.96574,363.32067 517.85336,362.45891 C 521.58249,360.75644 525.60644,361.11016 530.28564,363.55177 C 531.86101,364.37379 534.23796,365.04636 535.56776,365.04636 C 541.3492,365.04636 548.66328,370.60725 551.01401,376.79013 C 552.29641,380.16309 555.8838,404.29807 555.25418,405.31682 C 554.96426,405.78592 553.71557,406.55429 552.47931,407.02432 C 550.33635,407.83907 550.27918,408.14158 551.25287,413.51348 C 552.21726,418.83407 552.13896,419.27759 549.84775,421.47253 C 547.32651,423.88784 532.65621,429.04636 528.30856,429.04636 C 526.43695,429.04636 525.49249,428.23992 524.50231,425.79636 z M 479.55619,398.97378 C 474.46606,394.96988 477.12717,386.70737 482.91518,388.54441 C 485.21651,389.27482 489.92133,394.65191 489.92133,396.55166 C 489.92133,398.64979 487.02255,401.04636 484.48476,401.04636 C 483.22322,401.04636 481.00536,400.1137 479.55619,398.97378 z M 486.72133,398.84636 C 488.5022,397.06549 488.18534,394.95629 485.74702,392.36081 C 483.28635,389.74155 479.1483,389.29131 478.2821,391.5486 C 476.35205,396.57823 483.12908,402.43861 486.72133,398.84636 z M 491.92133,398.20759 C 491.92133,397.67213 494.28383,396.91089 497.17133,396.51594 C 500.05883,396.12099 503.49624,395.39117 504.81002,394.89413 C 506.1238,394.39708 507.46076,394.25246 507.78106,394.57276 C 508.8147,395.6064 505.64528,396.89807 500.46915,397.55266 C 497.69285,397.90376 494.63383,398.4138 493.67133,398.68608 C 492.70883,398.95836 491.92133,398.74304 491.92133,398.20759 z M 416.92749,397.23062 C 416.91696,394.98244 418.86764,392.14038 421.19425,391.01411 C 423.19258,390.04676 423.24376,390.07981 421.69261,391.33588 C 420.74181,392.1058 419.28208,394.04312 418.44877,395.64105 C 417.61545,397.23897 416.93088,397.95428 416.92749,397.23062 z M 510.86075,391.98578 C 507.94856,389.07359 508.56241,384.62883 511.92133,384.30632 C 514.38488,384.06979 514.38853,384.08025 512.17133,385.0241 C 509.52691,386.14982 509.33408,387.76293 511.47803,390.82385 C 513.50877,393.72313 516.41636,393.64224 519.45671,390.60189 C 522.31838,387.74021 521.85277,385.55984 518.08532,384.17997 C 516.23849,383.50355 515.9783,383.18004 517.23707,383.12531 C 520.14791,382.99875 522.92133,384.95122 522.92133,387.127 C 522.92133,389.94824 518.50624,394.04636 515.46678,394.04636 C 514.06678,394.04636 511.99407,393.1191 510.86075,391.98578 z M 426.36025,378.74777 C 426.05942,377.96383 425.97751,374.6728 426.17822,371.43439 L 426.54316,365.54636 L 426.73225,371.79636 C 426.83624,375.23386 427.25883,378.03947 427.67133,378.03105 C 429.21613,377.99951 430.85288,376.41177 431.80813,374.01813 C 432.7014,371.77979 432.80054,371.74421 432.85794,373.64137 C 432.95471,376.83977 427.32564,381.26354 426.36025,378.74777 z M 520.92133,379.1964 C 520.92133,377.68984 526.79541,370.18412 528.82421,369.09834 C 531.1863,367.83419 537.92133,367.69304 537.92133,368.90769 C 537.92133,369.38142 536.85408,369.565 535.54966,369.31564 C 532.08719,368.65375 527.29041,371.53152 524.28418,376.07425 C 521.62808,380.08788 520.92133,380.74405 520.92133,379.1964 z M 435.00028,371.29636 C 435.04744,370.25092 435.28229,370.04962 435.58361,370.79636 C 436.46125,372.97137 437.73267,372.172 440.35519,367.79636 C 441.75616,365.45886 442.90667,364.0044 442.91187,364.56422 C 442.91707,365.12405 441.78011,367.26155 440.38528,369.31422 C 437.72663,373.22679 434.86568,374.27985 435.00028,371.29636 z M 446.98991,371.38184 C 444.39673,369.56551 444.26128,364.23578 446.4858,351.54636 C 449.15915,336.29666 449.53744,335.32816 453.30644,334.08428 C 458.22356,332.46148 481.81126,328.04636 485.56389,328.04636 C 493.57313,328.04636 498.78581,332.47563 502.52616,342.45937 C 503.98646,346.35722 506.57172,352.12491 508.27118,355.27647 C 510.77826,359.92573 511.11983,361.24612 510.08197,362.27647 C 509.04575,363.3052 508.93132,363.20891 509.47941,361.76942 C 509.90679,360.64697 509.23655,358.62116 507.65975,356.26942 C 506.28682,354.22173 503.89731,349.17136 502.34973,345.04636 C 498.58033,334.99922 496.71384,332.51444 491.41647,330.49135 C 487.20007,328.8811 486.34226,328.87964 476.8164,330.46663 C 462.79829,332.802 453.34098,335.01902 451.4271,336.41848 C 449.8568,337.56671 449.49092,339.2393 446.79251,357.60504 C 445.48271,366.5197 446.0883,371.04636 448.59071,371.04636 C 449.48791,371.04636 452.51684,369.93187 455.32166,368.56971 C 463.10165,364.79136 473.79216,362.98795 490.92133,362.56433 L 506.42133,362.181 L 491.07533,363.06038 C 472.62431,364.11769 462.35025,366.06227 454.73991,369.93763 C 449.61426,372.54772 448.85614,372.689 446.98991,371.38184 z M 431.11628,368.54636 C 431.0959,366.89636 431.30334,366.1003 431.57727,366.77733 C 431.85119,367.45436 431.86786,368.80436 431.61432,369.77733 C 431.36078,370.7503 431.13666,370.19636 431.11628,368.54636 z M 434.17351,363.54636 C 434.16241,361.34636 434.35812,360.32861 434.60841,361.2847 C 434.8587,362.24079 434.86778,364.04079 434.62859,365.2847 C 434.3894,366.52861 434.18461,365.74636 434.17351,363.54636 z M 426.92133,364.23749 C 426.92133,362.77603 429.7428,359.5345 430.4229,360.2146 C 430.7887,360.5804 430.1505,361.81719 429.00466,362.96303 C 427.85883,364.10886 426.92133,364.68237 426.92133,364.23749 z M 441.03965,357.46303 C 441.10472,354.20886 441.49858,350.19636 441.91489,348.54636 C 442.33158,346.89488 442.44052,349.36717 442.15725,354.04636 C 441.55795,363.94577 440.86782,366.05559 441.03965,357.46303 z M 484.59041,356.19538 C 489.0701,351.82184 492.45686,350.46199 496.40299,351.4524 C 499.28806,352.17651 505.92364,357.71993 505.91636,359.39995 C 505.91363,360.03048 504.83321,359.19877 503.51543,357.55172 L 501.11946,354.55708 L 498.87489,356.55172 L 496.63031,358.54636 L 497.85684,356.21071 C 499.41446,353.24458 498.71717,352.59182 493.99107,352.59182 C 491.08879,352.59182 489.02023,353.50522 485.30168,356.42874 L 480.42133,360.26567 L 484.59041,356.19538 z M 491.42841,358.05781 C 491.07807,357.49095 491.47947,357.32331 492.36939,357.6648 C 494.10181,358.32959 494.41878,359.04636 492.98035,359.04636 C 492.46281,359.04636 491.76443,358.60151 491.42841,358.05781 z M 435.00028,349.14935 C 434.89022,347.2019 441.74208,339.04636 443.48828,339.04636 C 444.27646,339.04636 444.92133,339.48224 444.92133,340.01498 C 444.92133,340.54771 444.30457,340.74692 443.55076,340.45765 C 442.23737,339.95366 436.88166,345.77244 435.64556,349.04636 C 435.20104,350.22372 435.06224,350.24587 435.00028,349.14935 z M 447.92133,316.13634 C 451.22869,313.2294 459.41994,309.93835 462.85283,310.13722 C 463.71551,310.1872 461.99079,310.88739 459.02014,311.6932 C 456.04949,312.49902 451.54949,314.52053 449.02014,316.18546 L 444.42133,319.2126 L 447.92133,316.13634 z M 478.79377,313.29636 C 477.5499,311.7103 477.58527,311.67493 479.17133,312.9188 C 480.83708,314.22517 481.36681,315.04636 480.54377,315.04636 C 480.33612,315.04636 479.54862,314.25886 478.79377,313.29636 z M 467.67133,310.34063 C 468.90883,310.10227 470.93383,310.10227 472.17133,310.34063 C 473.40883,310.57898 472.39633,310.774 469.92133,310.774 C 467.44633,310.774 466.43383,310.57898 467.67133,310.34063 z "
       style="fill:#302a08"
       sodipodi:nodetypes="csssssscccsssscccsssssssssssssssssssscccsscccssscccsssssssssssscccsscccsssssssccssssccsssccsssscccsccssssssssssssssssssssccsssccssccsssssccsssccsssssssscccccsssccssssccssssccssssssssssssssscccsccssccssccssccssccsscccccsccccssccssssccssccccssccssc" />
    <path
       id="path2204"
       d="M 448.54898,440.76492 C 447.13723,439.35317 445.81796,436.20824 445.08817,432.51492 C 443.28352,423.38193 441.98339,419.25128 440.42197,417.68986 C 439.33285,416.60074 439.22413,415.47734 439.95966,412.91272 C 440.48858,411.06848 440.92133,407.86909 440.92133,405.80296 C 440.92133,401.55791 443.6741,398.04636 447.00186,398.04636 C 448.14616,398.04636 451.40866,399.58464 454.25186,401.46476 C 458.07792,403.99481 460.20095,404.76887 462.42133,404.44338 C 465.10748,404.04961 465.18594,404.10709 463.17133,404.99276 C 461.32769,405.80327 460.92133,406.77834 460.92133,410.39169 C 460.92133,417.86567 465.20511,419.35606 482.80676,418.00594 C 501.50763,416.57151 523.95348,411.50719 534.08011,406.43746 C 538.69722,404.12598 538.73469,404.06683 538.26806,399.82574 C 537.32381,391.24347 537.09775,390.78527 534.17023,391.52003 C 532.70499,391.88778 528.33707,393.70939 524.46374,395.56805 C 517.15796,399.07382 496.67662,403.80118 485.92133,404.46414 C 482.89633,404.65061 481.77133,404.60946 483.42133,404.3727 C 498.45797,402.21511 517.29622,397.53348 525.12381,394.0089 C 529.96395,391.8295 534.58262,390.04636 535.38751,390.04636 C 537.45449,390.04636 538.58822,392.70841 539.15587,398.89459 C 539.62639,404.0223 539.51828,404.32155 536.53398,406.1524 C 534.82202,407.20267 530.94633,409.01317 527.92133,410.17573 C 519.92584,413.24853 490.51688,419.03019 482.838,419.0389 C 479.21716,419.043 475.98339,419.31763 475.65184,419.64918 C 475.32029,419.98074 475.43021,421.25462 475.89611,422.48003 C 476.36201,423.70544 476.417,427.47458 476.01832,430.85589 C 475.61963,434.2372 475.68546,437.1344 476.16461,437.29412 C 477.4386,437.71878 476.02212,440.79371 474.23692,441.47875 C 473.39555,441.80161 470.9718,441.59849 468.85081,441.02737 C 465.83198,440.21448 464.19987,440.32097 461.33577,441.51766 C 455.98508,443.75332 451.25918,443.47512 448.54898,440.76492 z M 456.92133,428.89164 C 456.92133,427.77146 456.24941,425.66051 455.42818,424.20065 C 454.60695,422.74079 453.49309,420.30886 452.95293,418.79636 C 452.41278,417.28386 451.50969,416.04636 450.94608,416.04636 C 450.38247,416.04636 449.9262,416.15886 449.93215,416.29636 C 449.96503,417.05568 453.09881,426.95611 454.04302,429.28365 C 455.26808,432.30352 456.92133,432.07836 456.92133,428.89164 z M 422.17688,429.79636 C 420.45519,427.62105 416.5533,414.66173 416.75731,411.79636 C 417.01073,408.2369 415.36498,408.2369 414.3675,411.79636 L 413.59686,414.54636 L 412.9382,411.54636 C 412.52807,409.6783 412.75945,407.97111 413.55145,407.02175 C 414.42093,405.97952 414.63929,403.7138 414.24161,399.86067 C 413.92166,396.76061 413.95,393.06826 414.3046,391.65545 C 414.99182,388.91732 420.16306,383.04636 421.88763,383.04636 C 422.50534,383.04636 422.92133,380.09256 422.92133,375.70632 C 422.92133,360.59193 429.91162,342.83677 439.12271,334.55521 C 443.4957,330.62352 443.91311,329.89953 442.8992,328.00501 C 442.27225,326.83354 441.97966,325.6547 442.249,325.38535 C 442.51835,325.11601 443.03513,325.82955 443.39741,326.971 C 444.37375,330.04718 446.04658,329.48848 445.41738,326.29636 C 444.89986,323.6708 444.92191,323.6529 445.90477,325.90088 C 446.6558,327.61863 447.40574,328.05812 448.67777,327.52594 C 453.1519,325.6541 462.31658,323.05189 464.26042,323.10142 C 465.44892,323.13171 463.20247,324.0003 459.2683,325.03163 C 449.63936,327.55583 444.97319,330.08974 439.0543,336.00863 C 430.3105,344.75243 423.92133,361.86731 423.92133,376.54581 C 423.92133,383.2353 423.75054,383.80315 421.41903,384.86545 C 417.79291,386.51763 414.92945,391.80448 414.92507,396.85538 C 414.9228,399.47423 415.31357,400.92198 415.92133,400.54636 C 416.50475,400.18579 416.92133,401.20264 416.92133,402.98734 C 416.92133,407.28324 418.38136,406.81047 418.60724,402.44144 C 418.84141,397.91199 420.9741,395.53007 425.91932,394.27484 C 430.49603,393.11315 430.92133,393.69083 430.92133,401.06913 C 430.92133,408.20855 432.58386,408.0146 433.36393,400.78418 C 434.14336,393.5598 438.89128,383.8158 443.15789,380.68438 C 444.90576,379.40156 447.97673,378.53027 451.65789,378.27278 C 456.52469,377.93236 458.26024,378.31122 462.81374,380.708 C 469.92411,384.45063 473.49721,389.05694 475.29342,396.79636 C 476.09121,400.23386 476.33386,403.04636 475.83264,403.04636 C 475.33142,403.04636 474.92133,402.22804 474.92133,401.22786 C 474.92133,396.89495 471.67086,388.94974 468.67091,385.94979 C 462.13732,379.41619 452.01965,377.21487 444.99199,380.79791 C 440.21631,383.2328 435.29996,392.52537 434.37454,400.86636 C 433.59009,407.93676 435.12365,417.68534 437.29503,419.43147 C 439.63741,421.3151 440.10275,425.57567 438.15516,427.30662 C 434.58074,430.48343 424.02276,432.12858 422.17688,429.79636 z M 424.84888,411.82683 C 424.16266,409.74757 423.16599,408.04636 422.63404,408.04636 C 421.21691,408.04636 422.36416,417.66754 424.02135,419.68071 C 425.29679,421.23013 425.45136,421.12459 425.75894,418.49435 C 425.94462,416.90647 425.53509,413.90608 424.84888,411.82683 z M 524.50231,425.79636 C 523.77798,424.00886 522.90258,420.67731 522.55696,418.39292 C 521.95569,414.41869 522.0643,414.19217 525.07418,413.14292 C 529.88859,411.46461 530.51171,411.7358 531.81183,416.07522 C 533.35365,421.22134 534.65504,420.46108 534.32458,414.60729 C 534.10869,410.78287 534.46414,409.76455 536.60192,408.08297 C 538.62072,406.49498 539.54732,406.31101 541.16536,407.17696 C 543.10696,408.21607 547.13315,407.97228 551.42133,406.55593 C 553.05985,406.01474 553.13446,406.08225 551.83412,406.92944 C 550.4855,407.80809 550.39928,408.80419 551.26054,413.5558 C 552.21618,418.82808 552.13534,419.28106 549.84775,421.47253 C 547.32651,423.88784 532.65621,429.04636 528.30856,429.04636 C 526.43695,429.04636 525.49249,428.23992 524.50231,425.79636 z M 468.64903,405.32463 C 470.42426,405.10372 473.57426,405.10009 475.64903,405.31656 C 477.72379,405.53304 476.27133,405.71378 472.42133,405.71822 C 468.57133,405.72266 466.87379,405.54554 468.64903,405.32463 z M 554.30283,403.70087 C 554.23765,402.51589 553.43543,396.59636 552.52011,390.54636 C 549.92855,373.41692 546.2534,367.90626 536.18547,366.05365 C 530.4618,365.00043 518.57359,360.62776 523.75117,361.48012 C 525.58257,361.78162 528.50757,362.66442 530.25117,363.44191 C 531.99476,364.2194 535.15066,365.10197 537.26429,365.40316 C 542.16833,366.102 547.38801,370.08065 549.92509,375.05373 C 551.01701,377.19406 552.57378,383.67109 553.38459,389.44713 C 554.19541,395.22317 555.13433,401.04684 555.47109,402.3886 C 555.80785,403.73036 555.70942,405.05929 555.25236,405.34177 C 554.79529,405.62426 554.368,404.88585 554.30283,403.70087 z M 481.32584,399.89185 C 480.87181,399.15722 481.05286,399.00962 481.82366,399.486 C 484.12138,400.90606 487.92133,399.1709 487.92133,396.70162 C 487.92133,391.92541 479.75598,387.70771 478.22637,391.69382 C 477.87866,392.59993 478.10424,394.73743 478.72765,396.44382 C 479.7594,399.26791 479.72921,399.37215 478.39123,397.60523 C 475.39722,393.65138 477.1596,389.04636 481.66678,389.04636 C 486.6309,389.04636 490.90222,396.66547 487.72133,399.84636 C 486.19355,401.37414 482.25924,401.40212 481.32584,399.89185 z M 498.92133,396.51005 C 502.49633,395.77285 506.09633,395.19539 506.92133,395.22682 C 509.58724,395.32836 498.52305,397.85443 495.42133,397.85239 C 493.77133,397.85131 495.34633,397.24726 498.92133,396.51005 z M 510.99391,391.4115 C 509.85399,389.96233 508.92133,388.25233 508.92133,387.6115 C 508.92133,386.18776 510.95821,384.04636 512.31246,384.04636 C 512.85758,384.04636 512.43008,384.69596 511.36246,385.48991 C 509.56104,386.82956 509.53169,387.13543 510.95475,389.73991 C 512.99066,393.46603 516.23532,393.82327 519.38995,390.66865 C 522.1483,387.9103 521.89905,385.49145 518.75359,384.49312 C 517.66295,384.14697 517.01548,383.61888 517.31476,383.3196 C 517.61404,383.02031 519.02034,383.53644 520.43985,384.46654 C 523.43333,386.42794 523.09723,389.42684 519.56483,392.27412 C 516.48647,394.75543 513.37817,394.4426 510.99391,391.4115 z M 426.2414,373.04636 C 426.2414,369.47136 426.4229,368.00886 426.64473,369.79636 C 426.86655,371.58386 426.86655,374.50886 426.64473,376.29636 C 426.4229,378.08386 426.2414,376.62136 426.2414,373.04636 z M 429.67133,377.06917 C 430.90883,375.91378 431.92133,374.46098 431.92133,373.84074 C 431.92133,373.2205 432.18279,372.97449 432.50235,373.29405 C 433.41351,374.20521 431.16771,377.73813 429.19911,378.49048 C 427.84608,379.00757 427.9589,378.66799 429.67133,377.06917 z M 522.8652,376.12519 C 526.67668,370.77246 530.76526,368.03581 534.74806,368.17153 L 538.42133,368.29669 L 534.20731,368.98397 C 529.68167,369.72208 526.74309,371.84665 524.13048,376.26944 C 523.22828,377.79675 522.1065,379.04636 521.63763,379.04636 C 521.16876,379.04636 521.72117,377.73183 522.8652,376.12519 z M 445.95651,370.1121 C 445.38716,369.04826 444.98469,366.23576 445.06213,363.8621 C 445.20254,359.55835 445.20471,359.5611 445.84526,364.85331 C 446.20466,367.82274 447.13369,370.56889 447.95446,371.088 C 448.89357,371.68195 448.98426,372.02124 448.20651,372.03105 C 447.53836,372.03947 446.52587,371.17594 445.95651,370.1121 z M 464.19216,365.44219 C 464.52445,365.1099 465.38695,365.07438 466.10883,365.36325 C 466.90656,365.68247 466.66961,365.91943 465.50466,365.96741 C 464.4505,366.01083 463.85987,365.77449 464.19216,365.44219 z M 468.67133,364.38408 C 469.35883,364.10667 470.48383,364.10667 471.17133,364.38408 C 471.85883,364.66149 471.29633,364.88847 469.92133,364.88847 C 468.54633,364.88847 467.98383,364.66149 468.67133,364.38408 z M 474.67133,363.34063 C 475.90883,363.10227 477.93383,363.10227 479.17133,363.34063 C 480.40883,363.57898 479.39633,363.774 476.92133,363.774 C 474.44633,363.774 473.43383,363.57898 474.67133,363.34063 z M 489.67133,362.30912 C 492.55883,362.10712 497.28383,362.10712 500.17133,362.30912 C 503.05883,362.51112 500.69633,362.6764 494.92133,362.6764 C 489.14633,362.6764 486.78383,362.51112 489.67133,362.30912 z M 483.42133,357.13727 C 487.67462,352.50194 491.47474,350.74 495.56419,351.50718 C 499.10018,352.17054 505.94484,357.40259 505.88965,359.39995 C 505.87223,360.03048 504.93469,359.30886 503.80624,357.79636 C 501.41985,354.5978 500.18378,354.37628 498.22641,356.79636 C 496.95859,358.36388 496.92947,358.30281 497.94718,356.21071 C 499.39603,353.23233 498.69583,352.59182 493.99107,352.59182 C 491.06154,352.59182 489.05515,353.49405 485.30168,356.49928 C 480.72985,360.15972 480.61098,360.20005 483.42133,357.13727 z M 446.15333,356.04636 C 446.15333,354.12136 446.35913,353.33386 446.61066,354.29636 C 446.86218,355.25886 446.86218,356.83386 446.61066,357.79636 C 446.35913,358.75886 446.15333,357.97136 446.15333,356.04636 z M 491.42841,358.05781 C 491.07807,357.49095 491.47947,357.32331 492.36939,357.6648 C 494.10181,358.32959 494.41878,359.04636 492.98035,359.04636 C 492.46281,359.04636 491.76443,358.60151 491.42841,358.05781 z M 447.00028,350.62969 C 446.95686,349.57553 447.19321,348.9849 447.5255,349.31719 C 447.85779,349.64949 447.89332,350.51199 447.60444,351.23386 C 447.28522,352.03159 447.04826,351.79464 447.00028,350.62969 z M 503.03244,346.93525 C 502.41637,345.16799 502.08731,343.54704 502.3012,343.33316 C 502.51509,343.11927 503.19415,344.39021 503.81022,346.15747 C 504.42629,347.92473 504.75535,349.54568 504.54146,349.75956 C 504.32757,349.97345 503.64851,348.70251 503.03244,346.93525 z M 448.11628,345.54636 C 448.0959,343.89636 448.30334,343.1003 448.57727,343.77733 C 448.85119,344.45436 448.86786,345.80436 448.61432,346.77733 C 448.36078,347.7503 448.13666,347.19636 448.11628,345.54636 z M 438.92133,342.66881 C 438.92133,342.46115 439.70883,341.67365 440.67133,340.91881 C 442.25739,339.67493 442.29276,339.7103 441.04889,341.29636 C 439.74252,342.96211 438.92133,343.49184 438.92133,342.66881 z M 500.04523,338.97192 C 499.45576,337.28098 497.49924,334.51122 495.6974,332.81689 C 493.57532,330.82142 493.18939,330.14243 494.60179,330.88929 C 497.08659,332.20322 500.3261,336.47435 501.35752,339.79636 C 502.41669,343.20775 501.27091,342.48792 500.04523,338.97192 z M 450.92133,335.81879 C 452.4483,334.17167 475.47834,328.92233 480.03606,329.18254 L 482.42133,329.31872 L 479.92133,329.746 C 468.90166,331.62937 452.1445,335.4368 450.92133,336.33515 C 449.588,337.31442 449.588,337.25704 450.92133,335.81879 z M 503.32632,334.79636 L 501.42133,332.54636 L 503.67133,334.45135 C 505.78577,336.24157 506.37657,337.04636 505.57632,337.04636 C 505.38656,337.04636 504.37406,336.03386 503.32632,334.79636 z M 498.84564,329.29636 L 496.42133,326.54636 L 499.17133,328.97067 C 500.68383,330.30405 501.92133,331.54155 501.92133,331.72067 C 501.92133,332.50495 501.11153,331.86665 498.84564,329.29636 z M 485.92133,329.04636 C 482.50372,328.32699 482.49195,328.3082 485.42133,328.24829 C 487.07133,328.21454 489.32133,328.57367 490.42133,329.04636 C 492.82601,330.07969 490.83046,330.07969 485.92133,329.04636 z M 486.92133,324.49465 C 484.44633,323.71479 480.62133,322.99424 478.42133,322.89344 L 474.42133,322.71015 L 478.17133,322.31789 C 480.83237,322.03954 481.94174,321.43498 481.99162,320.236 C 482.04854,318.86761 482.20907,318.92312 482.83593,320.52794 C 483.32934,321.79109 485.56982,323.11512 489.01565,324.1799 C 491.98877,325.09861 493.74633,325.8643 492.92133,325.88143 C 492.09633,325.89855 489.39633,325.2745 486.92133,324.49465 z M 443.19516,322.21559 C 442.51919,321.79783 442.36741,320.94263 442.83495,320.18612 C 443.46217,319.17127 443.79131,319.26515 444.3057,320.60564 C 445.10444,322.68712 444.7618,323.18383 443.19516,322.21559 z M 467.19216,322.44219 C 467.52445,322.1099 468.38695,322.07438 469.10883,322.36325 C 469.90656,322.68247 469.66961,322.91943 468.50466,322.96741 C 467.4505,323.01083 466.85987,322.77449 467.19216,322.44219 z M 449.80215,314.71091 C 451.17121,313.04052 461.64211,309.43381 462.53379,310.32548 C 462.78907,310.58077 460.8432,311.32673 458.20964,311.98317 C 455.57607,312.63961 452.29633,313.90096 450.92133,314.78617 C 448.58864,316.28794 448.51374,316.2829 449.80215,314.71091 z M 478.79377,313.29636 C 477.5499,311.7103 477.58527,311.67493 479.17133,312.9188 C 480.83708,314.22517 481.36681,315.04636 480.54377,315.04636 C 480.33612,315.04636 479.54862,314.25886 478.79377,313.29636 z "
       style="fill:#030302"
       sodipodi:nodetypes="csssssssssssssssssssssssssssssccsssssccscccsssssssssssssssssssssssssssssssssssccsssccsssssssssssccssccsssssssssccsssssssccssccsssssssssccssccssscccccssccssssccssccssccssccssccsssssssccssccssccssccsssccssccssccssscccccsccccsccccsccsscccccssssccssccssccsssccssc" />
    <text
       xml:space="preserve"
       style="font-size:11.75293922px;font-style:normal;font-variant:normal;font-weight:normal;font-stretch:normal;text-align:start;line-height:100%;writing-mode:lr-tb;text-anchor:start;fill:#000000;fill-opacity:1;stroke:none;stroke-width:1px;stroke-linecap:butt;stroke-linejoin:miter;stroke-opacity:1;font-family:Impact"
       x="385.13419"
       y="402.75854"
       id="text2272"
       sodipodi:linespacing="100%"
       transform="matrix(0.9823623,-0.1869875,0.1869875,0.9823623,0,0)"><tspan
         sodipodi:role="line"
         id="tspan2166"
         x="385.13419"
         y="402.75854">tam</tspan></text>
  </g>
</svg>
