<?xml version="1.0" encoding="UTF-8" standalone="no"?>
<!-- Created with Inkscape (http://www.inkscape.org/) -->
<svg
   xmlns:dc="http://purl.org/dc/elements/1.1/"
   xmlns:cc="http://creativecommons.org/ns#"
   xmlns:rdf="http://www.w3.org/1999/02/22-rdf-syntax-ns#"
   xmlns:svg="http://www.w3.org/2000/svg"
   xmlns="http://www.w3.org/2000/svg"
   xmlns:xlink="http://www.w3.org/1999/xlink"
   xmlns:sodipodi="http://sodipodi.sourceforge.net/DTD/sodipodi-0.dtd"
   xmlns:inkscape="http://www.inkscape.org/namespaces/inkscape"
   width="744.09448819"
   height="1052.3622047"
   id="svg2"
   sodipodi:version="0.32"
   inkscape:version="0.46"
   sodipodi:docbase="C:\Documents and Settings\DARIOSKY\Desktop\Dariosky\MION\eclipseWorkspace\Tam\media"
   sodipodi:docname="matita.svg"
   inkscape:output_extension="org.inkscape.output.svg.inkscape"
   inkscape:export-filename="C:\Documents and Settings\DARIOSKY\Desktop\Dariosky\MION\eclipseWorkspace\Tam\media\matita.png"
   inkscape:export-xdpi="12.609263"
   inkscape:export-ydpi="12.609263">
  <defs
     id="defs4">
    <inkscape:perspective
       sodipodi:type="inkscape:persp3d"
       inkscape:vp_x="0 : 526.18109 : 1"
       inkscape:vp_y="0 : 1000 : 0"
       inkscape:vp_z="744.09448 : 526.18109 : 1"
       inkscape:persp3d-origin="372.04724 : 350.78739 : 1"
       id="perspective33" />
    <linearGradient
       inkscape:collect="always"
       id="linearGradient3180">
      <stop
         style="stop-color:#e8dd99;stop-opacity:1;"
         offset="0"
         id="stop3182" />
      <stop
         style="stop-color:#ffffff;stop-opacity:1"
         offset="1"
         id="stop3184" />
    </linearGradient>
    <linearGradient
       id="linearGradient2174">
      <stop
         style="stop-color:#ffffff;stop-opacity:1;"
         offset="0"
         id="stop2176" />
      <stop
         style="stop-color:#999999;stop-opacity:1"
         offset="1"
         id="stop2178" />
    </linearGradient>
    <linearGradient
       inkscape:collect="always"
       xlink:href="#linearGradient3180"
       id="linearGradient3178"
       x1="-272.14285"
       y1="392.36218"
       x2="-290"
       y2="460.93362"
       gradientUnits="userSpaceOnUse" />
    <linearGradient
       inkscape:collect="always"
       xlink:href="#linearGradient3180"
       id="linearGradient3201"
       gradientUnits="userSpaceOnUse"
       x1="-272.14285"
       y1="392.36218"
       x2="-290"
       y2="460.93362" />
    <linearGradient
       inkscape:collect="always"
       xlink:href="#linearGradient3180"
       id="linearGradient3203"
       gradientUnits="userSpaceOnUse"
       x1="-272.14285"
       y1="392.36218"
       x2="-290"
       y2="460.93362" />
    <radialGradient
       inkscape:collect="always"
       xlink:href="#linearGradient2174"
       id="radialGradient3205"
       cx="151.29611"
       cy="377.93524"
       fx="151.29611"
       fy="377.93524"
       r="113.78937"
       gradientTransform="matrix(-2.3400222,-1.9697696e-3,1.0044525e-3,-1.1932109,475.87891,757.17589)"
       gradientUnits="userSpaceOnUse" />
  </defs>
  <sodipodi:namedview
     id="base"
     pagecolor="#5c79ff"
     bordercolor="#666666"
     borderopacity="1.0"
     inkscape:pageopacity="0"
     inkscape:pageshadow="2"
     inkscape:zoom="0.35"
     inkscape:cx="-146.25052"
     inkscape:cy="963.7412"
     inkscape:document-units="px"
     inkscape:current-layer="layer1"
     inkscape:window-width="1158"
     inkscape:window-height="729"
     inkscape:window-x="72"
     inkscape:window-y="99"
     showgrid="false" />
  <metadata
     id="metadata7">
    <rdf:RDF>
      <cc:Work
         rdf:about="">
        <dc:format>image/svg+xml</dc:format>
        <dc:type
           rdf:resource="http://purl.org/dc/dcmitype/StillImage" />
      </cc:Work>
    </rdf:RDF>
  </metadata>
  <g
     inkscape:label="Livello 1"
     inkscape:groupmode="layer"
     id="layer1">
    <g
       id="g3187"
       transform="translate(362.85714,-12.857143)"
       inkscape:export-filename="C:\Documents and Settings\DARIOSKY\Desktop\Dariosky\MION\eclipseWorkspace\Tam\media\matita.png"
       inkscape:export-xdpi="30.85"
       inkscape:export-ydpi="30.85">
      <path
         sodipodi:nodetypes="cccccccccccccccc"
         id="path2198"
         d="M -152.71875,276.28125 L -149.49442,287.72768 L -141.27009,295.42411 L -126.25,297.78125 L -125.62054,286.29018 L -139.99554,272.19643 L -152.71875,276.28125 z M -152.84375,276.46875 L -280.15625,383.15625 L -278.0625,399.9375 L -268.25,411.125 L -247.82589,406.05804 L -126.42857,297.96429 L -141.625,295 L -149.34375,287.3125 L -152.84375,276.46875 z "
         style="opacity:1;color:#000000;fill:url(#linearGradient3201);fill-opacity:1;fill-rule:evenodd;stroke:#000000;stroke-width:1.38515425px;stroke-linecap:butt;stroke-linejoin:miter;marker:none;marker-start:none;marker-mid:none;marker-end:none;stroke-miterlimit:4;stroke-dasharray:none;stroke-dashoffset:0;stroke-opacity:1;visibility:visible;display:inline;overflow:visible;enable-background:accumulate" />
      <path
         id="path2202"
         d="M -280.85842,384.54696 L -310.94159,432.81994 L -256.37212,414.63013"
         style="fill:url(#linearGradient3203);fill-opacity:1;fill-rule:evenodd;stroke:#000000;stroke-width:1.38515425px;stroke-linecap:butt;stroke-linejoin:miter;stroke-opacity:1" />
      <path
         d="M -302.69181,425.29206 C -302.8703,425.5141 -303.69096,426.94701 -303.48525,426.44922 C -302.73572,425.94782 -306.57593,426.75829 -303.85435,426.66906 C -306.9702,425.7488 -302.49118,427.04974 -304.39492,426.62667 C -304.60843,427.50347 -304.97207,426.93635 -304.73983,427.90477 C -305.57858,427.88686 -307.74741,427.3193 -305.46671,428.07743 C -305.35869,427.47066 -306.52882,427.92956 -305.75078,428.32171 C -306.56277,428.54953 -309.4887,428.20947 -306.53711,428.64174 C -309.11348,428.40366 -306.86654,427.9997 -306.3613,428.78126 C -306.97984,428.50879 -306.65429,428.88659 -306.90754,429.00321 C -307.08845,429.01613 -306.90053,429.50171 -307.08108,429.51894 C -307.27377,429.53734 -307.7022,429.11198 -307.61172,429.28311 C -307.46566,429.55937 -307.1652,429.73365 -306.88964,429.88103 C -306.73399,429.96428 -307.12224,429.61547 -307.23855,429.48269 C -307.78736,429.85082 -307.56913,429.64985 -307.94283,429.82657 C -307.535,430.14765 -307.84518,430.33131 -307.75169,430.58311 C -308.92626,431.26781 -307.28082,429.7326 -308.04865,430.92219 C -308.08366,430.98133 -307.94399,431.07061 -307.88127,431.04254 C -308.28009,431.89204 -308.49501,431.71382 -308.80854,431.64932 C -308.4623,432.27551 -308.31135,431.48416 -308.62769,432.13111 C -308.83027,432.54543 -309.45513,431.4837 -309.86026,431.70409 L -309.86026,431.70409 C -310.01147,431.78636 -310.47182,431.87046 -310.37616,431.72733 C -309.81409,430.88627 -310.21282,431.69323 -309.83149,431.18944 C -309.79982,430.42742 -309.42246,430.87443 -309.63115,431.23908 C -309.57246,430.74304 -309.37259,430.56616 -309.44975,430.41359 C -309.27075,431.33998 -309.5909,428.74238 -308.98991,430.17239 C -309.75152,429.85362 -308.35806,429.67461 -309.37501,429.62629 C -307.68501,429.3691 -309.60982,429.78571 -309.37584,429.20502 C -309.13373,428.60417 -308.38582,429.35005 -308.83242,428.90774 C -308.31864,428.66641 -308.08112,428.74467 -308.59053,428.44951 C -308.21727,428.27496 -307.95067,428.22393 -307.97814,427.86216 C -307.77747,427.62846 -304.42149,428.02158 -307.50743,427.69338 C -303.73166,428.51326 -309.25856,427.95748 -307.18825,427.65101 C -307.74816,426.4905 -306.99886,428.20081 -306.67631,427.08676 C -306.64572,426.61666 -304.79872,426.92794 -305.26738,426.97599 C -305.72974,427.02339 -306.72648,427.56743 -306.65549,427.10808 C -306.64143,427.0171 -306.59933,426.93276 -306.57124,426.8451 C -305.98392,426.94754 -305.9159,426.66631 -305.63217,426.19582 C -304.86398,425.82325 -302.48135,425.60685 -304.91128,425.84269 C -301.92162,425.00233 -305.30788,426.67728 -304.87135,425.70132 C -304.51607,425.453 -304.79714,425.60505 -304.17265,424.9877 C -303.79253,424.61194 -302.35692,424.87546 -302.69181,425.29206 z "
         id="path2214"
         style="fill:#000000;fill-opacity:1;fill-rule:nonzero;stroke:none;stroke-width:1px;stroke-linecap:butt;stroke-linejoin:miter;stroke-opacity:1" />
      <path
         d="M -303.40096,424.80731 C -302.99201,425.567 -303.96021,427.12073 -304.05068,426.06056 C -303.70651,425.61644 -304.79235,426.24417 -304.26267,426.6631 C -304.71294,426.63102 -304.88758,426.98912 -304.91153,427.17759 C -305.68267,427.64037 -304.53449,428.26337 -305.64658,428.19383 C -305.23474,427.79962 -305.37029,428.16364 -306.02927,428.33727 C -306.21544,428.91188 -305.86223,428.96291 -306.31486,429.22547 C -305.67154,429.77945 -306.72024,429.05938 -306.34176,429.55493 C -305.9923,430.01249 -308.09431,429.98108 -307.96462,429.42014 L -307.96462,429.42014 C -307.84063,428.8839 -308.26571,429.15607 -307.86627,428.88537 C -307.35167,428.6654 -307.64973,428.35343 -307.12181,428.02694 C -306.17512,427.51986 -307.68385,427.30479 -306.54334,426.98494 C -306.36159,426.93272 -306.15971,426.92649 -305.9981,426.82831 C -306.52413,426.1467 -305.80718,426.72917 -305.94836,425.9179 C -305.67467,424.77029 -305.20705,426.5916 -305.31346,425.5492 C -305.20946,424.94595 -304.83352,425.23739 -304.85327,425.24402 C -305.36155,425.41474 -303.65511,424.3352 -303.40096,424.80731 z "
         id="path2216"
         style="fill:#000000;fill-opacity:1;fill-rule:nonzero;stroke:none;stroke-width:1px;stroke-linecap:butt;stroke-linejoin:miter;stroke-opacity:1" />
      <path
         d="M -300.34632,429.06238 C -301.493,428.95405 -302.40592,429.7601 -303.54517,429.52993 C -304.12505,430.17664 -305.13872,429.64978 -305.29448,430.39394 C -306.00136,429.76565 -305.87069,430.28977 -306.97688,430.18883 C -305.80098,430.55818 -305.96925,430.09328 -306.62613,430.2427 C -307.76924,430.50272 -305.37007,430.91972 -306.90147,430.58166 C -306.61355,430.51941 -306.68677,430.97171 -307.57821,430.84683 C -307.49096,430.82604 -307.90585,431.07648 -308.24166,431.21563 C -310.68826,430.74971 -307.85543,431.56182 -308.47992,430.99216 C -309.31241,431.29809 -308.94671,430.7887 -308.3307,431.60252 C -308.13478,431.86136 -308.99203,431.479 -309.25057,431.2827 C -309.53783,431.06458 -309.93633,430.90637 -309.95652,430.54624 L -309.95652,430.54624 C -309.97794,430.16447 -309.72519,430.30353 -309.96302,430.53677 C -309.35916,429.88558 -306.92777,430.01876 -309.26006,429.77639 C -308.98797,430.30946 -308.7751,429.87385 -308.34517,429.72202 C -307.90489,430.18872 -308.07159,429.94366 -307.80659,429.27563 C -307.57284,429.57235 -308.05215,429.68714 -306.19708,429.08134 C -307.81344,430.13481 -306.85367,428.54735 -306.16728,429.08493 C -305.58373,428.95754 -304.88679,428.78625 -304.42732,428.46657 C -303.30317,428.47825 -302.38642,428.2461 -301.2814,427.91835 C -300.78057,427.76981 -299.82624,429.11151 -300.34632,429.06238 z "
         id="path2218"
         style="fill:#000000;fill-opacity:1;fill-rule:nonzero;stroke:none;stroke-width:1px;stroke-linecap:butt;stroke-linejoin:miter;stroke-opacity:1" />
      <path
         d="M -301.46434,426.83666 C -302.27003,427.03712 -302.17124,427.40391 -302.44087,427.74463 C -303.06264,428.22039 -303.27703,428.37656 -303.65514,428.76171 C -304.08562,428.56839 -304.55315,428.71268 -304.47235,429.18445 C -304.95879,429.7396 -305.21586,428.99769 -304.8955,429.90372 C -305.54082,430.11001 -305.33737,430.04626 -305.54862,429.93109 C -306.176,430.14245 -305.52114,430.74642 -306.54863,430.70952 C -307.33939,429.52073 -305.85161,432.53753 -307.18532,430.97449 C -307.08912,431.06544 -306.99292,431.15639 -306.89672,431.24732 C -306.46084,431.65941 -308.91828,430.16286 -308.36978,430.40562 L -308.36978,430.40562 C -308.33337,430.42173 -308.29697,430.43784 -308.26057,430.45395 C -307.87227,430.0781 -307.91351,430.28856 -307.94608,429.76302 C -306.68939,430.15097 -307.74988,429.34995 -306.8226,429.5856 C -306.14631,429.20045 -307.11712,428.66872 -306.22194,429.14988 C -306.15184,428.83479 -306.22557,428.85139 -305.89777,428.6389 C -305.84611,427.87871 -305.33497,427.88166 -304.99453,427.86655 C -305.01745,427.06625 -304.36182,427.30548 -303.59572,427.10366 C -304.27318,426.50264 -303.798,427.03709 -303.27051,426.88589 C -303.1796,426.85983 -303.43627,426.76902 -303.46432,426.67871 C -303.5894,426.27602 -302.68013,426.30522 -302.56116,425.98094 C -302.39173,425.5192 -300.98704,426.71792 -301.46434,426.83666 z "
         id="path2220"
         style="fill:#000000;fill-opacity:1;fill-rule:nonzero;stroke:none;stroke-width:1px;stroke-linecap:butt;stroke-linejoin:miter;stroke-opacity:1" />
      <path
         d="M -304.2602,424.90563 C -305.06996,425.67928 -303.49287,425.4931 -304.24131,425.93021 C -303.98481,426.28407 -304.18008,426.32714 -304.29864,426.70628 C -304.47356,427.26567 -306.4749,426.54291 -305.91913,426.35683 L -305.91913,426.35683 C -305.65521,426.26847 -305.57203,426.38071 -305.66091,426.04905 C -306.83238,425.9667 -305.49543,425.62196 -305.3431,424.90563 C -305.26347,424.53114 -303.98338,424.64115 -304.2602,424.90563 z "
         id="path2222"
         style="fill:#000000;fill-opacity:1;fill-rule:nonzero;stroke:none;stroke-width:1px;stroke-linecap:butt;stroke-linejoin:miter;stroke-opacity:1" />
      <path
         d="M -303.5464,424.21681 C -304.28508,425.7087 -303.67687,424.44879 -303.24247,424.97654 C -303.28703,425.25458 -303.15439,425.64757 -303.14344,425.70853 C -301.90709,425.90241 -303.10465,426.21405 -302.35562,426.40016 C -303.24959,425.9188 -302.60008,426.71159 -302.14173,426.83507 C -300.85077,427.16689 -305.0961,426.52425 -301.89095,426.87589 C -301.26424,427.67272 -301.76537,426.78282 -302.1305,427.91963 C -302.15067,427.98242 -301.75785,427.62035 -301.70616,427.32966 C -303.61731,427.68683 -299.58963,426.54374 -301.61298,427.95627 C -302.14553,427.29498 -300.89514,427.02107 -300.32771,427.91765 C -300.81222,428.62437 -300.09093,426.85933 -300.12599,428.05244 C -299.28938,428.18221 -300.52119,428.39501 -299.50684,428.29495 C -298.91331,428.2364 -300.42309,429.18153 -301.0079,429.06458 L -301.0079,429.06458 C -301.12545,429.04108 -301.29395,428.9582 -301.28756,428.8385 C -301.49268,428.71918 -301.66271,428.54721 -301.84006,428.38956 C -301.7168,428.60064 -300.2022,429.08639 -302.29172,428.76565 C -302.43816,428.74317 -302.4542,428.51785 -302.53545,428.39396 C -300.3474,428.27561 -302.22728,428.7517 -303.09149,428.3869 C -303.50345,428.00975 -303.25748,425.79436 -302.97015,427.85291 C -300.55153,428.25533 -303.43514,428.05916 -303.52192,427.31788 C -303.95584,427.2735 -303.87063,427.20504 -304.03182,426.72395 C -304.10868,426.674 -304.17502,426.60179 -304.2624,426.57413 C -304.83562,426.19483 -304.37751,425.82903 -305.05572,425.85885 C -305.26621,424.45967 -305.17807,425.85265 -305.71208,424.96766 C -305.78563,424.84574 -305.55334,424.7312 -305.47399,424.61297 C -305.08621,424.03531 -303.2377,423.59329 -303.5464,424.21681 z "
         id="path2224"
         style="fill:#000000;fill-opacity:1;fill-rule:nonzero;stroke:none;stroke-width:1px;stroke-linecap:butt;stroke-linejoin:miter;stroke-opacity:1" />
      <path
         d="M -138.47865,283.88709 C -139.55904,284.45855 -138.39914,284.64141 -138.16136,284.96032 C -137.90393,285.66521 -138.30248,284.95355 -137.72487,285.82168 C -138.43529,286.62671 -135.09678,285.08469 -138.49233,285.78476 C -137.0243,286.07454 -136.91927,286.33261 -136.23162,286.0621 C -136.84814,286.61609 -138.25521,285.55451 -137.08438,285.95058 C -132.83902,286.15833 -137.64765,285.6282 -136.40057,286.79274 C -137.46822,286.51702 -136.92549,286.55489 -136.98059,286.52992 C -137.13045,285.28066 -137.77158,286.8842 -137.78572,285.58202 C -136.91853,284.57662 -138.66876,287.33429 -137.98347,285.34505 C -138.87628,285.95296 -138.5562,285.29675 -138.79121,284.89173 C -139.5071,285.23035 -140.24126,284.67822 -139.0484,284.39198 C -139.86038,284.23883 -139.84545,283.98834 -139.65288,284.66608 C -139.41654,285.4979 -138.9085,282.54907 -138.07911,282.7938 L -138.07911,282.7938 C -136.29008,283.32171 -138.84578,283.65658 -137.75439,283.44348 C -137.75258,283.9482 -137.70076,283.80441 -136.7914,283.7731 C -135.95456,284.27697 -137.39077,284.20134 -136.64542,284.42903 C -136.08826,283.66458 -136.72914,284.24932 -135.85069,284.95961 C -136.50131,285.25835 -135.79436,285.16928 -135.17421,285.55527 C -135.257,285.91763 -134.84917,286.20996 -135.16834,286.79133 C -134.0342,289.15318 -138.8194,287.7877 -135.86716,287.77139 C -136.48332,287.84794 -137.92369,288.08862 -137.71073,287.5054 C -137.89007,287.64052 -138.027,287.94624 -138.24873,287.91078 C -138.55969,287.86104 -137.80971,286.96523 -138.1245,286.97422 C -139.92142,287.02553 -137.14972,287.68765 -136.93437,287.60583 C -140.9605,288.09966 -138.64415,287.39625 -138.90803,287.01889 C -140.13513,285.26414 -139.35521,288.60901 -139.68329,286.92556 C -139.59064,286.5455 -139.98896,286.00935 -140.4565,285.83238 C -140.47175,285.45888 -141.13303,285.13035 -141.13824,285.04225 C -141.20053,283.98797 -139.02864,284.70305 -141.04355,283.61925 C -141.84651,283.18734 -137.67268,283.46078 -138.47865,283.88709 z "
         id="path2226"
         style="fill:#000000;fill-opacity:1;fill-rule:nonzero;stroke:none;stroke-width:1px;stroke-linecap:butt;stroke-linejoin:miter;stroke-opacity:1" />
      <path
         sodipodi:nodetypes="cccccccccccccccccccccccccccccccccccccccccccccccccccccccccccccccccccccccccc"
         id="path3484"
         d="M -127.89806,299.43344 C -128.67619,304.24308 -134.38757,301.58736 -133.38706,305.37474 C -138.06482,306.6447 -143.64605,316.00868 -142.57843,311.71205 C -137.64361,309.12655 -147.32608,317.84921 -149.16402,318.84564 C -148.5011,324.50196 -157.58101,320.56489 -156.01887,326.51072 C -159.92115,328.68361 -158.61479,328.06615 -161.61934,329.65321 C -164.45288,333.53182 -167.74787,332.71633 -168.80481,337.22202 C -174.05009,335.15414 -169.03867,336.51679 -171.92214,341.08285 C -176.33253,338.91812 -170.04471,340.64657 -175.70982,342.39688 C -176.00142,346.24736 -178.91095,346.42293 -182.67788,345.08956 C -179.62693,345.7716 -177.21756,344.43398 -180.92191,348.62827 C -182.76939,351.21149 -194.93752,352.68309 -186.733,349.2997 C -183.63741,350.32964 -182.10977,349.04272 -185.46545,351.25138 C -188.85593,352.23064 -183.62067,353.52422 -187.74504,354.12936 C -189.72278,354.18374 -192.47058,356.98647 -191.34539,357.19023 C -194.93582,359.05733 -194.20073,356.62376 -192.32299,358.00917 C -195.06931,361.13225 -192.66581,359.63742 -197.18577,363.50236 C -202.45136,368.27716 -206.45214,370.38122 -210.43002,373.08874 C -211.85454,374.90394 -212.69028,379.97431 -215.20588,378.30257 C -213.72455,381.96502 -221.38429,383.9385 -220.74209,385.30784 C -221.92627,383.39298 -224.03291,392.04665 -227.32186,389.24366 C -223.42217,388.76647 -226.82775,392.82197 -226.71046,391.67002 C -228.3744,393.84598 -234.39461,392.3815 -231.66028,394.68944 C -233.80185,396.19802 -232.12651,398.27748 -235.18961,393.97379 C -234.37622,395.4939 -234.66344,398.12434 -237.68189,397.68916 C -232.93402,397.94597 -239.87266,399.10014 -239.81654,400.88053 C -241.51602,399.71697 -244.73933,404.12837 -242.55956,403.89003 C -242.6672,403.09006 -252.63589,406.06162 -244.1019,405.27284 C -239.56422,404.06168 -256.02518,409.58052 -247.72953,406.47157 C -241.76512,402.53675 -244.57216,407.79411 -249.13801,409.53524 C -257.26293,406.19246 -245.2642,405.26837 -248.85935,408.94536 C -250.93381,403.95316 -246.84385,411.53884 -250.66469,411.07031 C -254.43214,409.08509 -248.46857,412.75557 -252.27648,411.33127 C -249.649,416.63514 -258.45035,410.04923 -255.99282,414.00393 C -258.10405,415.11939 -257.25226,418.80091 -260.28208,415.79514 C -263.39091,416.16758 -257.27127,420.82492 -262.12747,417.22171 C -262.82863,418.7279 -266.91115,419.18037 -270.32068,418.79818 C -266.98254,418.74589 -259.33884,420.1695 -266.49936,418.74657 C -269.93521,414.0703 -278.65097,425.026 -273.98254,416.81601 C -273.67726,413.14333 -264.73625,412.06314 -271.32224,412.47992 C -275.73101,409.64073 -266.83159,415.44019 -264.99807,411.24906 C -260.91526,410.21672 -263.72857,412.79931 -266.8003,410.94215 C -272.81087,411.32549 -258.47756,413.20102 -263.56557,407.88995 C -259.88968,410.99349 -258.23749,405.13643 -255.36178,404.26737 C -256.13227,400.14481 -253.99363,410.08174 -254.74132,404.03872 C -251.41888,403.73626 -242.58709,400.23508 -251.1168,400.18581 C -253.62809,399.94354 -250.96372,406.5006 -248.76037,402.38542 C -246.10036,401.4465 -242.7005,401.19725 -247.18561,402.66786 C -255.00831,403.49313 -244.44292,391.52548 -241.75114,399.22869 C -243.55652,400.22927 -249.29127,401.37445 -244.4076,398.73019 C -242.085,400.53718 -239.78209,399.81842 -242.67419,397.28099 C -240.64673,396.19778 -237.41275,398.14921 -237.29057,394.58531 C -238.21621,399.61623 -237.05263,390.13991 -233.04539,392.68903 C -235.30503,389.48661 -230.18322,390.68499 -230.65921,387.47189 C -227.89831,388.78191 -230.70884,384.18883 -227.045,385.02547 C -225.92942,378.90912 -220.17646,383.04024 -220.6981,376.83368 C -217.59617,378.59845 -221.1203,372.58816 -216.70061,374.71118 C -215.05732,369.5414 -210.65418,365.96751 -206.34845,361.9487 C -204.23487,360.93159 -203.25499,360.85064 -204.4312,358.92317 C -200.08621,359.42405 -204.1857,355.36997 -200.69424,354.85184 C -199.45407,352.59282 -195.88128,350.11536 -199.41822,353.24304 C -196.18341,354.35734 -195.45934,351.75682 -198.18259,350.64837 C -193.44312,349.87001 -188.4175,343.68238 -185.01473,343.19772 C -187.07899,344.37439 -191.82753,346.17912 -186.8992,345.38335 C -192.76067,341.53872 -185.13642,338.28167 -181.1145,340.09641 C -172.4674,339.61865 -187.05719,336.03004 -183.25183,340.81818 C -180.44975,339.66516 -179.82633,338.63279 -181.49981,336.44976 C -177.39551,339.88935 -177.58128,335.0046 -175.05149,334.28478 C -173.20916,331.13742 -167.22162,330.3795 -168.92002,327.66202 C -166.50759,325.42936 -165.75824,324.53361 -163.23472,324.49525 C -164.84384,320.17389 -160.34627,322.1247 -160.78574,318.90048 C -153.57043,318.31864 -152.57709,310.78674 -146.87328,308.60215 C -146.50765,302.80372 -136.62086,305.56132 -137.29154,299.05155 C -134.52988,296.20887 -128.78099,296.56356 -127.89806,299.43344 z "
         style="opacity:0.65277782;fill:#000000;fill-opacity:1;fill-rule:nonzero;stroke:none;stroke-width:1px;stroke-linecap:butt;stroke-linejoin:miter;stroke-opacity:1" />
      <path
         id="path3506"
         d="M -150.06447,286.73008 L -278.19124,400.0159"
         style="fill:none;fill-opacity:0.75;fill-rule:evenodd;stroke:#000000;stroke-width:1.38515425px;stroke-linecap:butt;stroke-linejoin:miter;stroke-opacity:1" />
      <path
         id="path3508"
         d="M -140.6652,295.13994 L -267.30787,411.88866"
         style="fill:none;fill-opacity:0.75;fill-rule:evenodd;stroke:#000000;stroke-width:1.38515425px;stroke-linecap:butt;stroke-linejoin:miter;stroke-opacity:1" />
    </g>
    <g
       id="g2247"
       inkscape:export-filename="C:\Documents and Settings\DARIOSKY\Desktop\Dariosky\MION\eclipseWorkspace\Tam\media\x.png"
       inkscape:export-xdpi="9.0069122"
       inkscape:export-ydpi="9.0069122"
       transform="matrix(0.4428178,0,0,0.4428178,842.92178,377.41078)">
      <path
         d="M -728.47725,-190.00576 C -754.82872,-171.47075 -778.22262,-149.09624 -802.91495,-128.4467 C -857.64423,-84.900296 -904.29952,-32.764598 -949.32503,20.431958 C -982.15701,59.795683 -1014.6499,99.440203 -1047.3008,138.95374 L -1122.8816,135.93523 C -1086.6177,98.168406 -1051.9912,58.975411 -1018.5423,18.687947 C -974.09453,-35.21787 -928.82915,-88.655323 -877.25098,-135.98805 C -854.55012,-155.76641 -832.71067,-176.44371 -812.76676,-198.9951 L -728.47725,-190.00576 z "
         id="path2237"
         style="fill:#000000;fill-opacity:1;fill-rule:nonzero;stroke:none;stroke-width:1px;stroke-linecap:butt;stroke-linejoin:miter;stroke-opacity:1" />
      <path
         d="M -1052.4677,-199.52615 C -1027.8315,-168.26945 -995.85396,-143.79282 -965.1886,-118.80943 C -919.15331,-82.326144 -867.66281,-54.202096 -816.71599,-25.418759 C -781.03605,-5.8138661 -745.94201,14.847352 -712.5353,38.135555 C -709.15636,40.815309 -705.77742,43.495063 -702.39848,46.174817 L -765.04005,97.140576 C -767.70305,94.803079 -770.36604,92.465583 -773.02903,90.128086 C -803.86359,66.253575 -836.34653,44.730149 -870.3347,25.561938 C -922.11251,-4.6809368 -973.10119,-36.268481 -1021.4887,-71.770186 C -1054.2748,-96.434415 -1086.3141,-122.04087 -1118.5234,-147.42413 L -1052.4677,-199.52615 z "
         id="path2245"
         style="fill:#000000;fill-opacity:1;fill-rule:nonzero;stroke:none;stroke-width:1px;stroke-linecap:butt;stroke-linejoin:miter;stroke-opacity:1" />
    </g>
  </g>
</svg>
