<?xml version="1.0" encoding="UTF-8" standalone="no"?>
<!-- Created with Inkscape (http://www.inkscape.org/) -->
<svg
   xmlns:dc="http://purl.org/dc/elements/1.1/"
   xmlns:cc="http://creativecommons.org/ns#"
   xmlns:rdf="http://www.w3.org/1999/02/22-rdf-syntax-ns#"
   xmlns:svg="http://www.w3.org/2000/svg"
   xmlns="http://www.w3.org/2000/svg"
   xmlns:xlink="http://www.w3.org/1999/xlink"
   xmlns:sodipodi="http://sodipodi.sourceforge.net/DTD/sodipodi-0.dtd"
   xmlns:inkscape="http://www.inkscape.org/namespaces/inkscape"
   width="744.09448819"
   height="1052.3622047"
   id="svg2445"
   sodipodi:version="0.32"
   inkscape:version="0.45+0.46pre3+devel"
   sodipodi:docname="ok.svg"
   inkscape:output_extension="org.inkscape.output.svg.inkscape"
   inkscape:export-filename="C:\Documents and Settings\DARIOSKY\Desktop\Dariosky\MION\eclipseWorkspace\Tam\media\ok.png"
   inkscape:export-xdpi="3.9849837"
   inkscape:export-ydpi="3.9849837">
  <defs
     id="defs2447">
    <linearGradient
       id="linearGradient3594"
       inkscape:collect="always">
      <stop
         id="stop3596"
         offset="0"
         style="stop-color:#ffffff;stop-opacity:1" />
      <stop
         id="stop3598"
         offset="1"
         style="stop-color:#00ff00;stop-opacity:1" />
    </linearGradient>
    <radialGradient
       inkscape:collect="always"
       xlink:href="#linearGradient3594"
       id="radialGradient3716"
       gradientUnits="userSpaceOnUse"
       gradientTransform="matrix(-1.5567542,-0.2895008,0.371065,-1.9953713,1303.7395,762.34557)"
       cx="742.55103"
       cy="190.80588"
       fx="742.55103"
       fy="190.80588"
       r="421.11429" />
    <inkscape:perspective
       sodipodi:type="inkscape:persp3d"
       inkscape:vp_x="0 : 526.18109 : 1"
       inkscape:vp_y="0 : 1000 : 0"
       inkscape:vp_z="744.09448 : 526.18109 : 1"
       inkscape:persp3d-origin="372.04724 : 350.78739 : 1"
       id="perspective2453" />
    <filter
       inkscape:collect="always"
       id="filter3450">
      <feGaussianBlur
         inkscape:collect="always"
         stdDeviation="3.9571429"
         id="feGaussianBlur3452" />
    </filter>
  </defs>
  <sodipodi:namedview
     id="base"
     pagecolor="#ffffff"
     bordercolor="#666666"
     borderopacity="1.0"
     inkscape:pageopacity="0.0"
     inkscape:pageshadow="2"
     inkscape:zoom="0.35"
     inkscape:cx="-47.193983"
     inkscape:cy="540.19882"
     inkscape:document-units="px"
     inkscape:current-layer="layer1"
     showgrid="false"
     inkscape:window-width="1280"
     inkscape:window-height="968"
     inkscape:window-x="-4"
     inkscape:window-y="-4" />
  <metadata
     id="metadata2450">
    <rdf:RDF>
      <cc:Work
         rdf:about="">
        <dc:format>image/svg+xml</dc:format>
        <dc:type
           rdf:resource="http://purl.org/dc/dcmitype/StillImage" />
      </cc:Work>
    </rdf:RDF>
  </metadata>
  <g
     inkscape:label="Livello 1"
     inkscape:groupmode="layer"
     id="layer1">
    <rect
       style="opacity:1;fill:#ffffff;fill-opacity:1;fill-rule:evenodd;stroke:#000000;stroke-width:7.52321959;stroke-linecap:butt;stroke-linejoin:miter;marker:none;marker-start:none;marker-mid:none;marker-end:none;stroke-miterlimit:4;stroke-dasharray:none;stroke-dashoffset:0;stroke-opacity:1;visibility:visible;display:inline;overflow:visible;enable-background:accumulate"
       id="rect3476"
       width="339.61966"
       height="339.61966"
       x="250.19016"
       y="285.40948"
       ry="57.142857"
       rx="57.142857" />
    <path
       sodipodi:nodetypes="cccccccccccccc"
       id="path3712"
       d="M 304.2593,483.0091 C 288.7038,536.07693 313.1225,589.15258 333.6314,637.16337 C 336.326,647.81922 356.1471,676.50787 333.2354,662.83817 C 316.8419,654.02783 283.5428,646.99854 275.6397,642.51531 C 341.5592,602.65981 383.3281,535.37379 420.9205,470.27501 C 466.0164,397.06167 584.05232,249.28006 642.23472,185.7779 C 665.82472,172.4309 703.26966,194.2355 695.57841,222.3892 C 682.8001,243.09267 585.07952,320.87008 571.684,343.0004 C 517.5571,395.8335 477.4912,460.55055 436.8851,523.72225 C 396.3016,577.54496 374.7675,642.66775 358.616,707.3536 C 343.611,737.3679 302.4341,736.6281 275.6918,724.60976 C 250.659,715.74804 233.0597,690.25162 243.8711,664.45357 C 248.0727,605.45145 213.171,554.4778 194.4116,500.97169 C 228.8973,484.7732 268.2984,492.94096 304.2593,483.0091 z"
       style="fill:#000000;fill-opacity:1;fill-rule:nonzero;stroke:none;stroke-width:1px;stroke-linecap:butt;stroke-linejoin:miter;stroke-opacity:1" />
    <path
       style="fill:#000000;fill-opacity:1;fill-rule:nonzero;stroke:none;stroke-width:1px;stroke-linecap:butt;stroke-linejoin:miter;stroke-opacity:1"
       d="M 294.2593,469.0091 C 278.7038,522.07693 303.1225,575.15258 323.6314,623.16337 C 326.326,633.81922 346.1471,662.50787 323.2354,648.83817 C 306.8419,640.02783 273.5428,632.99854 265.6397,628.51531 C 331.5592,588.65981 373.3281,521.37379 410.9205,456.27501 C 456.0164,383.06167 574.05232,235.28006 632.23472,171.7779 C 655.82472,158.4309 693.26966,180.2355 685.57841,208.3892 C 672.8001,229.09267 575.07952,306.87008 561.684,329.0004 C 507.5571,381.8335 467.4912,446.55055 426.8851,509.72225 C 386.3016,563.54496 364.7675,628.66775 348.616,693.3536 C 333.611,723.3679 292.4341,722.6281 265.6918,710.60976 C 240.659,701.74804 223.0597,676.25162 233.8711,650.45357 C 238.0727,591.45145 203.171,540.4778 184.4116,486.97169 C 218.8973,470.7732 258.2984,478.94096 294.2593,469.0091 z"
       id="path3478"
       sodipodi:nodetypes="cccccccccccccc" />
    <path
       style="fill:#000000;fill-opacity:1;fill-rule:nonzero;stroke:none;stroke-width:1px;stroke-linecap:butt;stroke-linejoin:miter;stroke-opacity:1"
       d="M 284.2593,473.0091 C 268.7038,526.07693 293.1225,579.15258 313.6314,627.16337 C 316.326,637.81922 336.1471,666.50787 313.2354,652.83817 C 296.8419,644.02783 263.5428,636.99854 255.6397,632.51531 C 321.5592,592.65981 363.3281,525.37379 400.9205,460.27501 C 446.0164,387.06167 564.05232,239.28006 622.23472,175.7779 C 645.82472,162.4309 683.26966,184.2355 675.57841,212.3892 C 662.8001,233.09267 565.07952,310.87008 551.684,333.0004 C 497.5571,385.8335 457.4912,450.55055 416.8851,513.72225 C 376.3016,567.54496 354.7675,632.66775 338.616,697.3536 C 323.611,727.3679 282.4341,726.6281 255.6918,714.60976 C 230.659,705.74804 213.0597,680.25162 223.8711,654.45357 C 228.0727,595.45145 193.171,544.4778 174.4116,490.97169 C 208.8973,474.7732 248.2984,482.94096 284.2593,473.0091 z"
       id="path3474"
       sodipodi:nodetypes="cccccccccccccc" />
    <path
       style="fill:#ffffff;fill-opacity:1;fill-rule:nonzero;stroke:none;stroke-width:1px;stroke-linecap:butt;stroke-linejoin:miter;stroke-opacity:1"
       d="M 292.2593,471.0091 C 276.7038,524.07693 301.1225,577.15258 321.6314,625.16337 C 324.326,635.81922 344.1471,664.50787 321.2354,650.83817 C 304.8419,642.02783 271.5428,634.99854 263.6397,630.51531 C 329.5592,590.65981 371.3281,523.37379 408.9205,458.27501 C 454.0164,385.06167 572.0523,237.28006 630.23472,173.7779 C 653.82472,160.4309 691.26966,182.2355 683.57841,210.3892 C 670.8001,231.0927 573.0795,308.87008 559.684,331.0004 C 505.5571,383.8335 465.4912,448.55055 424.8851,511.72225 C 384.3016,565.54496 362.7675,630.66775 346.616,695.3536 C 331.611,725.3679 290.4341,724.6281 263.6918,712.60976 C 238.659,703.74804 221.0597,678.25162 231.8711,652.45357 C 236.0727,593.45145 201.171,542.4778 182.4116,488.97169 C 216.8973,472.7732 256.2984,480.94096 292.2593,471.0091 z"
       id="path3714"
       sodipodi:nodetypes="cccccccccccccc" />
  </g>
</svg>
