<?xml version="1.0" encoding="UTF-8" standalone="no"?>
<svg
   xmlns:dc="http://purl.org/dc/elements/1.1/"
   xmlns:cc="http://creativecommons.org/ns#"
   xmlns:rdf="http://www.w3.org/1999/02/22-rdf-syntax-ns#"
   xmlns:svg="http://www.w3.org/2000/svg"
   xmlns="http://www.w3.org/2000/svg"
   xmlns:sodipodi="http://sodipodi.sourceforge.net/DTD/sodipodi-0.dtd"
   xmlns:inkscape="http://www.inkscape.org/namespaces/inkscape"
   version="1.1"
   viewBox="0 0 100 100"
   id="svg903"
   sodipodi:docname="logo.svg"
   inkscape:export-filename="/home/dario/Dropbox/dev/Tam/rtmap/static/img/marker.png"
   inkscape:export-xdpi="47.189999"
   inkscape:export-ydpi="47.189999"
   inkscape:version="0.92.2 (5c3e80d, 2017-08-06)">
  <metadata
     id="metadata907">
    <rdf:RDF>
      <cc:Work
         rdf:about="">
        <dc:format>image/svg+xml</dc:format>
        <dc:type
           rdf:resource="http://purl.org/dc/dcmitype/StillImage" />
      </cc:Work>
    </rdf:RDF>
  </metadata>
  <sodipodi:namedview
     pagecolor="#ffffff"
     bordercolor="#666666"
     borderopacity="1"
     objecttolerance="10"
     gridtolerance="10"
     guidetolerance="10"
     inkscape:pageopacity="0"
     inkscape:pageshadow="2"
     inkscape:window-width="728"
     inkscape:window-height="480"
     id="namedview905"
     showgrid="false"
     inkscape:zoom="2.36"
     inkscape:cx="-4.4491525"
     inkscape:cy="50"
     inkscape:window-x="0"
     inkscape:window-y="0"
     inkscape:window-maximized="0"
     inkscape:current-layer="svg903" />
  <defs
     id="defs865">
    <filter
       id="a"
       style="color-interpolation-filters:sRGB"
       height="1.4745"
       width="1.2314"
       y="-.23725"
       x="-.11571">
      <feGaussianBlur
         stdDeviation="2.0461169"
         id="feGaussianBlur862" />
    </filter>
  </defs>
  <g
     transform="translate(-332.19 -330.16)"
     id="g901">
    <g
       transform="matrix(.63671 0 0 .63671 74.007 141.55)"
       id="g899">
      <path
         d="m453.56 332.12c-15.405 8.3338-20.708 12.627-22.476 18.183-1.7678 5.5558-8.0812 23.486-8.0812 28.284 0 4.7982 20.961-0.50508 20.961-0.50508l69.953-8.8388-2.0203-12.374s-10.607-24.749-15.405-27.022c-4.7982-2.2728-16.415-3.5355-16.415-3.5355z"
         style="fill:#c6e6ff;fill-rule:evenodd"
         id="path867" />
      <path
         d="m459.75 311.29c-7.8287 2.7779-15.657 7.4499-16.036 8.5863-0.3788 1.1364-2.2728 2.2728-2.0203 4.672 0.25254 2.3991 2.5254 5.4296 2.5254 5.4296l38.891-6.4397s-2.1466-8.5863-3.4093-9.7227-7.4499-3.5355-10.733-3.5355c-3.283 0-9.2492 0.97859-9.2176 1.0102z"
         style="filter:url(#a);fill:#ffffac;fill-rule:evenodd"
         id="path869" />
      <text
         style="opacity:.42242;line-height:0%;font-family:Impact;fill:#000000"
         xml:space="preserve"
         transform="rotate(-10.777)"
         y="403.57736"
         x="385.49243"
         id="text873"><tspan
           x="385.49243"
           style="font-size:11.753px;line-height:1"
           y="403.57736"
           id="tspan871">tam</tspan></text>
      <path
         d="m418.46 389.95-3.0305 9.0914 9.849 23.739 7.8287-29.042-7.0711-6.0609z"
         style="fill:#fff;fill-rule:evenodd"
         id="path875" />
      <path
         d="m456.84 402.08 5.0508 17.678 15.91-1.0102s51.518-5.8084 62.377-14.647c10.859-8.8388-1.5152-16.668-1.5152-16.668l-22.728 9.3439s-39.143 10.102-52.275 6.566c-13.132-3.5355-6.566-2.0203-6.8185-1.2627z"
         style="fill:#fff;fill-rule:evenodd"
         id="path877" />
      <path
         d="m473 380.61-1.0102 20.708 9.3439 0.50508 39.143-7.5762 8.5863-6.0609-5.8084-7.3236z"
         style="fill:#ffffbe;fill-rule:evenodd"
         id="path879" />
      <path
         style="fill:#fdcb32"
         d="m444.52 433.52c-0.82022-5.8296-3.3889-14.229-4.5758-14.963-0.45563-0.2816-0.58562 1.2982-0.28886 3.5107-7.4221 7.0786-12.658 8.4281-21.27 0.0928-1.449-5.5867-2.2413-7.0838-3.8736-7.3192-1.5812-0.22798-2.116-1.1409-2.3311-3.9794-0.15355-2.026 0.18545-3.9707 0.75334-4.3217 0.64599-0.39924 0.79334-2.9726 0.39362-6.8742-0.53361-5.2083-0.28886-6.9222 1.485-10.399 1.1682-2.2898 3.3082-4.7837 4.7558-5.5422 2.5075-1.3138 2.645-1.803 2.9108-10.354 0.47093-15.15 6.9503-30.886 16.265-39.5 21.88-14.386 20.602-9.7413 50.903-10.229 9.4682 2.5629 14.564 8.0268 22.293 23.903 3.213 6.6 5.4242 12.15 4.914 12.333-2.5996 0.934-0.38765 1.8601 3.4182 1.4312 2.8336-0.31938 6.5745 0.22345 10.75 1.5599 3.5222 1.1274 7.6069 2.303 9.077 2.6124 3.8546 0.81137 8.3628 4.9621 10.684 9.8366 1.6984 3.5669 4.0719 23.501 5.1434 28.961-8.75 5.6713-15.255 2.595-14.389 2.9695l-65.111 13.042v10.627c-6.6109 7.7712-20.879 11.076-31.906 2.6008zm9.5096-10.154c-2.482-4.704-2.7199-2.8866-0.3808 2.9097 1.0645 2.638 1.8519 3.6281 2.0598 2.5903 0.18512-0.92397-0.57044-3.399-1.679-5.5zm-28.18-5.5701c-0.0418-0.6875-0.68261-2.825-1.4239-4.75l-1.3478-3.5-0.0761 3.1682c-0.0418 1.7425 0.19707 3.88 0.53091 4.75 0.7203 1.8771 2.4258 2.1213 2.3169 0.33179zm73.076-2.38c6.5345-0.66059 33.48-7.5391 39.714-10.261 0-5.0159-1.9044-13.109-3.3379-13.109-0.7555 0-5.3118 1.769-10.125 3.931-13.37 6.0056-49.337 12.219-58.567 10.118-4.0961-0.93233-4.1048-0.92456-5.0318 4.4977-1.0795 6.3142 2.2258 7.6201 17.348 6.8541 6.325-0.32039 15.325-1.2344 20-2.0312zm-21.204-17.325c-0.67134-1.075-1.4143-1.7609-1.651-1.5242-0.42859 0.4286 1.7507 3.4787 2.4856 3.4787 0.21231 0-0.16325-0.87953-0.83459-1.9545zm-53.284-4.0495c3.8083-1.2568 3.8064-2.9959-0.003-2.9959-2.4018 0-6.5091 4.4971-6.5091 7.1269 0 0.72497 0.6764 0.35244 1.5031-0.82784 0.82671-1.1803 3.0808-2.6667 5.0092-3.3031zm62.757 3.082c0.52256-1.9983-3.8114-7.0779-6.0389-7.0779-1.9775 0-3.4271 3.7641-2.2771 5.9128 1.8589 3.4734 7.5055 4.2644 8.316 1.165zm31.902-6.7329c2.4323-2.2012 2.3078-4.0182-0.37346-5.4532-1.6406-0.87805-2.2994-0.88703-2.5833-0.0352-0.20963 0.62887-1.4686 1.1434-2.7978 1.1434-1.6605 0-2.4167 0.56322-2.4167 1.8 0 4.0544 4.8383 5.5613 8.1713 2.545zm-88.608-14.801c0.88509-1.3508 1.3049-2.9484 0.93297-3.5503-0.37196-0.60184-1.0054-3.2091-1.4077-5.794l-0.73146-4.6997-1.1729 4c-1.4253 4.8609-1.5519 12.5-0.20708 12.5 0.53732 0 1.7011-1.1052 2.5862-2.456zm116.44-2.9215c0-0.20766-0.7875-0.99516-1.75-1.75-1.5861-1.2439-1.6214-1.2085-0.37756 0.37755 1.3064 1.6658 2.1276 2.1955 2.1276 1.3724zm-107.41-4.1206c1.1863-1.8106 1.4662-3.6685 1.017-6.75-0.55996-3.8409 0.0635-9.9333 1.8678-18.252l0.65071-3-3.5632 3.9166-3.5632 3.9166v11.333c0 11.717 0.65185 13.321 3.5908 8.8352zm13.2 0.53977c1.4902-1.0771 5.9753-3.4095 10.21-4.0118 8.8885-1.2643 32.054-3.6373 40.411-3.4113 3.0521 0.0825 5.5745 0.21467 5.9108-0.32951 0.32457-0.52516-0.54472-2.6249-1.9318-4.6661-1.387-2.0412-4.1796-7.8408-6.2058-12.888-5.6108-13.977-8.8512-15.438-27.184-12.258-12.627 2.1901-21.927 4.5965-22.72 5.8784-1.8126 6.2668-2.5042 12.864-3.6505 19.294-1.1817 6.527-1.3732 9.8951-0.66796 11.75 1.1839 3.1139 2.2466 3.2309 5.8286 0.64185zm45.94-5.7346c-0.97297-0.25354-2.323-0.23687-3 0.0371-0.67703 0.27393 0.11903 0.48137 1.769 0.46099 1.65-0.0204 2.2039-0.2445 1.231-0.49804z"
         id="path881" />
      <path
         style="fill:#847e36"
         d="m449.81 442.55c-3.0093-1.6356-4.2526-4.4638-5.8736-13.362-1.4116-7.7482-2.867-11.138-4.7819-11.138-0.99804 0-1.2128-0.54254-0.69283-1.75 0.41451-0.9625 0.9631-4.5314 1.2191-7.931 0.34879-4.6319 1.0012-6.6778 2.6033-8.1634 3.7998-3.5233 7.102-3.2111 12.907 1.2202 2.8367 2.1653 4.9261 3.1011 5.8266 2.6097 0.77216-0.42142 3.9912-0.29037 7.1535 0.29123 3.1622 0.5816 5.9769 0.83008 6.2548 0.55218 0.8063-0.8063-1.324-10.647-3.1278-14.448-0.90597-1.9092-3.7238-4.9062-6.2619-6.66-3.9058-2.6989-5.7018-3.2451-11.692-3.5555-6.3093-0.32696-7.3589-0.11169-9.6728 1.9838-1.4275 1.2928-4.0391 5.1887-5.8036 8.6575-3.1226 6.1385-3.1953 6.5758-2.7232 16.379 0.3783 7.8561 0.83822 10.269 2.0907 10.97 0.88317 0.49425 1.9063 2.5004 2.2735 4.4582 0.88263 4.7048-0.9711 6.4892-8.3456 8.0335-7.8246 1.6386-10.037 0.062-12.628-8.9999-1.41-4.9307-2.3517-6.6475-3.646-6.6475-2.4226 0-3.7001-6.696-1.6657-8.7305 1.1034-1.1034 1.2377-2.3725 0.56696-5.3577-0.51771-2.3042-0.49939-5.601 0.0446-8.022 0.94411-4.202 5.4149-9.8898 7.7737-9.8898 0.9826 0 1.3129-2.1742 1.3129-8.6422 0-14.921 5.9311-30.194 15.404-39.667 26.306-16.835 21.509-11.884 51.61-10.626 5.6964 1.5472 7.1353 2.4719 11.823 7.5983 4.9118 5.3715 12.668 19.377 14.586 26.337 0.37888 1.375-1.7663-2.45-4.767-8.5-3.6366-7.332-7.2399-12.914-10.806-16.739-5.0297-5.3954-5.8465-5.8641-13.635-7.8259-19.686-5.0333-40.039 1.813-52.779 17.416-3.7496 5.5459-9.5222 21.94-9.2998 26.411 0.13266 2.6672 0.14658 2.6733 0.53752 0.23804 0.54837-3.4159 3.4525-10 4.4108-10 1.0756 0 1.6472 2.3968 2.3905 10.024 0.59099 6.0645 0.46108 6.6878-1.8456 8.8548-2.8376 2.6658-4.6294 2.1094-4.6294-1.4375 0-1.3425-0.4655-2.441-1.0344-2.441-0.66247 0-0.79704 1.7897-0.37423 4.9769 0.61101 4.606 0.48314 5.0446-1.7156 5.8852-3.4632 1.3241-5.9353 4.4678-6.9093 8.7866-1.003 4.4473-0.44067 5.7287 0.9309 2.1212 1.1254-2.9602 5.663-6.77 8.0632-6.77 3.4032 0 6.3008 4.6116 7.0524 11.224l0.71341 6.2761 0.13683-5.275c0.0989-3.8139 1.0757-7.1376 3.5265-12 4.1532-8.2398 5.8308-9.8178 11.878-11.173 5.7842-1.2963 10.968-0.27601 17.223 3.39 5.8531 3.4302 9.282 8.6855 10.723 16.435l1.1494 6.1808 6.0681-0.66749c13.554-1.491 33.601-6.2122 41.295-9.7253 11.916-5.4409 12.047-5.451 13.878-1.0679 0.92942 2.2244 1.4288 5.7236 1.2298 8.6179-0.30805 4.4813-0.13405 4.9258 2.165 5.5317 3.0431 0.80187 5.4834 0.47818 9.7454-1.2927 2.8599-1.1883 3.1378-1.6313 2.3399-3.7302-0.49804-1.31-1.6299-7.2576-2.5153-13.217-1.0415-7.0104-2.36-12.049-3.7351-14.274-2.2281-3.6052-7.2804-7.2782-9.8349-7.1502-1.0247 0.0514-1.1039 0.23503-0.25 0.57959 2.6855 1.0836 1.107 2.4015-2.1456 1.7913-2.9494-0.55332-3.9293-0.15483-7.4573 3.0325-2.2339 2.0182-4.3362 4.5345-4.6718 5.5917-0.69089 2.1768-2.4753 2.6109-2.4753 0.60221 0-2.0388 6.9815-9.7162 9.8969-10.883l2.6031-1.0422-4-1.9126c-2.9716-1.4209-5.3864-1.7898-9.3924-1.4347-6.3086 0.55908-5.7734-1.2398 0.62414-2.0978 2.797-0.37516 5.3878 0.0924 8.7482 1.5789 2.6259 1.1616 5.8934 2.1119 7.2611 2.1119 4.0663 0 10.266 4.155 12.896 8.6435 2.3961 4.0886 5.4676 19.518 5.7444 28.856 0.10316 3.4795-0.18735 4.0433-2.2325 4.3328-2.2125 0.31319-2.307 0.60791-1.6032 5 1.4822 9.25 0.36169 10.847-9.8945 14.098-3.3831 1.0725-7.5682 2.5083-9.3002 3.1908-4.7155 1.8581-7.8496-0.55649-9.2603-7.1343-1.5784-7.36-1.4592-7.8063 2.5315-9.4737 1.9922-0.83238 3.8106-1.5134 4.041-1.5134 0.23038 0 1.2686 1.9125 2.3072 4.25l1.8884 4.25 0.0706-5.05c0.0389-2.7775 0.56454-5.5439 1.1682-6.1476 0.60364-0.60364-2.8839 0.3909-7.75 2.2101-8.8864 3.3222-30.789 7.8201-43.853 9.0056l-7.0058 0.63575 0.21691 9.6175c0.26747 11.86-0.22203 12.644-7.3332 11.756-3.627-0.45316-6.6459-0.17406-9.8374 0.90946-5.5413 1.8813-6.2929 1.8863-9.6466 0.0636zm4.2288-19.674c-2.079-4.2006-2.9443-5.3181-2.5754-3.3261 1.0454 5.6442 3.7185 11.64 4.736 10.622 0.62711-0.62711-0.13713-3.208-2.1606-7.2964zm-28.117-5.0051c0-2.8343-2.1724-8.821-3.2009-8.821-1.0906 0-0.9942 2.7574 0.25347 7.25 1.1357 4.0895 2.9474 5.0552 2.9474 1.571zm67.36-1.319c15.839-2.3874 31.48-6.2386 38.302-9.4313l6.3374-2.9656v-4.8614c0-2.6738-0.5625-5.6087-1.25-6.522-1.1404-1.515-2.017-1.3123-9.9984 2.3116-12.75 5.7894-35.028 10.238-51.923 10.369l-12.672 0.098-0.63906 4.2471c-0.72074 4.7899-0.24094 6.0186 2.8349 7.2596 3.4063 1.3744 18.255 1.116 29.008-0.50467zm-70.08-21.95c1.2236-0.26057 3.0926-0.60379 4.1533-0.7627 1.8368-0.27518 1.8453-0.37227 0.17857-2.0389-0.96251-0.9625-2.2025-1.75-2.7555-1.75-1.953 0-6.8511 5.8771-6.8116 8.1731 0.0389 2.2604 0.0825 2.2487 1.5253-0.41037 0.81688-1.5055 2.4864-2.9505 3.71-3.2111zm7.1304-18.447c1.5423-1.7043 1.5857-2.5255 0.42869-8.127-1.2726-6.1614-1.3008-6.1989-2.5156-3.3542-1.3972 3.2719-1.7551 13.377-0.47379 13.377 0.46476 0 1.6171-0.85313 2.5607-1.8958zm50.822 24.209c-6.2444-3.0243-5.9787-12.313 0.35217-12.313 3.0621 0 8.4206 5.473 8.4206 8.6004 0 4.0133-4.3505 5.8545-8.7728 3.7128zm6.7728-3.8961c0-2.027-4.8427-6.4171-7.0786-6.4171-4.1351 0-3 7.278 1.394 8.9382 2.5957 0.98075 5.6846-0.3892 5.6846-2.5212zm4 1.6883c0-0.52995 2.5875-1.4831 5.75-2.1181 3.1625-0.63499 6.8212-1.4054 8.1304-1.712 3.2604-0.76363 2.3535 1.8862-0.94554 2.7624-5.1631 1.3714-12.935 2.0129-12.935 1.0676zm18.58-6.0169c-1.0225-1.1298-1.597-3.0706-1.405-4.7456 0.29668-2.5874 0.78599-2.907 5.6216-3.6721 5.94-0.93984 8.2033 0.10239 8.2033 3.7775 0 5.3835-8.779 8.6635-12.42 4.6403zm9.22-1.2884c2.7779-2.7779-0.0459-7.7742-3.5373-6.2585-0.9695 0.42087-2.4304 0.80872-3.2464 0.86188-1.6258 0.10591-2.5047 2.8817-1.6323 5.1551 0.67725 1.7649 6.7192 1.9383 8.416 0.24159zm-85.372-20.335c-0.36469-1.944-0.47522-7.6815-0.24562-12.75 0.36462-8.0489 0.77343-9.7494 3.2295-13.434 2.5526-3.8289 5.9959-6.2079 7.2173-4.9865 0.26292 0.26291-0.27517 4.1952-1.1958 8.7385-1.0457 5.1609-1.4466 10.193-1.0683 13.412 0.61952 5.2711-0.53833 8.2932-4.3188 11.272-2.3861 1.8803-2.9034 1.5583-3.6184-2.2527zm6.7547-11.676c-0.15317-4.1265 0.3639-9.676 1.1916-12.789 0.8042-3.0243 1.2471-5.7137 0.98426-5.9766-0.26286-0.26285-2.0091 1.3115-3.8805 3.4987l-3.4026 3.9766 0.016 12.5 0.016 12.5 2.6729-3.2101c2.4342-2.9235 2.6487-3.8609 2.4023-10.5zm4.7929 11.46c-2.3937-3.0336-2.3702-3.8288 0.61373-20.75 2.5965-14.724 2.7673-14.95 13.098-17.356 20.671-4.8137 30.29-5.3298 35.294-1.8939 4.0482 2.7794 6.4471 7.3197 15.346 29.045 1.5713 3.8359-0.3154 4.912-7.3276 4.1793-8.1581-0.85238-31.42 1.2186-40 3.5612-4.125 1.1262-8.7193 2.929-10.21 4.0061-3.5444 2.5618-4.2322 2.4819-6.8153-0.79159zm7.2945-1.2466c7.1225-4.2024 18.084-6.1451 37.98-6.7313 10.312-0.30383 18.75-0.9237 18.75-1.3775s-1.2838-2.8494-2.8528-5.3235-4.067-7.8276-5.5511-11.897c-5.0534-13.856-9.4788-15.751-28.533-12.22-15.618 2.894-20.57 4.2143-21.764 5.8029-0.93795 1.2477-3.6475 14.806-4.8666 24.353-0.63935 5.0065 0.54919 9.3902 2.5459 9.3902 0.49921 0 2.4305-0.89849 4.2917-1.9966zm27.73-9.9576c0-0.52481 2.0897-2.5498 4.6438-4.5 6.7287-5.1377 14.511-4.4459 18.796 1.671 2.5263 3.6068 1.7907 4.3778-1.327 1.3908-2.8816-2.7608-2.8907-2.7622-4.3397-0.69345-0.79863 1.1402-1.7502 1.775-2.1145 1.4106-0.36436-0.36437 0.0729-1.4751 0.97168-2.4682 1.5306-1.6913 1.4643-1.8703-1.0456-2.8246-3.3052-1.2566-7.9702 0.50226-11.508 4.3391-2.493 2.7033-4.0757 3.3537-4.0757 1.6747zm10.429-0.47438c-1.059-0.77435-1.6683-1.665-1.354-1.9793 0.31429-0.31428 1.4379 0.0621 2.4969 0.83648 1.059 0.77435 1.6683 1.665 1.354 1.9793-0.31429 0.31428-1.4379-0.0621-2.4969-0.83648z"
         id="path883" />
      <path
         style="fill:#4e4c4c"
         d="m449.81 442.55c-3.0093-1.6356-4.2526-4.4638-5.8736-13.362-1.4116-7.7482-2.867-11.138-4.7819-11.138-1.0144 0-1.2085-0.52274-0.64986-1.75 0.43814-0.9625 0.97553-4.45 1.1942-7.75 0.76689-11.573 7.695-13.841 17.422-5.7037 1.064 0.89009 4.7478 1.5573 9.8562 1.7852l8.1572 0.36385-0.66721-3.7226c-2.0275-11.312-4.0182-14.657-11.24-18.89-3.5405-2.0749-5.8608-2.666-10.465-2.666-7.4149 0-10.171 1.8676-14.619 9.9066-3.2147 5.8103-3.2733 6.1396-2.9814 16.758 0.2455 8.9295 0.59464 10.997 1.9889 11.777 0.93013 0.52053 1.9916 2.5482 2.3589 4.506 0.88263 4.7048-0.9711 6.4892-8.3456 8.0335-7.8246 1.6386-10.037 0.062-12.628-8.9999-1.41-4.9307-2.3517-6.6475-3.646-6.6475-2.4226 0-3.7001-6.696-1.6657-8.7305 1.1034-1.1034 1.2377-2.3725 0.56696-5.3577-0.51771-2.3042-0.49939-5.601 0.0446-8.022 0.94411-4.202 5.4149-9.8898 7.7737-9.8898 0.9826 0 1.3129-2.1742 1.3129-8.6422 0-14.921 5.9311-30.194 15.404-39.667 4.7072-4.7072 4.868-5.0496 3.783-8.0536-1.4816-4.1021-0.69923-6.763 2.6175-8.9017 1.4824-0.95591 4.1557-2.6777 5.9405-3.8261 5.1935-3.3417 11.906-4.6693 19.559-3.8686 7.8554 0.8219 11.051 3.0701 12.386 8.7148 0.7866 3.3261 1.2325 3.6553 7.1416 5.2728 9.6302 2.6361 16.372 10.179 23.229 25.987 5.5239 12.736 4.8682 12.471-1.513-0.61126-3.4842-7.143-7.2175-13.071-10.48-16.641-4.6826-5.1235-5.6902-5.7127-13.263-7.7562-6.8963-1.8608-9.5518-2.0988-16.75-1.5013-9.7718 0.81122-18.045 3.1263-24.326 6.8071-12.849 7.5303-21.953 26.204-22.076 45.283-0.0498 7.7333-0.17394 8.1664-2.7664 9.6542-3.6101 2.0719-5.8664 5.6902-6.4812 10.393l-0.50403 3.8558 2.0679-3.7388c2.3298-4.2124 6.0961-7.0913 8.6264-6.5939 2.9279 0.57547 5.6196 5.4088 6.3958 11.484l0.74715 5.8485 0.13111-5.3538c0.15259-6.2303 5.8392-18.254 9.888-20.907 6.048-3.9628 16.748-2.9341 24.361 2.3422 4.6665 3.2339 8.401 10.03 9.4854 17.26l0.65322 4.356 5.6216-0.66034c16.073-1.888 32.895-5.8048 41.156-9.5824 11.807-5.3992 13.066-5.438 14.751-0.45559 0.74403 2.2 1.2064 5.9067 1.0276 8.2372-0.29497 3.8429-0.0714 4.3257 2.403 5.1882 2.7544 0.96019 6.6502 0.28703 10.613-1.8338 1.659-0.88787 1.9292-1.6031 1.2692-3.3598-0.46116-1.2275-1.3805-6.2818-2.043-11.232-1.5618-11.67-2.6324-14.949-6.211-19.025-2.8612-3.2588-9.3274-6.3253-10.617-5.0353-0.35163 0.35163 0.35352 0.89896 1.567 1.2163 3.2951 0.86168 2.6654 2.3855-0.70709 1.711-3.8451-0.76902-8.2129 1.8596-11.233 6.7603-3.3026 5.3587-5.2342 5.4162-2.4426 0.0727 1.8462-3.534 6.4782-7.7906 9.4607-8.6939 2.2138-0.67051 2.0808-0.84979-2-2.6972-3.1701-1.4351-5.8238-1.8635-9.6566-1.5589-6.0895 0.48393-5.6645-1.1121 0.51688-1.9412 2.797-0.37516 5.3878 0.0924 8.7482 1.5789 2.6259 1.1616 5.8934 2.1119 7.2611 2.1119 4.0663 0 10.266 4.155 12.896 8.6435 2.3961 4.0886 5.4676 19.518 5.7444 28.856 0.10316 3.4795-0.18735 4.0433-2.2325 4.3328-2.2125 0.31319-2.307 0.60791-1.6032 5 1.4822 9.25 0.36169 10.847-9.8945 14.098-3.3831 1.0725-7.5682 2.5083-9.3002 3.1908-4.7155 1.8581-7.8496-0.55649-9.2603-7.1343-1.5784-7.36-1.4592-7.8063 2.5315-9.4737 1.9922-0.83238 3.8106-1.5134 4.041-1.5134 0.23038 0 1.2686 1.9125 2.3072 4.25l1.8884 4.25 0.0706-5.05c0.0389-2.7775 0.56454-5.5439 1.1682-6.1476 0.60364-0.60364-2.8839 0.3909-7.75 2.2101-8.8864 3.3222-30.789 7.8201-43.853 9.0056l-7.0058 0.63575 0.21691 9.6175c0.26747 11.86-0.22203 12.644-7.3332 11.756-3.627-0.45316-6.6459-0.17406-9.8374 0.90946-5.5413 1.8813-6.2929 1.8863-9.6466 0.0636zm4.2288-19.674c-2.079-4.2006-2.9443-5.3181-2.5754-3.3261 1.0454 5.6442 3.7185 11.64 4.736 10.622 0.62711-0.62711-0.13713-3.208-2.1606-7.2964zm-28.117-5.0051c0-2.8343-2.1724-8.821-3.2009-8.821-1.0906 0-0.9942 2.7574 0.25347 7.25 1.1357 4.0895 2.9474 5.0552 2.9474 1.571zm67.36-1.319c15.839-2.3874 31.48-6.2386 38.302-9.4313l6.3374-2.9656v-4.8614c0-2.6738-0.5625-5.6087-1.25-6.522-1.1404-1.515-2.017-1.3123-9.9984 2.3116-12.75 5.7894-35.028 10.238-51.923 10.369l-12.672 0.098-0.63906 4.2471c-0.72074 4.7899-0.24094 6.0186 2.8349 7.2596 3.4063 1.3744 18.255 1.116 29.008-0.50467zm-70.08-21.95c1.2236-0.26057 3.0926-0.60379 4.1533-0.7627 1.8368-0.27518 1.8453-0.37227 0.17857-2.0389-0.96251-0.9625-2.2025-1.75-2.7555-1.75-1.953 0-6.8511 5.8771-6.8116 8.1731 0.0389 2.2604 0.0825 2.2487 1.5253-0.41037 0.81688-1.5055 2.4864-2.9505 3.71-3.2111zm21.225-69.552c-0.37968-1.7287-0.91532-2.918-1.1903-2.643-0.275 0.275-0.18936 1.9144 0.19032 3.643 0.37968 1.7287 0.91532 2.918 1.1903 2.643 0.275-0.275 0.18936-1.9144-0.19032-3.643zm28.469-3.1414c4.4821-0.13291 8.2816-0.49297 8.4432-0.80013 0.16162-0.30717-0.11119-2.0528-0.60624-3.8791-1.2702-4.6862-6.0704-6.5551-15.301-5.9574-7.1071 0.46021-13.793 2.8547-18.444 6.605-2.2746 1.8342-2.3596 2.2323-1.2609 5.8998l1.1783 3.9328 6.7609-2.304c14.728-5.4701 9.6235-2.7082 19.23-3.497zm6.3984 76.939c-3.0861-3.4254-3.6077-5.7822-1.8674-8.4382 2.1375-3.2622 4.8816-2.9524 9.2417 1.0433 3.3603 3.0795 3.6182 3.6727 2.7171 6.25-1.3659 3.9068-7.0246 4.5488-10.091 1.1449zm8.6322-2.3802c0-2.027-4.8427-6.4171-7.0786-6.4171-4.1351 0-3 7.278 1.394 8.9382 2.5957 0.98075 5.6846-0.3892 5.6846-2.5212zm4 1.6624c0-0.5937 0.3375-1.0873 0.75-1.0968 0.4125-0.01 3.869-0.67809 7.681-1.4856 3.8121-0.80755 7.1196-1.2797 7.3501-1.0492 1.1215 1.1215-1.2234 2.3854-5.5189 2.9747-2.6193 0.35929-5.9998 0.89697-7.5123 1.1948-1.6361 0.32221-2.75 0.10434-2.75-0.53787zm18.58-5.991c-1.0198-1.1269-1.5966-3.0693-1.405-4.732 0.29025-2.5192 0.83414-2.9053 5.092-3.6145 5.6648-0.94355 8.7329 0.32787 8.7329 3.6189 0 5.4597-8.745 8.7884-12.42 4.7276zm9.22-1.2884c2.7779-2.7779-0.0459-7.7742-3.5373-6.2585-0.9695 0.42087-2.4304 0.80872-3.2464 0.86188-1.6258 0.10591-2.5047 2.8817-1.6323 5.1551 0.67725 1.7649 6.7192 1.9383 8.416 0.24159zm-93.13-11.47c-0.36667-0.36666-0.66499-3.6292-0.66293-7.25 0.003-4.872 0.53668-7.4575 2.0539-9.9461 1.1276-1.8495 2.29-3.1229 2.5832-2.8297 0.29322 0.29321 0.96426 4.0059 1.4912 8.2503 0.9039 7.2807 0.83255 7.8509-1.2613 10.08-2.3301 2.4803-3.1065 2.7934-4.2041 1.6958zm3.7391-3.2292c1.5423-1.7043 1.5857-2.5255 0.42869-8.127-1.2726-6.1614-1.3008-6.1989-2.5156-3.3542-1.3972 3.2719-1.7551 13.377-0.47379 13.377 0.46476 0 1.6171-0.85313 2.5607-1.8958zm4.023-6.731c-0.38198-2.5472-0.46146-8.3668-0.17662-12.932 0.43989-7.0509 0.94938-8.9119 3.3829-12.357 2.6567-3.7607 5.8468-5.9355 7.0061-4.7762 0.26971 0.2697-0.0598 2.4483-0.73213 4.8413-0.67238 2.393-1.2931 8.4645-1.3794 13.492-0.16459 9.5879-1.4433 13.172-5.4679 15.326-1.7548 0.93913-2.0042 0.5987-2.6329-3.5939zm6.7418-10.101c-0.1363-4.4123 0.38794-10.149 1.2127-13.271 0.79905-3.0243 1.2378-5.7137 0.9749-5.9766-0.26286-0.26285-2.0091 1.3115-3.8805 3.4987l-3.4026 3.9766-0.0375 12.477-0.0376 12.477 2.7053-2.7053c2.5301-2.5301 2.6897-3.2085 2.4652-10.477zm5.2572 11.648c-2.7204-3.006-2.438-7.2126 2.1097-31.42 0.79033-4.207 2.9092-5.3424 14.963-8.0178 16.655-3.6968 25.092-4.2443 29.941-1.9432 4.3844 2.0805 6.5204 5.2116 10.206 14.961 1.4555 3.85 3.7054 8.8395 4.9996 11.088 4.2403 7.3659 2.9292 8.8277-7.0186 7.8254-8.4434-0.8507-30.796 1.2043-39.191 3.6031-3.8152 1.0901-8.156 2.8824-9.6462 3.9828-3.3914 2.5043-4.032 2.4964-6.3628-0.0791zm6.842-1.9168c7.1225-4.2024 18.084-6.1451 37.98-6.7313 10.312-0.30383 18.75-0.9237 18.75-1.3775s-1.2838-2.8494-2.8528-5.3235-4.067-7.8276-5.5511-11.897c-5.0534-13.856-9.4788-15.751-28.533-12.22-15.618 2.894-20.57 4.2143-21.764 5.8029-0.93795 1.2477-3.6475 14.806-4.8666 24.353-0.63935 5.0065 0.54919 9.3902 2.5459 9.3902 0.49921 0 2.4305-0.89849 4.2917-1.9966zm27.73-9.9576c0-0.52481 2.0897-2.5498 4.6438-4.5 6.7287-5.1377 14.511-4.4459 18.796 1.671 2.5263 3.6068 1.7907 4.3778-1.327 1.3908-2.8816-2.7608-2.8907-2.7622-4.3397-0.69345-0.79863 1.1402-1.7502 1.775-2.1145 1.4106-0.36436-0.36437 0.0729-1.4751 0.97168-2.4682 1.5306-1.6913 1.4643-1.8703-1.0456-2.8246-3.3052-1.2566-7.9702 0.50226-11.508 4.3391-2.493 2.7033-4.0757 3.3537-4.0757 1.6747zm10.429-0.47438c-1.059-0.77435-1.6683-1.665-1.354-1.9793 0.31429-0.31428 1.4379 0.0621 2.4969 0.83648 1.059 0.77435 1.6683 1.665 1.354 1.9793-0.31429 0.31428-1.4379-0.0621-2.4969-0.83648z"
         id="path885" />
      <path
         style="fill:#605a1e"
         d="m449.79 442.53c-3.1023-1.6837-3.4194-2.3983-5.4708-12.329-1.8017-8.7226-3.962-13.546-5.6104-12.528-0.78715 0.48649-0.86796 0.11915-0.26778-1.2173 0.47276-1.0527 1.0385-4.614 1.2572-7.914 0.76686-11.573 7.6948-13.841 17.421-5.7045 1.0808 0.90414 4.8453 1.5619 10.356 1.8094 7.9273 0.35603 8.5974 0.24146 7.9437-1.358-0.39269-0.96077-1.2942-4.1653-2.0034-7.1213-1.6049-6.6895-3.8858-9.8166-9.8772-13.542-3.823-2.3772-5.8006-2.9167-10.692-2.9167-7.5092 0-10.241 1.8408-14.704 9.9066-3.2088 5.7997-3.2728 6.1566-2.9852 16.645 0.23591 8.6032 0.62384 10.971 1.9662 12 0.91977 0.70523 1.9684 2.931 2.3304 4.9461 0.77016 4.2881-0.71747 5.5222-9.0168 7.4797-7.5426 1.779-9.7618-0.22699-12.562-11.355-1.1933-4.7418-3.809-7.9727-4.0535-5.0068-0.0553 0.67024-0.51066-0.52876-1.012-2.6644-0.63674-2.7124-0.55866-4.3083 0.25898-5.2935 0.68596-0.82653 1.0924-4.1868 0.98168-8.117-0.21249-7.5451 1.919-12.36 6.3695-14.387 2.3781-1.0836 2.5023-1.5533 2.5023-9.4676 0-6.4851 0.65669-10.378 2.9682-17.593 3.3716-10.525 6.7928-16.34 13.31-22.62 4.4007-4.241 4.4906-4.4493 3.2379-7.5-1.7952-4.3717-0.62194-6.6324 5.7024-10.988 7.1554-4.9281 13.41-6.5164 22.086-5.6086 7.8554 0.8219 11.051 3.0701 12.386 8.7148 0.7866 3.3261 1.2325 3.6553 7.1416 5.2728 6.7784 1.8555 10.393 4.6232 15.327 11.736 3.2409 4.6722 9.1943 16.216 8.6458 16.764-0.18908 0.18907-2.0806-3.0302-4.2035-7.154-2.1228-4.1238-6.0515-9.896-8.7304-12.827-4.4607-4.8808-5.5604-5.5154-13.066-7.5407-6.8963-1.8608-9.5518-2.0988-16.75-1.5013-26.293 2.1827-39.896 14.727-45.542 41.994-1.0208 4.9301-1.4268 9.9187-1.058 13 0.56921 4.7556 0.45476 5.0808-2.3419 6.6542-3.8156 2.1467-6.0796 5.6874-6.7074 10.49l-0.50403 3.8558 2.0679-3.7388c2.3298-4.2124 6.0961-7.0913 8.6264-6.5939 2.9279 0.57547 5.6196 5.4088 6.3958 11.484l0.74715 5.8485 0.13111-5.3538c0.15259-6.2303 5.8392-18.254 9.888-20.907 6.0197-3.9442 16.746-2.9353 24.277 2.2835 4.7317 3.2791 7.1822 7.5345 9.105 15.811l1.3554 5.8344 5.503-0.64552c15.676-1.8388 32.829-5.8118 41.003-9.497 12.054-5.4343 12.644-5.5523 14.129-2.8243 0.68792 1.2639 1.3634 5.2136 1.5011 8.777 0.23313 6.0345 0.42793 6.5264 2.8402 7.1716 2.6671 0.7133 6.6626-0.0809 10.359-2.0589 1.659-0.88787 1.9292-1.6031 1.2692-3.3598-0.46116-1.2275-1.3714-6.2818-2.0227-11.232-0.65133-4.95-1.864-10.892-2.6948-13.203-1.9123-5.3214-7.2005-10.025-12.109-10.771-2.0743-0.31512-5.1214-1.1088-6.7714-1.7638-1.65-0.65499-5.7906-1.2069-9.2013-1.2264-6.69-0.0383-7.0266-1.3599-0.56701-2.2263 2.797-0.37516 5.3878 0.0924 8.7482 1.5789 2.6259 1.1616 5.8645 2.1119 7.1969 2.1119 5.928 0 13.262 6.8496 15.08 14.084 0.61034 2.4289 1.8589 9.3124 2.7745 15.297 1.729 11.3 1.4929 12.56-2.3608 12.604-1.033 0.0119-1.1844 1.4096-0.67882 6.2653 0.47899 4.6002 0.28502 6.74-0.73478 8.1064-1.8432 2.4696-20.55 8.6507-23.235 7.6774-2.7073-0.98121-4.3107-4.5141-4.7-10.356-0.31794-4.7708-0.28138-4.836 3.4404-6.1362l3.7618-1.3142 1.904 4.1362 1.904 4.1362 0.0843-5.05c0.0463-2.7775 0.64676-5.6562 1.3343-6.3972 1.0284-1.1084 0.89546-1.2076-0.75-0.55978-15.644 6.159-32.181 10.145-46 11.089-13.288 0.90704-12.219-0.0634-11.934 10.834 0.31549 12.049-0.46304 13.403-6.8663 11.937-3.3222-0.76024-5.2999-0.7205-7.3701 0.14809-5.0884 2.1349-9.6767 2.4985-12.461 0.98753zm6.7703-13.791c-0.31787-1.2665-1.6907-4.754-3.0508-7.75-3.1043-6.8383-3.4928-3.4404-0.51621 4.5152 2.0202 5.3995 4.7262 7.8534 3.567 3.2348zm-30.639-10.876c0-2.8343-2.1724-8.821-3.2009-8.821-1.1441 0-0.98561 4.1666 0.29872 7.8508 1.2632 3.6235 2.9022 4.1714 2.9022 0.97022zm81.5-3.6235c7.7-1.6133 17.712-4.3754 22.25-6.138l8.25-3.2048-0.0153-5.6773c-0.021-7.7963-0.6518-8.5676-5.5554-6.7934-2.1611 0.78195-6.4765 2.605-9.5896 4.0512-10.174 4.7261-42.559 10.244-54.546 9.2941l-6.2065-0.49193-0.64638 4.3104c-1.1618 7.7472 0.81803 8.6032 18.559 8.0239 9.6875-0.31632 17.454-1.2692 27.5-3.374zm-90.5-3.2565c0-1.1325-0.43035-1.793-0.95633-1.468-0.52598 0.32507-0.70283 1.2516-0.39301 2.059 0.79323 2.0671 1.3493 1.8235 1.3493-0.59105zm4.4298-14.634c1.475-1.2687 3.7817-2.3068 5.126-2.3068 2.7893 0 3.1444-1.1741 0.91463-3.0246-3.8049-3.1578-10.551 4.3528-10.352 11.525l0.11126 4 0.75899-3.9432c0.4563-2.3706 1.8285-4.8632 3.4408-6.25zm23.269-70.935c-0.61248-1.9956-1.2893-3.1013-1.504-2.4571-0.56387 1.6916 0.68544 6.0855 1.7303 6.0855 0.48804 0 0.38623-1.6328-0.22624-3.6284zm11.301-0.62044c3.458-1.2354 9.3054-2.1595 15.75-2.4891 5.6375-0.28831 10.25-0.84806 10.25-1.2439 0-2.7977-2.6731-7.3149-5.0588-8.5485-6.2633-3.2389-20.442-1.1667-28.039 4.0978-4.0592 2.813-4.5959 4.4793-2.8888 8.9692 0.76515 2.0125 1.4398 2.4843 2.75 1.9231 0.95485-0.40899 4.2111-1.6278 7.2361-2.7085zm23.368 74.046c-3.0861-3.4254-3.6077-5.7822-1.8674-8.4382 2.1375-3.2622 4.8816-2.9524 9.2417 1.0433 3.3603 3.0795 3.6182 3.6727 2.7171 6.25-1.3659 3.9068-7.0246 4.5488-10.091 1.1449zm7.4322 0.003c1.9375-1.9375 1.3898-4.5055-1.4349-6.7274-3.6596-2.8786-6.1788-2.663-6.9975 0.5988-0.53627 2.1367-0.12859 3.1375 2.0367 5 3.0334 2.6092 4.6328 2.8914 6.3957 1.1286zm5.2-0.72054c0-0.5937 0.3375-1.0873 0.75-1.0968 0.4125-0.01 3.869-0.67809 7.681-1.4856 3.8121-0.80755 7.1196-1.2797 7.3501-1.0492 1.1215 1.1215-1.2234 2.3854-5.5189 2.9747-2.6193 0.35929-5.9998 0.89697-7.5123 1.1948-1.6361 0.32221-2.75 0.10434-2.75-0.53787zm18.58-5.991c-1.0233-1.1307-1.5972-3.071-1.405-4.75 0.25595-2.2356 0.85588-2.8628 2.825-2.953 1.375-0.063 3.3162-0.4597 4.3138-0.88146 2.7759-1.1736 6.6862 1.049 6.6862 3.8003 0 5.5092-8.723 8.8693-12.42 4.7842zm9.17-1.3333c2.9854-2.3885-0.009-7.7239-3.4873-6.2134-0.9695 0.42106-2.5502 0.66812-3.5127 0.54902s-1.8033 0.37424-1.8685 1.0963c-0.5326 5.9016 4.1724 8.3251 8.8685 4.568zm-93.08-11.43c-0.36667-0.36666-0.66499-3.6292-0.66293-7.25 0.003-4.872 0.53668-7.4575 2.0539-9.9461 1.1276-1.8495 2.29-3.1229 2.5832-2.8297 0.29322 0.29321 0.96426 4.0059 1.4912 8.2503 0.9039 7.2807 0.83255 7.8509-1.2613 10.08-2.3301 2.4803-3.1065 2.7934-4.2041 1.6958zm3.7782-3.2724c1.6174-1.7872 1.642-2.4332 0.31356-8.25-1.4065-6.1588-1.4692-6.2431-2.5998-3.4958-1.3343 3.2422-1.5736 13.685-0.31356 13.685 0.46476 0 1.6347-0.87257 2.5998-1.939zm90.555 3.3894c0-3.4825 7.6104-11.461 11.086-11.621 4.5832-0.21201 6.9142 0.1744 6.9142 1.1461 0 0.54356-1.2892 0.71716-2.9134 0.39232-3.8451-0.76902-8.2129 1.8596-11.233 6.7603-2.0837 3.381-3.8534 4.907-3.8534 3.3227zm-86.571-10.077c-0.38198-2.5472-0.46146-8.3668-0.17662-12.932 0.43989-7.0509 0.94938-8.9119 3.3829-12.357 2.6567-3.7607 5.8468-5.9355 7.0061-4.7762 0.26971 0.2697-0.0598 2.4483-0.73213 4.8413-0.67238 2.393-1.2931 8.4645-1.3794 13.492-0.16459 9.5879-1.4433 13.172-5.4679 15.326-1.7548 0.93913-2.0042 0.5987-2.6329-3.5939zm5.2168-0.62995c1.752-2.6482 2.0546-4.2521 1.65-8.7432-0.46004-5.1057 0.65092-14.162 2.2387-18.25 1.1954-3.0776-1.2623-1.8812-4.4792 2.1804-2.851 3.5998-3.1556 4.7102-3.62 13.198-0.49554 9.0578 0.0505 14.878 1.3944 14.865 0.3688-0.004 1.636-1.4663 2.8161-3.25zm6.7822 2.177c-2.7204-3.006-2.438-7.2126 2.1097-31.42 0.79033-4.207 2.9092-5.3424 14.963-8.0178 16.655-3.6968 25.092-4.2443 29.941-1.9432 4.3844 2.0805 6.5204 5.2116 10.206 14.961 1.4555 3.85 3.7054 8.8395 4.9996 11.088 4.3306 7.5227 3.1235 8.7047-7.9366 7.7717-15.189-1.2813-41.524 2.9172-47.92 7.6397-3.3914 2.5043-4.032 2.4964-6.3628-0.0791zm7.0291-1.8934c6.3614-3.9315 18.835-6.1622 37.043-6.6245 9.35-0.23741 17.562-0.42502 18.25-0.41691 1.8664 0.022 1.5266-1.6072-1.2006-5.7567-1.3478-2.0507-3.8486-7.4055-5.5574-11.9-5.5506-14.598-9.4975-16.495-27.686-13.306-15.324 2.6865-22.426 4.5577-23.434 6.1737-0.44717 0.71705-1.0923 3.3287-1.4336 5.8037s-0.99371 6.075-1.4498 8c-1.6715 7.0549-2.178 15.776-1.0398 17.903 1.3923 2.6016 2.4659 2.6219 6.5086 0.12345zm27.543-9.908c0-1.0878 5.9139-5.6667 9.3276-7.2221 1.4428-0.65736 4.0311-0.8643 6.057-0.48424 3.5395 0.664 9.6434 5.7048 9.5838 7.9146-0.0174 0.64519-1.1993-0.15571-2.6265-1.7798l-2.5949-2.9529-1.8735 2.3136c-1.186 1.4646-1.8735 1.796-1.8735 0.90285 0-0.77593 0.49831-1.9091 1.1074-2.5181 0.80981-0.80981 0.51609-1.4238-1.0931-2.285-3.0152-1.6137-6.055-0.65097-11.006 3.4857-4.4655 3.7308-5.008 4.0152-5.008 2.6254zm10-1.1187c-1.2927-0.8354-1.2663-0.97149 0.19098-0.98469 0.93004-0.008 1.9691 0.43469 2.309 0.98469 0.78218 1.2656-0.54163 1.2656-2.5 0zm24.162-0.54283c-1.6755-3.6773-1.3558-4.4618 0.45586-1.1188 0.84602 1.5611 1.3511 3.0255 1.1224 3.2542s-0.93892-0.73225-1.5783-2.1355z"
         id="path887" />
      <path
         style="fill:#2d2c2c"
         d="m449.79 442.53c-3.1023-1.6837-3.4194-2.3983-5.4708-12.329-1.681-8.1385-3.9552-13.551-5.3356-12.698-0.4689 0.2898-0.37415 2.4116 0.21055 4.7152 0.9834 3.8743 0.88721 4.3058-1.2831 5.7558-3.4264 2.2892-12.088 4.0853-14.214 2.9475-2.2496-1.2039-4.1713-5.0298-5.8227-11.592-1.1933-4.7418-3.809-7.9727-4.0535-5.0068-0.0553 0.67024-0.51066-0.52876-1.012-2.6644-0.63674-2.7124-0.55866-4.3083 0.25898-5.2935 0.68596-0.82653 1.0924-4.1868 0.98168-8.117-0.21249-7.5451 1.919-12.36 6.3695-14.387 2.3781-1.0836 2.5023-1.5533 2.5023-9.4676 0-6.4851 0.65669-10.378 2.9682-17.593 3.3716-10.525 6.7928-16.34 13.31-22.62 4.4007-4.241 4.4906-4.4493 3.2379-7.5-1.7952-4.3717-0.62194-6.6324 5.7024-10.988 7.1554-4.9281 13.41-6.5164 22.086-5.6086 7.8554 0.8219 11.051 3.0701 12.386 8.7148 0.79021 3.3414 1.2161 3.6504 7.3247 5.3153 5.4492 1.4852 7.205 2.5521 10.986 6.6754 4.0618 4.4298 9.8267 13.253 8.659 13.253-0.25793 0-1.6008-1.9125-2.9842-4.25-7.3372-12.398-18.251-17.454-35.365-16.385-14.543 0.90824-24.787 5.1063-32.403 13.279-5.7754 6.1978-7.6659 9.5311-11.046 19.476-2.6198 7.7085-3.2033 11.016-3.2745 18.562l-0.0866 9.1823-3.0928 1.4766c-1.725 0.82355-3.8257 3.021-4.75 4.9688-1.8203 3.836-2.2746 10.19-0.65719 9.19 0.59349-0.3668 1.0468 0.93037 1.115 3.191l0.115 3.809 0.75899-3.9432c0.87451-4.5434 4.8926-8.5568 8.5668-8.5568 2.7893 0 3.1444-1.1741 0.91463-3.0246-2.1573-1.7904-5.943 0.11122-8.469 4.2542-1.0967 1.7987-1.9956 2.583-1.9977 1.7429-0.006-2.4965 2.6987-5.6066 6.1019-7.0163 2.9883-1.2378 3.3269-1.1547 5.4758 1.3434 1.3457 1.5645 2.5494 4.6298 2.9181 7.4316 0.99702 7.5753 1.2607 8.1057 1.3845 2.7852 0.13691-5.882 4.6366-15.725 9.1775-20.075 4.1618-3.9872 13.725-4.6911 20.325-1.496 5.7145 2.7663 11.234 8.857 12.459 13.748 1.9881 7.937 2.1682 9.3067 1.2235 9.3067-0.5328 0-1.5159-2.7812-2.1846-6.1804-1.4981-7.6148-5.6238-12.601-13.081-15.809-6.0727-2.6124-12.518-2.3407-16.668 0.70255-1.4497 1.0633-4.1063 4.6002-5.9036 7.86-3.1859 5.7783-3.2611 6.1941-3 16.596 0.14728 5.8681 0.61279 11.013 1.0345 11.433 1.6142 1.6087 3.042-1.7606 3.6756-8.6736 0.53478-5.8344 1.0937-7.5397 2.969-9.0583 3.3178-2.6866 6.2106-2.3264 11.863 1.4774l4.9752 3.3481 12.375-0.25465c16.667-0.34295 47.663-6.5308 52.398-10.46 0.65735-0.54555 3.6804-1.847 6.718-2.892l5.5228-1.9001 1.1463 2.1554c0.63048 1.1855 1.3252 5.0804 1.5438 8.6554 0.39219 6.4135 0.44191 6.5116 3.7364 7.3688 2.5679 0.66817 4.2594 0.42304 7.3246-1.0614 2.1921-1.0616 3.8506-2.5327 3.6856-3.2689-0.16502-0.73628-0.99274-6.3212-1.8394-12.411-0.84663-6.0898-2.2268-12.435-3.0669-14.1-3.2319-6.4053-8.7492-10.528-14.09-10.528-1.5928 0-4.3129-0.70683-6.0446-1.5707-3.5846-1.7882-8.4945-2.2377-12.159-1.1131l-2.5 0.76729 2.5-1.5063c3.4146-2.0573 7.6693-1.9102 12.859 0.44481 2.3976 1.0879 5.4574 1.978 6.7997 1.978 5.9456 0 13.277 6.8394 15.098 14.084 0.61034 2.4289 1.8589 9.3124 2.7745 15.297 1.729 11.3 1.4929 12.56-2.3608 12.604-1.033 0.0119-1.1844 1.4096-0.67882 6.2653 0.47899 4.6002 0.28502 6.74-0.73478 8.1064-1.8432 2.4696-20.55 8.6507-23.235 7.6774-2.7073-0.98121-4.3107-4.5141-4.7-10.356-0.31794-4.7708-0.28138-4.836 3.4404-6.1362l3.7618-1.3142 1.904 4.1362 1.904 4.1362 0.0843-5.05c0.0463-2.7775 0.64676-5.6562 1.3343-6.3972 1.0284-1.1084 0.89546-1.2076-0.75-0.55978-15.644 6.159-32.181 10.145-46 11.089-13.288 0.90704-12.219-0.0634-11.934 10.834 0.31549 12.049-0.46304 13.403-6.8663 11.937-3.3222-0.76024-5.2999-0.7205-7.3701 0.14809-5.0884 2.1349-9.6767 2.4985-12.461 0.98753zm6.7703-13.791c-0.31787-1.2665-1.6907-4.754-3.0508-7.75-3.1043-6.8383-3.4928-3.4404-0.51621 4.5152 2.0202 5.3995 4.7262 7.8534 3.567 3.2348zm-30.639-10.876c0-2.8343-2.1724-8.821-3.2009-8.821-1.1441 0-0.98561 4.1666 0.29872 7.8508 1.2632 3.6235 2.9022 4.1714 2.9022 0.97022zm81.5-3.6235c7.7-1.6133 17.712-4.3754 22.25-6.138l8.25-3.2048-0.0153-5.6773c-0.021-7.7963-0.6518-8.5676-5.5554-6.7934-2.1611 0.78195-6.4765 2.605-9.5896 4.0512-10.174 4.7261-42.559 10.244-54.546 9.2941l-6.2065-0.49193-0.64638 4.3104c-1.1618 7.7472 0.81803 8.6032 18.559 8.0239 9.6875-0.31632 17.454-1.2692 27.5-3.374zm-90.5-3.2565c0-1.1325-0.43035-1.793-0.95633-1.468-0.52598 0.32507-0.70283 1.2516-0.39301 2.059 0.79323 2.0671 1.3493 1.8235 1.3493-0.59105zm27.699-85.569c-0.61248-1.9956-1.2893-3.1013-1.504-2.4571-0.56387 1.6916 0.68544 6.0855 1.7303 6.0855 0.48804 0 0.38623-1.6328-0.22624-3.6284zm11.301-0.62044c3.458-1.2354 9.3054-2.1595 15.75-2.4891 5.6375-0.28831 10.25-0.84806 10.25-1.2439 0-2.7977-2.6731-7.3149-5.0588-8.5485-6.2633-3.2389-20.442-1.1667-28.039 4.0978-4.0592 2.813-4.5959 4.4793-2.8888 8.9692 0.76515 2.0125 1.4398 2.4843 2.75 1.9231 0.95485-0.40899 4.2111-1.6278 7.2361-2.7085zm23.635 74.176c-5.0901-4.0039-2.429-12.266 3.359-10.429 2.3013 0.73041 7.0062 6.1075 7.0062 8.0072 0 2.0981-2.8988 4.4947-5.4366 4.4947-1.2615 0-3.4794-0.93266-4.9286-2.0726zm7.1651-0.12742c1.9375-1.9375 1.3898-4.5055-1.4349-6.7274-3.6596-2.8786-6.1788-2.663-6.9975 0.5988-0.53627 2.1367-0.12859 3.1375 2.0367 5 3.0334 2.6092 4.6328 2.8914 6.3957 1.1286zm5.2-0.63877c0-0.53546 2.3625-1.2967 5.25-1.6916 2.8875-0.39495 6.3249-1.1248 7.6387-1.6218 1.3138-0.49705 2.6507-0.64167 2.971-0.32137 1.0336 1.0336-2.1358 2.3253-7.3119 2.9799-2.7763 0.3511-5.8353 0.86114-6.7978 1.1334-0.9625 0.27228-1.75 0.057-1.75-0.47849zm18.939-6.2218c-2.5478-2.5478-2.2952-7.2599 0.4168-7.7746 1.0209-0.19378 2.3709 0.16653 3 0.8007 0.86166 0.86862 0.68723 0.97914-0.70714 0.44806-3.7726-1.4369-4.2353 4.6672-0.50506 6.6636 1.3416 0.718 2.6909 0.6319 4.6251-0.29515 3.6095-1.73 3.7324-5.7162 0.23089-7.4876-1.9307-0.97676-2.0865-1.2682-0.68426-1.2795 5.6257-0.0457 7.323 4.4374 3.2297 8.5307-2.9951 2.9951-6.8469 3.1531-9.606 0.39396zm-84.3-12.633c-1.2088-1.2088-0.63817-12.374 0.80949-15.838 1.5362-3.6767 3.5436-4.6448 3.562-1.7179 0.006 0.9625 0.22619 3.55 0.4892 5.75 0.43583 3.6455 0.36046 3.5569-0.85046-1l-1.3287-5-1.1605 2.8151c-1.3358 3.2402-1.5766 13.685-0.31553 13.685 1.0492 0 3.7057-2.9878 4.4456-5 0.38166-1.038 0.57585-0.85473 0.63048 0.59501 0.10189 2.7038-4.8168 7.1759-6.2816 5.7111zm94.361-0.22841c0-0.50724 1.4822-2.8697 3.2938-5.25 3.3501-4.4017 8.4022-6.9815 11.887-6.0701 2.6957 0.70493 2.2076 2.0394-0.55284 1.5116-3.4625-0.66189-8.2592 2.2159-11.265 6.7586-2.6879 4.0617-3.3628 4.6738-3.3628 3.0498zm-85.884-8.3277c0.0873-1.6932 0.22918-1.8169 0.57333-0.5 0.69049 2.6423 1.6004 2.1563 4.5872-2.4502 1.4979-2.3101 2.7234-3.7646 2.7234-3.2321 0 0.53242-1.1412 2.6475-2.536 4.7002-2.8591 4.2076-5.5266 4.9469-5.348 1.4821zm11.953 0.58548c-2.5932-1.8163-2.7286-7.1461-0.50411-19.835 2.6734-15.25 3.0516-16.218 6.8206-17.462 4.9809-1.6438 28.527-6.0379 32.355-6.0379 4.3109 0 9.1753 2.1072 12.037 5.2145 1.2524 1.3597 3.643 6.0302 5.3124 10.379 1.6694 4.3486 4.1688 9.8492 5.5542 12.223 2.5114 4.304 2.5686 7.254 0.13764 7.1042-1.0036-0.0618-1.0104-0.18827-0.0314-0.58333 1.7964-0.72488 1.5653-1.9008-1.2006-6.1092-1.3478-2.0507-3.8486-7.4055-5.5574-11.9-5.5506-14.598-9.4975-16.495-27.686-13.306-15.324 2.6865-22.426 4.5577-23.434 6.1737-0.44717 0.71705-1.0923 3.3287-1.4336 5.8037s-0.99852 6.075-1.4605 8c-1.9026 7.9284-2.1765 16.425-0.59617 18.5 1.5181 1.9929 1.5377 1.992 5.5274-0.25468 7.5603-4.2574 19.095-6.321 37.591-6.7258l17-0.37197-15.785 0.86024c-18.803 1.0247-29.201 2.9645-36.897 6.8834-5.1256 2.6101-5.8838 2.7514-7.75 1.4442zm-12.816-7.8355c-0.0111-2.2 0.18461-3.2178 0.4349-2.2617 0.25029 0.95609 0.25937 2.7561 0.0202 4-0.23919 1.2439-0.44398 0.46166-0.45508-1.7383zm7.2414-8.5c0.20869-4.675 0.86022-9.625 1.4478-11 0.94854-2.2195 0.99638-2.1073 0.4264 1-0.3531 1.925-1.0046 6.875-1.4478 11l-0.80583 7.5zm39.506 4.1187c0-1.0878 5.9139-5.6667 9.3276-7.2221 1.4428-0.65736 4.0311-0.8643 6.057-0.48424 3.5395 0.664 9.6434 5.7048 9.5838 7.9146-0.0174 0.64519-1.1993-0.15571-2.6265-1.7798l-2.5949-2.9529-1.8735 2.3136c-1.186 1.4646-1.8735 1.796-1.8735 0.90285 0-0.77593 0.49831-1.9091 1.1074-2.5181 0.80981-0.80981 0.51609-1.4238-1.0931-2.285-3.0152-1.6137-6.055-0.65097-11.006 3.4857-4.4655 3.7308-5.008 4.0152-5.008 2.6254zm-45.842-2.1187c0-1.375 0.22697-1.9375 0.50438-1.25s0.27741 1.8125 0 2.5-0.50438 0.125-0.50438-1.25zm55.842 1c-1.2927-0.8354-1.2663-0.97149 0.19098-0.98469 0.93004-0.008 1.9691 0.43469 2.309 0.98469 0.78218 1.2656-0.54163 1.2656-2.5 0zm-55.864-7.897c-0.15529-2.7333 6.2-11.103 8.4308-11.103 0.78818 0 1.433 0.43588 1.433 0.96862 0 0.53273-0.61676 0.73194-1.3706 0.44267-1.6791-0.64433-7.2432 6.1274-7.8932 9.6064l-0.46382 2.4824z"
         id="path889" />
      <path
         style="fill:#302a08"
         d="m449.68 441.97c-2.5439-1.4821-3.5055-3.7579-5.2998-12.543-1.6993-8.3202-4.0232-13.223-5.5459-11.7-0.52964 0.52964-0.49343 2.3052 0.0884 4.3338 0.81248 2.833 0.67279 3.7494-0.79527 5.2175-2.3637 2.3637-12.725 4.5609-14.935 3.167-2.1909-1.382-6.3909-12.973-6.3962-17.652-0.005-4.3888-1.3412-4.9455-2.4003-1l-0.73814 2.75-0.84724-2.9873c-0.59948-2.1137-0.45594-3.3786 0.49082-4.3254 0.95942-0.95942 1.2016-3.2453 0.85582-8.0781-0.56297-7.8682 1.1616-12.294 5.8245-14.946 2.7982-1.592 2.9232-1.9654 2.9293-8.7529 0.0131-14.705 5.9166-30.191 15.16-39.768l5.6539-5.8578-1.4173-3.3922c-0.77954-1.8657-1.1629-3.3922-0.8519-3.3922 0.31099 0 1.036 1.35 1.6112 3 0.57519 1.65 1.4999 3 2.055 3 0.55504 0 0.73602-0.7118 0.40218-1.5818-0.33384-0.86998-0.60699-1.9628-0.60699-2.4286 0-0.46573-0.63416-1.4809-1.4092-2.256-0.81566-0.81566-1.0756-1.9492-0.61704-2.6911 0.53205-0.86086 1.1987-0.011 2.03 2.5878 0.68082 2.1283 1.521 4.1724 1.867 4.5424 0.34606 0.36999 4.0042-0.47938 8.1292-1.8875 5.2199-1.7819 10.464-2.7111 17.25-3.0564 8.0712-0.41075 9.7609-0.7745 9.8134-2.1125 0.0463-1.1793 0.28863-1.0601 0.89648 0.44097 0.58383 1.4417 2.734 2.585 7.1866 3.8209 5.2716 1.4633 7.1325 2.6056 10.928 6.7078 4.1355 4.4698 9.7488 12.914 8.5847 12.914-0.25793 0-1.6008-1.9125-2.9842-4.25-7.3372-12.398-18.251-17.454-35.365-16.385-14.543 0.90824-24.787 5.1063-32.403 13.279-5.7754 6.1978-7.6659 9.5311-11.046 19.476-2.6198 7.7085-3.2033 11.016-3.2745 18.562l-0.0866 9.1823-3.0928 1.4766c-1.725 0.82355-3.8257 3.021-4.75 4.9688-1.8203 3.836-2.2746 10.19-0.65719 9.19 0.59392-0.36706 1.0435 0.92874 1.1071 3.191l0.10709 3.809 0.94561-4.2189c1.0617-4.737 4.7245-8.2811 8.5584-8.2811 3.0065 0 2.5913-1.98-0.79716-3.8013-1.8077-0.97165-1.9412-1.225-0.52701-1 3.1584 0.50246 5.6314 4.9954 6.5166 11.84l0.83573 6.4613 0.12681-5.4835c0.148-6.4003 4.4516-16.037 9.1883-20.575 4.1618-3.9872 13.725-4.6911 20.325-1.496 5.7145 2.7663 11.234 8.857 12.459 13.748 1.9881 7.937 2.1682 9.3067 1.2235 9.3067-0.5328 0-1.5159-2.7812-2.1846-6.1804-1.4981-7.6148-5.6238-12.601-13.081-15.809-6.0727-2.6124-12.518-2.3407-16.668 0.70255-1.4497 1.0633-4.0856 4.6002-5.8576 7.86-3.01 5.537-3.2172 6.5515-3.1503 15.427 0.0394 5.225 0.37203 10.572 0.73928 11.883 1.1725 4.184 3.3572-0.12027 4.0836-8.0454 0.52645-5.7434 1.0908-7.4525 2.9606-8.9666 3.3178-2.6866 6.2106-2.3264 11.863 1.4774l4.9752 3.3481 12.375-0.25465c16.667-0.34295 47.663-6.5308 52.398-10.46 0.65735-0.54555 3.6571-1.8389 6.666-2.8742 6.6329-2.282 7.1899-1.7708 8.2772 7.5972l0.71076 6.124-4.8382 2.1844c-12.627 5.701-33.81 10.743-48.838 11.624-11.658 0.68376-11.703 0.69993-10.506 3.8483 0.5811 1.5284 0.64576 4.9422 0.16078 8.4884-0.44617 3.2625-0.43861 5.7015 0.0168 5.4201 1.3241-0.81835 0.95588 2.0492-0.52282 4.0714-1.2098 1.6545-1.8361 1.7252-5.9985 0.6771-3.83-0.96439-5.2852-0.90392-8.2713 0.34373-4.144 1.7315-9.0802 1.9188-11.617 0.44079zm7.2377-12.567c0-0.90226-0.86368-3.4898-1.9193-5.75s-2.1665-4.897-2.4686-5.8595c-0.30213-0.9625-0.97271-1.75-1.4902-1.75-0.93473 0 0.59484 6.8421 2.7385 12.25 1.1967 3.0189 3.1396 3.7056 3.1396 1.1095zm-32.072-17.579c-0.68622-2.0793-1.6829-3.7805-2.2148-3.7805-1.4171 0-0.26988 9.6212 1.3873 11.634 1.2754 1.5494 1.43 1.4439 1.7376-1.1864 0.18568-1.5879-0.22385-4.5883-0.91006-6.6675zm63.072 5.6727c14.435-1.1882 37.631-6.7171 46.035-10.973 4.4434-2.25 4.5285-2.3844 4.2061-6.6385-0.48766-6.4344-1.1462-8.842-2.4186-8.842-0.62656 0-5.0055 1.7784-9.731 3.952-12.646 5.817-43.492 11.598-57.999 10.87l-6.4073-0.32163-0.39417 4.5848c-0.44479 5.1735 0.6789 6.673 5.965 7.9602 3.1474 0.76642 4.8242 0.71858 20.744-0.59181zm36.581 8.2968c-0.72433-1.7875-1.5997-5.119-1.9454-7.4034-0.60127-3.9742-0.49266-4.2008 2.5172-5.25 4.7973-1.6724 5.4238-1.4093 6.8362 2.8703 1.6705 5.0617 2.9145 4.357 2.2779-1.2904-0.42785-3.7959-0.15948-4.6158 2.0899-6.3852 2.2023-1.7323 3.1353-1.883 6.362-1.0274 4.8916 1.297 11.953-1.6517 11.497-4.8007-2.5998-17.929-3.6347-23.385-4.9183-25.929-3.2355-6.4121-8.7505-10.534-14.094-10.534-1.5928 0-4.3129-0.70683-6.0446-1.5707-3.5389-1.7654-8.4243-2.2336-12.159-1.1651-1.375 0.3934-0.95559 0.0102 0.93203-0.85157 3.7291-1.7025 7.7531-1.3488 12.432 1.0929 1.5754 0.82202 3.9523 1.4946 5.2821 1.4946 5.7814 0 13.096 5.5609 15.446 11.744 1.2824 3.373 4.8698 27.508 4.2402 28.527-0.28992 0.4691-1.5386 1.2375-2.7749 1.7075-2.143 0.81475-2.2001 1.1173-1.2264 6.4892 0.96439 5.3206 0.88609 5.7641-1.4051 7.959-2.5212 2.4153-17.192 7.5738-21.539 7.5738-1.8716 0-2.8161-0.80644-3.8062-3.25zm-44.946-26.823c-5.0901-4.0039-2.429-12.266 3.359-10.429 2.3013 0.73041 7.0062 6.1075 7.0062 8.0072 0 2.0981-2.8988 4.4947-5.4366 4.4947-1.2615 0-3.4794-0.93266-4.9286-2.0726zm7.1651-0.12742c1.7809-1.7809 1.464-3.8901-0.97431-6.4856-2.4607-2.6193-6.5987-3.0695-7.4649-0.81221-1.93 5.0296 4.847 10.89 8.4392 7.2978zm5.2-0.63877c0-0.53546 2.3625-1.2967 5.25-1.6916 2.8875-0.39495 6.3249-1.1248 7.6387-1.6218 1.3138-0.49705 2.6507-0.64167 2.971-0.32137 1.0336 1.0336-2.1358 2.3253-7.3119 2.9799-2.7763 0.3511-5.8353 0.86114-6.7978 1.1334-0.9625 0.27228-1.75 0.057-1.75-0.47849zm-74.994-0.97697c-0.0105-2.2482 1.9402-5.0902 4.2668-6.2165 1.9983-0.96735 2.0495-0.9343 0.49836 0.32177-0.9508 0.76992-2.4105 2.7072-3.2438 4.3052-0.83332 1.5979-1.5179 2.3132-1.5213 1.5896zm93.933-5.2448c-2.9122-2.9122-2.2983-7.357 1.0606-7.6795 2.4636-0.23653 2.4672-0.22607 0.25 0.71778-2.6444 1.1257-2.8372 2.7388-0.6933 5.7998 2.0307 2.8993 4.9383 2.8184 7.9787-0.22196 2.8617-2.8617 2.3961-5.042-1.3714-6.4219-1.8468-0.67642-2.107-0.99993-0.84825-1.0547 2.9108-0.12656 5.6843 1.8259 5.6843 4.0017 0 2.8212-4.4151 6.9194-7.4546 6.9194-1.4 0-3.4727-0.92726-4.606-2.0606zm-84.5-13.238c-0.30083-0.78394-0.38274-4.075-0.18203-7.3134l0.36494-5.888 0.18909 6.25c0.10399 3.4375 0.52658 6.2431 0.93908 6.2347 1.5448-0.0315 3.1816-1.6193 4.1368-4.0129 0.89327-2.2383 0.99241-2.2739 1.0498-0.37676 0.0968 3.1984-5.5323 7.6222-6.4977 5.1064zm94.561 0.44863c0-1.5066 5.8741-9.0123 7.9029-10.098 2.3621-1.2642 9.0971-1.4053 9.0971-0.19065 0 0.47373-1.0672 0.65731-2.3717 0.40795-3.4625-0.66189-8.2592 2.2159-11.265 6.7586-2.6561 4.0136-3.3628 4.6698-3.3628 3.1222zm-85.921-7.9c0.0472-1.0454 0.28201-1.2467 0.58333-0.5 0.87764 2.175 2.1491 1.3756 4.7716-3 1.401-2.3375 2.5515-3.792 2.5567-3.2321 0.005 0.55983-1.1318 2.6973-2.5266 4.75-2.6586 3.9126-5.5196 4.9656-5.385 1.9821zm11.99 0.0855c-2.5932-1.8163-2.7286-7.1461-0.50411-19.835 2.6734-15.25 3.0516-16.218 6.8206-17.462 4.9171-1.6228 28.505-6.0379 32.257-6.0379 8.0092 0 13.222 4.4293 16.962 14.413 1.4603 3.8978 4.0456 9.6655 5.745 12.817 2.5071 4.6493 2.8486 5.9696 1.8108 7-1.0362 1.0287-1.1506 0.93244-0.60256-0.50705 0.42738-1.1224-0.24286-3.1483-1.8197-5.5-1.3729-2.0477-3.7624-7.0981-5.31-11.223-3.7694-10.047-5.6359-12.532-10.933-14.555-4.2164-1.6102-5.0742-1.6117-14.6-0.0247-14.018 2.3354-23.475 4.5524-25.389 5.9518-1.5703 1.1482-1.9362 2.8208-4.6346 21.187-1.3098 8.9147-0.70421 13.441 1.7982 13.441 0.8972 0 3.9261-1.1145 6.731-2.4766 7.78-3.7784 18.47-5.5818 35.6-6.0054l15.5-0.38333-15.346 0.87938c-18.451 1.0573-28.725 3.0019-36.335 6.8772-5.1256 2.6101-5.8838 2.7514-7.75 1.4442zm-15.874-2.8355c-0.0204-1.65 0.18706-2.4461 0.46099-1.769 0.27392 0.67703 0.29059 2.027 0.0371 3-0.25354 0.97297-0.47766 0.41903-0.49804-1.231zm3.0572-5c-0.0111-2.2 0.18461-3.2178 0.4349-2.2617 0.25029 0.95609 0.25937 2.7561 0.0202 4-0.23919 1.2439-0.44398 0.46166-0.45508-1.7383zm-7.2522 0.69113c0-1.4615 2.8215-4.703 3.5016-4.0229 0.3658 0.3658-0.2724 1.6026-1.4182 2.7484s-2.0833 1.7193-2.0833 1.2745zm14.118-6.7745c0.0651-3.2542 0.45893-7.2667 0.87524-8.9167 0.41669-1.6515 0.52563 0.82081 0.24236 5.5-0.5993 9.8994-1.2894 12.009-1.1176 3.4167zm43.551-1.2676c4.4797-4.3735 7.8664-5.7334 11.813-4.743 2.8851 0.72411 9.5206 6.2675 9.5134 7.9476-0.003 0.63053-1.0832-0.20118-2.4009-1.8482l-2.396-2.9946-2.2446 1.9946-2.2446 1.9946 1.2265-2.3356c1.5576-2.9661 0.86033-3.6189-3.8658-3.6189-2.9023 0-4.9708 0.9134-8.6894 3.8369l-4.8804 3.8369zm6.838 1.8624c-0.35034-0.56686 0.0511-0.7345 0.94098-0.39301 1.7324 0.66479 2.0494 1.3816 0.61096 1.3816-0.51754 0-1.2159-0.44485-1.5519-0.98855zm-56.428-8.9085c-0.11006-1.9474 6.7418-10.103 8.488-10.103 0.78818 0 1.433 0.43588 1.433 0.96862 0 0.53273-0.61676 0.73194-1.3706 0.44267-1.3134-0.50399-6.6691 5.3148-7.9052 8.5887-0.44452 1.1774-0.58332 1.1995-0.64528 0.10299zm12.921-33.013c3.3074-2.9069 11.499-6.198 14.932-5.9991 0.86268 0.05-0.86204 0.75017-3.8327 1.556-2.9706 0.80582-7.4706 2.8273-10 4.4923l-4.5988 3.0271zm30.872-2.84c-1.2439-1.5861-1.2085-1.6214 0.37756-0.37756 1.6658 1.3064 2.1955 2.1276 1.3724 2.1276-0.20765 0-0.99515-0.7875-1.75-1.75zm-11.122-2.9557c1.2375-0.23836 3.2625-0.23836 4.5 0 1.2375 0.23835 0.225 0.43337-2.25 0.43337s-3.4875-0.19502-2.25-0.43337z"
         id="path891" />
      <path
         style="fill:#030302"
         d="m448.55 440.76c-1.4118-1.4118-2.731-4.5567-3.4608-8.25-1.8046-9.133-3.1048-13.264-4.6662-14.825-1.0891-1.0891-1.1978-2.2125-0.46231-4.7771 0.52892-1.8442 0.96167-5.0436 0.96167-7.1098 0-4.245 2.7528-7.7566 6.0805-7.7566 1.1443 0 4.4068 1.5383 7.25 3.4184 3.8261 2.53 5.9491 3.3041 8.1695 2.9786 2.6862-0.39377 2.7646-0.33629 0.75 0.54938-1.8436 0.81051-2.25 1.7856-2.25 5.3989 0 7.474 4.2838 8.9644 21.885 7.6142 18.701-1.4344 41.147-6.4988 51.273-11.568 4.6171-2.3115 4.6546-2.3706 4.188-6.6117-0.94425-8.5823-1.1703-9.0405-4.0978-8.3057-1.4652 0.36775-5.8332 2.1894-9.7065 4.048-7.3058 3.5058-27.787 8.2331-38.542 8.8961-3.025 0.18647-4.15 0.14532-2.5-0.0914 15.037-2.1576 33.875-6.8392 41.702-10.364 4.8401-2.1794 9.4588-3.9625 10.264-3.9625 2.067 0 3.2007 2.662 3.7684 8.8482 0.47052 5.1277 0.36241 5.427-2.6219 7.2578-1.712 1.0503-5.5876 2.8608-8.6126 4.0233-7.9955 3.0728-37.404 8.8545-45.083 8.8632-3.6208 0.004-6.8546 0.27873-7.1862 0.61028-0.33155 0.33156-0.22163 1.6054 0.24427 2.8308s0.52089 4.9946 0.12221 8.3759c-0.39869 3.3813-0.33286 6.2785 0.14629 6.4382 1.274 0.42466-0.14249 3.4996-1.9277 4.1846-0.84137 0.32286-3.2651 0.11974-5.3861-0.45138-3.0188-0.81289-4.6509-0.7064-7.515 0.49029-5.3507 2.2357-10.077 1.9575-12.787-0.75274zm8.3724-11.873c0-1.1202-0.67192-3.2311-1.4932-4.691-0.82123-1.4599-1.9351-3.8918-2.4752-5.4043-0.54015-1.5125-1.4432-2.75-2.0068-2.75-0.56361 0-1.0199 0.1125-1.0139 0.25 0.0329 0.75932 3.1667 10.66 4.1109 12.987 1.2251 3.0199 2.8783 2.7947 2.8783-0.39201zm-34.744 0.90472c-1.7217-2.1753-5.6236-15.135-5.4196-18 0.25342-3.5595-1.3923-3.5595-2.3898 0l-0.77064 2.75-0.65866-3c-0.41013-1.8681-0.17875-3.5752 0.61325-4.5246 0.86948-1.0422 1.0878-3.308 0.69016-7.1611-0.31995-3.1001-0.29161-6.7924 0.063-8.2052 0.68722-2.7381 5.8585-8.6091 7.583-8.6091 0.61771 0 1.0337-2.9538 1.0337-7.34 0-15.114 6.9903-32.87 16.201-41.151 4.373-3.9317 4.7904-4.6557 3.7765-6.5502-0.62695-1.1715-0.91954-2.3503-0.6502-2.6197 0.26935-0.26934 0.78613 0.4442 1.1484 1.5856 0.97634 3.0762 2.6492 2.5175 2.02-0.67464-0.51752-2.6256-0.49547-2.6435 0.48739-0.39548 0.75103 1.7178 1.501 2.1572 2.773 1.6251 4.4741-1.8718 13.639-4.474 15.583-4.4245 1.1885 0.0303-1.058 0.89888-4.9921 1.9302-9.6289 2.5242-14.295 5.0581-20.214 10.977-8.7438 8.7438-15.133 25.859-15.133 40.537 0 6.6895-0.17079 7.2573-2.5023 8.3196-3.6261 1.6522-6.4896 6.939-6.494 11.99-0.002 2.6188 0.3885 4.0666 0.99626 3.691 0.58342-0.36057 1 0.65628 1 2.441 0 4.2959 1.46 3.8231 1.6859-0.5459 0.23417-4.5294 2.3669-6.9114 7.3121-8.1666 4.5767-1.1617 5.002-0.58401 5.002 6.7943 0 7.1394 1.6625 6.9455 2.4426-0.28495 0.77943-7.2244 5.5274-16.968 9.794-20.1 1.7479-1.2828 4.8188-2.1541 8.5-2.4116 4.8668-0.34042 6.6024 0.0384 11.156 2.4352 7.1104 3.7426 10.683 8.3489 12.48 16.088 0.79779 3.4375 1.0404 6.25 0.53922 6.25-0.50122 0-0.91131-0.81832-0.91131-1.8185 0-4.3329-3.2505-12.278-6.2504-15.278-6.5336-6.5336-16.651-8.7349-23.679-5.1519-4.7757 2.4349-9.692 11.727-10.617 20.068-0.78445 7.0704 0.74911 16.819 2.9205 18.565 2.3424 1.8836 2.8077 6.1442 0.86013 7.8752-3.5744 3.1768-14.132 4.822-15.978 2.4897zm2.672-17.97c-0.68622-2.0793-1.6829-3.7805-2.2148-3.7805-1.4171 0-0.26988 9.6212 1.3873 11.634 1.2754 1.5494 1.43 1.4439 1.7376-1.1864 0.18568-1.5879-0.22385-4.5883-0.91006-6.6675zm99.653 13.97c-0.72433-1.7875-1.5997-5.119-1.9454-7.4034-0.60127-3.9742-0.49266-4.2008 2.5172-5.25 4.8144-1.6783 5.4375-1.4071 6.7376 2.9323 1.5418 5.1461 2.8432 4.3859 2.5128-1.4679-0.21589-3.8244 0.13956-4.8427 2.2773-6.5243 2.0188-1.588 2.9454-1.772 4.5634-0.90601 1.9416 1.0391 5.9678 0.79532 10.256-0.62103 1.6385-0.54119 1.7131-0.47368 0.41279 0.37351-1.3486 0.87865-1.4348 1.8748-0.57358 6.6264 0.95564 5.2723 0.8748 5.7253-1.4128 7.9167-2.5212 2.4153-17.192 7.5738-21.539 7.5738-1.8716 0-2.8161-0.80644-3.8062-3.25zm-55.853-20.472c1.7752-0.22091 4.9252-0.22454 7-0.008 2.0748 0.21648 0.6223 0.39722-3.2277 0.40166-3.85 0.004-5.5475-0.17268-3.7723-0.39359zm85.654-1.6238c-0.0652-1.185-0.8674-7.1045-1.7827-13.155-2.5916-17.129-6.2667-22.64-16.335-24.493-5.7237-1.0532-17.612-5.4259-12.434-4.5735 1.8314 0.3015 4.7564 1.1843 6.5 1.9618 1.7436 0.77749 4.8995 1.6601 7.0131 1.9612 4.904 0.69884 10.124 4.6775 12.661 9.6506 1.0919 2.1403 2.6487 8.6174 3.4595 14.393 0.81082 5.776 1.7497 11.6 2.0865 12.941 0.33676 1.3418 0.23833 2.6707-0.21873 2.9532-0.45707 0.28249-0.88436-0.45592-0.94953-1.6409zm-72.977-3.809c-0.45403-0.73463-0.27298-0.88223 0.49782-0.40585 2.2977 1.4201 6.0977-0.3151 6.0977-2.7844 0-4.7762-8.1654-8.9939-9.695-5.0078-0.34771 0.90611-0.12213 3.0436 0.50128 4.75 1.0318 2.8241 1.0016 2.9283-0.33642 1.1614-2.994-3.9538-1.2316-8.5589 3.2756-8.5589 4.9641 0 9.2354 7.6191 6.0546 10.8-1.5278 1.5278-5.4621 1.5558-6.3955 0.0455zm17.595-3.3818c3.575-0.7372 7.175-1.3147 8-1.2832 2.6659 0.10154-8.3983 2.6276-11.5 2.6256-1.65-0.001-0.075-0.60513 3.5-1.3423zm12.073-5.0986c-1.1399-1.4492-2.0726-3.1592-2.0726-3.8 0-1.4237 2.0369-3.5651 3.3911-3.5651 0.54512 0 0.11762 0.6496-0.95 1.4436-1.8014 1.3396-1.8308 1.6455-0.40771 4.25 2.0359 3.7261 5.2806 4.0834 8.4352 0.92874 2.7584-2.7584 2.5091-5.1772-0.63636-6.1755-1.0906-0.34615-1.7381-0.87424-1.4388-1.1735 0.29928-0.29929 1.7056 0.21684 3.1251 1.1469 2.9935 1.9614 2.6574 4.9603-0.87502 7.8076-3.0784 2.4813-6.1867 2.1685-8.5709-0.86262zm-84.75-18.36c0-3.575 0.1815-5.0375 0.40333-3.25 0.22182 1.7875 0.22182 4.7125 0 6.5-0.22183 1.7875-0.40333 0.325-0.40333-3.25zm3.4299 4.0228c1.2375-1.1554 2.25-2.6082 2.25-3.2284 0-0.62024 0.26146-0.86625 0.58102-0.54669 0.91116 0.91116-1.3346 4.4441-3.3032 5.1964-1.353 0.51709-1.2402 0.17751 0.47222-1.4213zm93.194-0.94398c3.8115-5.3527 7.9001-8.0894 11.883-7.9537l3.6733 0.12516-4.214 0.68728c-4.5256 0.73811-7.4642 2.8627-10.077 7.2855-0.9022 1.5273-2.024 2.7769-2.4928 2.7769-0.46887 0 0.0835-1.3145 1.2276-2.9212zm-76.909-6.0131c-0.56935-1.0638-0.97182-3.8763-0.89438-6.25 0.14041-4.3038 0.14258-4.301 0.78313 0.99121 0.3594 2.9694 1.2884 5.7156 2.1092 6.2347 0.93911 0.59395 1.0298 0.93324 0.25205 0.94305-0.66815 0.008-1.6806-0.85511-2.25-1.919zm18.236-4.6699c0.33229-0.33229 1.1948-0.36781 1.9167-0.0789 0.79773 0.31922 0.56078 0.55618-0.60417 0.60416-1.0542 0.0434-1.6448-0.19292-1.3125-0.52522zm4.4792-1.0581c0.6875-0.27741 1.8125-0.27741 2.5 0s0.125 0.50439-1.25 0.50439-1.9375-0.22698-1.25-0.50439zm6-1.0434c1.2375-0.23836 3.2625-0.23836 4.5 0 1.2375 0.23835 0.225 0.43337-2.25 0.43337s-3.4875-0.19502-2.25-0.43337zm15-1.0315c2.8875-0.202 7.6125-0.202 10.5 0s0.525 0.36728-5.25 0.36728-8.1375-0.16528-5.25-0.36728zm-6.25-5.1718c4.2533-4.6353 8.0534-6.3973 12.143-5.6301 3.536 0.66336 10.381 5.8954 10.325 7.8928-0.0174 0.63053-0.95496-0.0911-2.0834-1.6036-2.3864-3.1986-3.6225-3.4201-5.5798-1-1.2678 1.5675-1.2969 1.5064-0.27923-0.58565 1.4488-2.9784 0.74865-3.6189-3.9561-3.6189-2.9295 0-4.9359 0.90223-8.6894 3.9075-4.5718 3.6604-4.6907 3.7008-1.8804 0.63799zm-37.268-1.0909c0-1.925 0.2058-2.7125 0.45733-1.75 0.25152 0.9625 0.25152 2.5375 0 3.5-0.25153 0.9625-0.45733 0.175-0.45733-1.75zm45.275 2.0114c-0.35034-0.56686 0.0511-0.7345 0.94098-0.39301 1.7324 0.66479 2.0494 1.3816 0.61096 1.3816-0.51754 0-1.2159-0.44485-1.5519-0.98855zm-44.428-7.4281c-0.0434-1.0542 0.19293-1.6448 0.52522-1.3125s0.36782 1.1948 0.0789 1.9167c-0.31922 0.79773-0.55618 0.56078-0.60416-0.60417zm56.032-3.6944c-0.61607-1.7673-0.94513-3.3882-0.73124-3.6021 0.21389-0.21389 0.89295 1.057 1.509 2.8243 0.61607 1.7673 0.94513 3.3882 0.73124 3.6021-0.21389 0.21389-0.89295-1.057-1.509-2.8243zm-54.916-1.3889c-0.0204-1.65 0.18706-2.4461 0.46099-1.769 0.27392 0.67703 0.29059 2.027 0.0371 3-0.25354 0.97297-0.47766 0.41903-0.49804-1.231zm-9.195-2.8776c0-0.20766 0.7875-0.99516 1.75-1.75 1.5861-1.2439 1.6214-1.2085 0.37756 0.37755-1.3064 1.6658-2.1276 2.1955-2.1276 1.3724zm61.124-3.6969c-0.58947-1.6909-2.546-4.4607-4.3478-6.155-2.1221-1.9955-2.508-2.6745-1.0956-1.9276 2.4848 1.3139 5.7243 5.5851 6.7557 8.9071 1.0592 3.4114-0.0866 2.6916-1.3123-0.82444zm-49.124-3.1531c1.527-1.6471 24.557-6.8965 29.115-6.6362l2.3853 0.13618-2.5 0.42728c-11.02 1.8834-27.777 5.6908-29 6.5892-1.3333 0.97927-1.3333 0.92189 0-0.51636zm52.405-1.0224-1.905-2.25 2.25 1.905c2.1144 1.7902 2.7052 2.595 1.905 2.595-0.18976 0-1.2023-1.0125-2.25-2.25zm-4.4807-5.5-2.4243-2.75 2.75 2.4243c1.5125 1.3334 2.75 2.5709 2.75 2.75 0 0.78428-0.8098 0.14598-3.0757-2.4243zm-12.924-0.25c-3.4176-0.71937-3.4294-0.73816-0.5-0.79807 1.65-0.0337 3.9 0.32538 5 0.79807 2.4047 1.0333 0.40913 1.0333-4.5 0zm1-4.5517c-2.475-0.77986-6.3-1.5004-8.5-1.6012l-4-0.18329 3.75-0.39226c2.661-0.27835 3.7704-0.88291 3.8203-2.0819 0.0569-1.3684 0.21745-1.3129 0.84431 0.29194 0.49341 1.2632 2.7339 2.5872 6.1797 3.652 2.9731 0.91871 4.7307 1.6844 3.9057 1.7015s-3.525-0.60693-6-1.3868zm-43.726-2.2791c-0.67597-0.41776-0.82775-1.273-0.36021-2.0295 0.62722-1.0148 0.95636-0.92097 1.4708 0.41952 0.79874 2.0815 0.4561 2.5782-1.1105 1.61zm23.997 0.2266c0.33229-0.33229 1.1948-0.36781 1.9167-0.0789 0.79773 0.31922 0.56078 0.55618-0.60417 0.60416-1.0542 0.0434-1.6448-0.19292-1.3125-0.52522zm-17.39-7.7313c1.3691-1.6704 11.84-5.2771 12.732-4.3854 0.25528 0.25529-1.6906 1.0012-4.3242 1.6577-2.6336 0.65644-5.9133 1.9178-7.2883 2.803-2.3327 1.5018-2.4076 1.4967-1.1192-0.0753zm28.992-1.4146c-1.2439-1.5861-1.2085-1.6214 0.37756-0.37756 1.6658 1.3064 2.1955 2.1276 1.3724 2.1276-0.20765 0-0.99515-0.7875-1.75-1.75z"
         id="path893" />
      <text
         style="line-height:0%;font-family:Impact;fill:#000000"
         xml:space="preserve"
         transform="rotate(-10.777)"
         y="402.75854"
         x="385.13419"
         id="text897"><tspan
           y="402.75854"
           x="385.13419"
           style="font-size:11.753px;line-height:1"
           id="tspan895">tam</tspan></text>
    </g>
  </g>
</svg>
